<svg width="114" height="114" viewBox="0 0 114 114" fill="none" xmlns="http://www.w3.org/2000/svg">
<circle cx="57" cy="57" r="57" fill="#735CFF"/>
<path d="M83.4103 80.6947C85.4436 79.5311 86.8127 77.5256 86.9835 75.461C87.1879 72.9894 85.589 70.6328 83.3436 70.0958C81.8322 69.7343 80.2924 70.1567 78.891 71.3169C77.7999 72.2201 76.8453 73.5336 76.203 75.0151C75.5169 76.5976 75.0848 78.1986 74.9097 79.7629C71.9878 79.2974 69.1193 78.0551 66.6319 76.1508C63.4089 73.6833 61.0919 70.3088 60.108 66.6488C59.9587 66.093 59.3874 65.7639 58.8312 65.9131C58.2755 66.0625 57.9461 66.6342 58.0956 67.1899C60.1433 74.8069 67.077 80.735 74.8305 81.8599C74.8824 83.2046 75.1365 84.5014 75.5951 85.7122C77.0172 89.4663 80.5593 92.1163 84.2089 92.1569H84.2205C84.7906 92.1569 85.256 91.6978 85.2623 91.1264C85.2686 90.5509 84.8074 90.0793 84.2318 90.0729C81.4194 90.0416 78.6692 87.9449 77.5437 84.9739C77.1996 84.0656 76.998 83.0778 76.9365 82.0445C77.1269 82.0504 77.3205 82.0519 77.5097 82.0529C79.8892 82.0495 81.8192 81.6052 83.4103 80.6947ZM76.9963 79.9613C77.1499 78.6021 77.5242 77.2065 78.115 75.844C79.4257 72.8212 81.4927 71.7958 82.859 72.1226C84.0865 72.4161 85.0243 73.8662 84.9066 75.2891C84.7916 76.68 83.8217 78.0582 82.3752 78.8859C81.1069 79.6118 79.5145 79.966 77.5071 79.9688C77.3362 79.9692 77.1668 79.9665 76.9963 79.9613Z" fill="white"/>
<path d="M65.1991 50.7087C65.7573 50.5691 66.0967 50.0032 65.9571 49.445C65.8175 48.8868 65.2513 48.5472 64.6934 48.687L61.7188 49.4311L55.6136 42.0234L42.0055 25.5124L77.9854 45.0491C78.0142 45.0646 78.0903 45.106 78.0753 45.2245C78.0603 45.343 77.9761 45.364 77.9445 45.3719L69.3944 47.5109C68.8362 47.6506 68.4968 48.2164 68.6364 48.7747C68.776 49.3329 69.3421 49.6723 69.9001 49.5327L78.4502 47.3937C79.3603 47.166 80.0247 46.4175 80.1426 45.4867C80.2606 44.5559 79.8042 43.6653 78.9798 43.2177L38.2899 21.1236C38.246 21.0997 38.1996 21.0791 38.1526 21.0619C38.0998 21.0424 38.0434 21.0271 37.9881 21.0166C37.9863 21.0163 37.9845 21.0157 37.9814 21.0153C37.5895 20.9527 37.2213 21.0827 36.974 21.3957C36.8871 21.5058 36.8227 21.6333 36.7863 21.7688C36.7859 21.7704 33.8432 32.719 33.8432 32.719C33.6939 33.2747 34.0233 33.8464 34.579 33.9958C35.1349 34.1452 35.7064 33.8157 35.8558 33.26L38.0348 25.1524L50.5709 53.3861L47.3642 54.1789L29.3015 58.6443C29.1733 58.6758 29.0563 58.5584 29.091 58.4293C29.1016 58.3899 34.5926 37.9605 34.5926 37.9605C34.742 37.4047 34.4126 36.833 33.8568 36.6837C33.301 36.5349 32.7294 36.8637 32.58 37.4195L27.0785 57.8883C26.8688 58.6684 27.0812 59.4786 27.6466 60.0555C28.0795 60.4973 28.6534 60.7349 29.2505 60.7349C29.4331 60.7349 29.618 60.7127 29.8017 60.6673L44.5649 57.0175C45.2583 57.4411 55.2973 63.5748 55.2973 63.5748C55.5434 63.7253 55.8656 63.7666 56.1427 63.6825C56.423 63.5975 56.6677 63.3839 56.7891 63.1169C56.7904 63.1141 61.0732 53.692 62.0738 51.4905L65.1991 50.7087ZM47.4105 56.3141L51.4299 55.3205L53.5318 60.0543L47.4105 56.3141ZM55.8516 60.1432L41.8415 28.5902L60.1156 50.7627L55.8516 60.1432Z" fill="white"/>
<path d="M71.2407 55.0055C71.0736 54.4548 70.4914 54.144 69.9411 54.311C69.3904 54.4781 69.0795 55.06 69.2466 55.6106C69.9103 57.7981 71.5511 59.6642 73.6356 60.6026C73.7745 60.6651 73.9197 60.6947 74.0627 60.6947C74.4602 60.6947 74.8397 60.466 75.0134 60.0802C75.2496 59.5554 75.0158 58.9386 74.491 58.7024C72.9473 58.0074 71.7322 56.6255 71.2407 55.0055Z" fill="white"/>
<path d="M75.7967 52.4062C75.523 51.9 74.891 51.7113 74.3846 51.9851C73.8783 52.2587 73.6898 52.891 73.9635 53.3972C75.4073 56.0684 78.0375 58.0622 80.9994 58.7309C81.0767 58.7482 81.1538 58.7567 81.2298 58.7567C81.706 58.7567 82.1359 58.428 82.2452 57.9439C82.3719 57.3827 82.0196 56.8248 81.4582 56.6981C79.0748 56.1599 76.9584 54.5557 75.7967 52.4062Z" fill="white"/>
<path d="M41.8037 62.5548C41.26 62.7438 40.9727 63.3377 41.1617 63.8812C41.7175 65.4802 41.5486 67.3126 40.7094 68.7827C40.4242 69.2826 40.5982 69.9189 41.0979 70.2042C41.2609 70.2971 41.4384 70.3414 41.6135 70.3414C41.9754 70.3414 42.3272 70.1526 42.5195 69.8157C43.6526 67.8304 43.8808 65.356 43.1302 63.1967C42.9411 62.6532 42.3469 62.3657 41.8037 62.5548Z" fill="white"/>
<path d="M36.8415 63.2901C36.2712 63.3668 35.8709 63.8914 35.9476 64.4617C36.2733 66.8831 35.5064 69.4257 33.896 71.2634C33.5167 71.6962 33.5602 72.3546 33.993 72.7337C34.1907 72.9071 34.4355 72.992 34.6793 72.992C34.969 72.992 35.2574 72.8718 35.4634 72.6367C37.4646 70.353 38.4177 67.1931 38.0131 64.184C37.9364 63.6137 37.4124 63.2133 36.8415 63.2901Z" fill="white"/>
</svg>
