<svg width="35" height="22" viewBox="0 0 35 22" fill="none" xmlns="http://www.w3.org/2000/svg">
<rect width="35" height="22" rx="2" fill="#26337A"/>
<path d="M12.5653 16.6646H10.9575C10.8275 16.6423 10.6967 16.6242 10.5676 16.597C9.64318 16.4021 8.69346 16.2836 7.80097 15.991C6.46266 15.5524 5.52438 14.6493 5.20917 13.2222C4.92999 11.9586 4.93445 10.6864 5.1976 9.42007C5.39485 8.47095 5.90875 7.73582 6.72063 7.193C7.41274 6.73031 8.18161 6.46811 8.97951 6.30304C9.67861 6.15857 10.3949 6.09784 11.1037 6C11.5665 6 12.0293 6 12.4922 6C12.6098 6.02169 12.728 6.04073 12.845 6.06555C13.7691 6.26111 14.7283 6.35883 15.6095 6.67416C17.6431 7.40193 18.3957 8.6512 18.3835 10.9831C18.2306 10.9906 18.0757 11.0051 17.9209 11.0047C15.9971 10.9985 14.0735 10.9901 12.1497 10.9825C12.0523 10.9821 11.951 10.9683 11.8589 10.9908C11.8048 11.0041 11.7335 11.074 11.729 11.1238C11.7251 11.1667 11.7969 11.2419 11.8494 11.2587C11.9275 11.2836 12.0179 11.2714 12.1032 11.272C14.099 11.2849 16.0948 11.2969 18.0907 11.311C18.195 11.3117 18.2993 11.3287 18.4502 11.3424C18.4118 11.8341 18.3931 12.2943 18.337 12.7496C18.1613 14.1746 17.4414 15.2242 16.1233 15.8215C15.6835 16.0208 15.2202 16.1915 14.75 16.2955C14.0298 16.4549 13.2944 16.5452 12.5655 16.6647L12.5653 16.6646Z" fill="white"/>
<path d="M18.7364 16.2703V11.3399C18.815 11.33 18.9178 11.3055 19.0206 11.3057C21.8449 11.309 24.6693 11.3131 27.4936 11.3213C28.6144 11.3246 29.478 11.9129 29.8349 12.9035C30.2092 13.9424 29.9435 15.1417 29.104 15.7878C28.766 16.0479 28.2991 16.2774 27.8875 16.2831C24.8934 16.3243 21.8984 16.305 18.9037 16.3036C18.8579 16.3036 18.8122 16.286 18.7363 16.2704L18.7364 16.2703Z" fill="white"/>
<path d="M18.7305 10.9816V6.3172C18.8477 6.30455 18.9401 6.286 19.0324 6.286C21.855 6.28455 24.6775 6.27973 27.5001 6.28756C28.7191 6.29094 29.6486 6.98727 29.9157 8.06302C30.273 9.50123 29.3409 10.8568 27.8689 10.9993C27.3502 11.0496 26.8237 11.0249 26.3008 11.024C23.9285 11.02 21.5561 11.0126 19.1839 11.0049C19.0403 11.0044 18.8966 10.9905 18.7305 10.9816Z" fill="white"/>
</svg>
