<svg width="35" height="22" viewBox="0 0 35 22" fill="none" xmlns="http://www.w3.org/2000/svg">
<rect width="35" height="22" rx="2" fill="#26337A"/>
<path fill-rule="evenodd" clip-rule="evenodd" d="M8 9.05174H8.86964C9.03181 9.05174 9.19388 9.06649 9.34119 9.08862C10.1076 9.19916 10.7119 9.60453 10.7119 10.6804C10.7119 11.749 10.1076 12.1615 9.34119 12.2647C9.19388 12.2868 9.03171 12.2941 8.86964 12.2941H8V9.05174ZM27.72 9.54541C27.8378 9.54541 27.9263 9.457 27.9263 9.32434C27.9263 9.19178 27.8378 9.09589 27.72 9.09589C27.602 9.09589 27.5135 9.19167 27.5135 9.32434C27.5135 9.457 27.602 9.54541 27.72 9.54541ZM27.72 9.04436C27.7568 9.04435 27.7932 9.05158 27.8272 9.06565C27.8612 9.07971 27.892 9.10033 27.918 9.12634C27.944 9.15234 27.9647 9.18321 27.9787 9.21718C27.9928 9.25115 28 9.28757 28 9.32434C28 9.36112 27.9928 9.39754 27.9787 9.43153C27.9647 9.46552 27.9441 9.4964 27.9181 9.52241C27.8921 9.54842 27.8612 9.56906 27.8272 9.58313C27.7932 9.5972 27.7568 9.60444 27.72 9.60442C27.6833 9.60442 27.6468 9.59718 27.6129 9.58311C27.5789 9.56903 27.548 9.54841 27.522 9.5224C27.496 9.4964 27.4754 9.46553 27.4613 9.43155C27.4472 9.39758 27.44 9.36117 27.44 9.32439C27.44 9.28762 27.4472 9.2512 27.4613 9.21723C27.4754 9.18326 27.496 9.15239 27.522 9.12638C27.548 9.10038 27.5789 9.07975 27.6129 9.06568C27.6468 9.05161 27.6833 9.04436 27.72 9.04436ZM27.72 9.3686L27.7052 9.34647H27.6684V9.47913H27.6093V9.16228H27.7346C27.8082 9.16228 27.8526 9.19178 27.8526 9.25806C27.8526 9.30959 27.8156 9.33909 27.7641 9.34647L27.8526 9.47913H27.7862L27.72 9.3686ZM27.72 9.20653H27.7273C27.7567 9.20653 27.7862 9.21391 27.7862 9.25079C27.7862 9.29505 27.7568 9.30232 27.7273 9.30232H27.6685V9.20653H27.72ZM25.6714 10.4297C25.9146 10.4002 26.1134 10.297 26.1134 9.98756C26.1134 9.69283 25.9147 9.61169 25.6714 9.57492H25.2291V10.4446H25.4354C25.5166 10.4446 25.5976 10.4371 25.6714 10.4297ZM25.6714 9.05912C26.2462 9.08125 26.7767 9.19916 26.7767 9.93603C26.7767 10.3193 26.5335 10.6361 26.1283 10.6877C26.2978 10.7098 26.401 10.8793 26.4599 11.0267L26.9685 12.2941H26.2609L25.8778 11.2772C25.8189 11.1298 25.7674 11.0413 25.6715 10.9898C25.6199 10.9604 25.5389 10.9455 25.4355 10.9455H25.2292V12.2941H24.5955V9.05174H25.2807C25.4059 9.05174 25.5461 9.05174 25.6714 9.05912ZM19.7686 10.0244C19.8422 10.216 19.879 10.4298 19.879 10.673C19.879 10.9015 19.8422 11.1225 19.7686 11.3215C19.5401 11.9476 18.9874 12.3531 18.2286 12.3531C17.2116 12.3531 16.563 11.6604 16.563 10.6729C16.563 9.67797 17.2262 9.00011 18.2286 9.00011C18.9874 9.00011 19.5401 9.3981 19.7686 10.0244ZM19.7686 9.33909L20.8888 12.2941H21.1245L22.3699 9.05174H21.7066L21.0435 10.7613L20.3361 9.05174H19.6581L19.7686 9.33909ZM22.5321 9.05174H24.4185V9.57492H23.1731V10.3708H24.3078V10.8717H23.1732V11.7856H24.426V12.2941H22.5322V9.05174H22.5321ZM9.34119 9.62655C9.23065 9.58967 9.11274 9.57492 8.99493 9.57492H8.63382V11.7856H8.99493C9.11285 11.7856 9.23076 11.7635 9.34119 11.7267C9.73181 11.5866 10.0487 11.2256 10.0487 10.6803C10.0488 10.135 9.73181 9.75911 9.34119 9.62655ZM10.9625 9.05174H11.6035V12.2941H10.9625V9.05174ZM13.6596 9.9139C13.4385 9.77386 13.2028 9.63382 12.9522 9.60442C12.7238 9.57492 12.4806 9.6412 12.4806 9.96543C12.4806 10.5255 13.8808 10.2897 13.8808 11.373C13.8808 12.0804 13.3207 12.4267 12.6796 12.3531C12.3333 12.3161 12.1343 12.2129 11.8616 12.0288V11.3655C12.0754 11.4835 12.3922 11.7119 12.6427 11.7561C12.9154 11.8004 13.2102 11.7191 13.2102 11.4245C13.2102 10.7982 11.8175 11.056 11.8175 9.98745C11.8175 9.26533 12.3628 9 12.9228 9C13.2029 9 13.446 9.10316 13.6597 9.29473V9.9139H13.6596ZM16.4009 11.9698C16.2387 12.1764 15.8556 12.2941 15.5976 12.3162C14.6028 12.3826 13.9396 11.8299 13.9396 10.7319C13.9396 9.62655 14.5217 8.97809 15.5976 9.03709C15.8113 9.04447 16.1577 9.11813 16.3861 9.30969V9.92876C16.1134 9.75932 15.8334 9.64141 15.5976 9.63403C14.9418 9.6119 14.6028 10.0245 14.6028 10.6878C14.6028 11.3511 14.9196 11.7194 15.5976 11.69C15.8628 11.6827 16.2608 11.4689 16.4009 11.3511V11.9698Z" fill="white"/>
</svg>
