<svg width="35" height="22" viewBox="0 0 35 22" fill="none" xmlns="http://www.w3.org/2000/svg">
<rect width="35" height="22" rx="2" fill="#26337A"/>
<path fill-rule="evenodd" clip-rule="evenodd" d="M18 15.446C18.5589 14.9361 19.0051 14.315 19.31 13.6226C19.6148 12.9302 19.7716 12.1816 19.7702 11.4251C19.7716 10.6685 19.6148 9.91998 19.31 9.22753C19.0051 8.53509 18.5589 7.914 18 7.40411C17.0442 6.53166 15.7764 6 14.385 6C11.4111 6 9 8.42886 9 11.4251C9 14.4212 11.4111 16.8501 14.385 16.8501C15.7764 16.8501 17.0443 16.3185 18 15.446Z" fill="white"/>
<path fill-rule="evenodd" clip-rule="evenodd" d="M21.6136 6C20.2223 6 18.9542 6.53166 17.9987 7.40411C17.8038 7.58217 17.6221 7.77414 17.455 7.97849H18.542C18.6912 8.16089 18.8284 8.35278 18.9528 8.55297H17.0444C16.9296 8.73808 16.8259 8.92992 16.734 9.12745H19.2628C19.3498 9.3144 19.4261 9.50617 19.4913 9.70183H16.506C16.4434 9.89028 16.3912 10.082 16.3496 10.2762H19.6477C19.7285 10.6538 19.7691 11.0389 19.769 11.4251C19.769 12.0274 19.6712 12.6068 19.4914 13.1482H16.506C16.5709 13.3439 16.647 13.5357 16.734 13.7227H19.2628C19.171 13.9202 19.0675 14.1121 18.9527 14.2972H17.0444C17.1687 14.4973 17.3058 14.6892 17.4549 14.8716H18.542C18.3751 15.0761 18.1935 15.2681 17.9987 15.4461C18.9542 16.3186 20.2223 16.8502 21.6136 16.8502C24.5875 16.8502 26.9987 14.4213 26.9987 11.4252C26.9987 8.42886 24.5875 6 21.6136 6Z" fill="white"/>
<path fill-rule="evenodd" clip-rule="evenodd" d="M25.1445 12.6008C25.1445 12.504 25.2224 12.4255 25.3184 12.4255C25.4144 12.4255 25.4922 12.504 25.4922 12.6008C25.4922 12.6976 25.4144 12.7759 25.3184 12.7759C25.2224 12.7759 25.1445 12.6975 25.1445 12.6008ZM25.3183 12.7337C25.3912 12.7337 25.4504 12.6742 25.4504 12.6007C25.4504 12.527 25.3912 12.4674 25.3183 12.4674C25.2452 12.4674 25.1862 12.527 25.1862 12.6007C25.1862 12.6742 25.2453 12.7337 25.3183 12.7337ZM25.2948 12.6776H25.2591V12.5236H25.3238C25.3371 12.5236 25.351 12.5238 25.3626 12.5315C25.3688 12.5358 25.3738 12.5415 25.3772 12.5482C25.3806 12.5549 25.3823 12.5623 25.3822 12.5698C25.3822 12.5873 25.3722 12.6035 25.3557 12.6096L25.3839 12.6775H25.3445L25.321 12.6166H25.2949V12.6776V12.5904H25.3146C25.3219 12.5904 25.33 12.591 25.3363 12.5874C25.3391 12.5854 25.3414 12.5828 25.343 12.5797C25.3446 12.5766 25.3454 12.5732 25.3453 12.5697C25.3453 12.5666 25.3444 12.5635 25.3429 12.5607C25.3414 12.558 25.3393 12.5557 25.3367 12.5539C25.3305 12.5504 25.3205 12.5511 25.314 12.5511H25.295V12.6776H25.2948ZM13.7127 12.7759H13.0425L13.4408 10.6615L12.5237 12.7759H11.9126L11.8009 10.6737L11.4013 12.7759H10.793L11.3128 10.0255H12.3586L12.4139 11.7282L13.1513 10.0255H14.2411L13.7127 12.7759ZM21.2028 12.7485C21.0195 12.7992 20.8761 12.821 20.7212 12.821C20.3783 12.821 20.1911 12.6477 20.1911 12.3298C20.1911 12.2669 20.198 12.2 20.2108 12.1291L20.2516 11.9105L20.283 11.7334L20.5936 10.0254H21.2602L21.1636 10.5391H21.5056L21.4137 11.0828H21.0703L20.8936 12.0161C20.8871 12.0466 20.8832 12.0776 20.8822 12.1088C20.8822 12.2243 20.9515 12.2745 21.1109 12.2745C21.1872 12.2745 21.2463 12.2676 21.2916 12.2536L21.2028 12.7485ZM23.1604 10.5574C23.1042 10.5351 23.091 10.5351 23.0844 10.5333C23.0489 10.5254 23.03 10.5208 23.0267 10.5202C23.0045 10.5163 22.9819 10.5144 22.9593 10.5146C22.7392 10.5146 22.5806 10.6133 22.3755 10.8778L22.4346 10.5389H21.8276L21.4191 12.7758H22.0898C22.3298 11.4078 22.4325 11.1682 22.7543 11.1682C22.7785 11.1682 22.8065 11.1701 22.839 11.1739L22.9173 11.1899L23.1604 10.5574ZM18.546 11.2457C18.546 11.5283 18.704 11.7229 19.0623 11.8692C19.3369 11.9816 19.3793 12.0145 19.3793 12.1161C19.3793 12.2553 19.2583 12.3181 18.9902 12.3181C18.7877 12.3181 18.5997 12.2907 18.3825 12.2296L18.2895 12.7456L18.3195 12.7507L18.4437 12.7736C18.4837 12.7805 18.5427 12.7871 18.6209 12.7931C18.7822 12.8057 18.907 12.8117 18.9949 12.8117C19.7103 12.8117 20.0408 12.5755 20.0408 12.0653C20.0408 11.7583 19.9026 11.5782 19.5629 11.4427C19.2786 11.3294 19.2457 11.3043 19.2457 11.1999C19.2457 11.0794 19.3585 11.0174 19.5775 11.0174C19.7108 11.0174 19.8924 11.03 20.0648 11.051L20.1614 10.5332C19.9859 10.5091 19.7196 10.4894 19.5647 10.4894C18.8062 10.4895 18.5437 10.8332 18.546 11.2457ZM15.8915 12.7759H15.3345L15.3475 12.544C15.1779 12.7276 14.9518 12.8146 14.6445 12.8146C14.2813 12.8146 14.032 12.5654 14.032 12.2036C14.032 11.6587 14.4651 11.3411 15.2094 11.3411C15.2857 11.3411 15.3825 11.3471 15.4824 11.3583C15.5032 11.2848 15.5089 11.253 15.5089 11.213C15.5089 11.065 15.392 11.0095 15.079 11.0095C14.8876 11.0095 14.6713 11.0338 14.522 11.0719L14.4292 11.0956L14.369 11.1101L14.462 10.6072C14.7961 10.521 15.0166 10.4884 15.2644 10.4884C15.8404 10.4884 16.1448 10.7156 16.1448 11.1445C16.1448 11.2549 16.1347 11.3387 16.0904 11.5877L15.9503 12.3812L15.9267 12.5236L15.9096 12.6373L15.8981 12.7152L15.8915 12.7759ZM15.4026 11.7793C15.3529 11.7731 15.3028 11.7701 15.2527 11.7701C14.8729 11.7701 14.6805 11.8845 14.6805 12.1104C14.6805 12.2496 14.7744 12.3385 14.9209 12.3385C15.1942 12.3386 15.391 12.1101 15.4026 11.7793ZM18.0902 12.7276C17.8664 12.7883 17.6354 12.8188 17.4035 12.8183C16.6542 12.8177 16.2636 12.4741 16.2636 11.8162C16.2636 11.0483 16.7605 10.483 17.4349 10.483C17.9867 10.483 18.339 10.7996 18.339 11.2961C18.339 11.4609 18.315 11.6215 18.2568 11.8483H16.9241C16.9201 11.8715 16.9179 11.895 16.9177 11.9185C16.9177 12.1778 17.1164 12.3101 17.5056 12.3101C17.745 12.3101 17.9614 12.2663 18.2016 12.1686L18.0902 12.7276ZM17.7333 11.3966C17.7369 11.35 17.7389 11.3119 17.7389 11.2825C17.7389 11.1008 17.6214 10.9942 17.4218 10.9942C17.2086 10.9942 17.0561 11.1372 16.9943 11.3952L17.7333 11.3966ZM25.2437 11.7617C25.1434 12.5058 24.6276 12.8358 23.9419 12.8358C23.1836 12.8358 22.8774 12.3725 22.8774 11.8047C22.8774 11.0119 23.3961 10.4748 24.1971 10.4748C24.8925 10.4748 25.2616 10.9165 25.2616 11.4843C25.2616 11.6225 25.2614 11.6316 25.2437 11.7617ZM24.5535 11.4755C24.5535 11.2415 24.4592 11.0206 24.1844 11.0206C23.8424 11.0206 23.6304 11.4279 23.6304 11.7874C23.6304 12.0907 23.7757 12.2944 24.0153 12.2901C24.1606 12.2901 24.4704 12.0908 24.5317 11.7426C24.546 11.6614 24.5535 11.5723 24.5535 11.4755Z" fill="#26337A"/>
</svg>
