<svg width="35" height="22" viewBox="0 0 35 22" fill="none" xmlns="http://www.w3.org/2000/svg">
<rect width="35" height="22" rx="2" fill="#26337A"/>
<path fill-rule="evenodd" clip-rule="evenodd" d="M18.0002 13.9372C18.9797 14.7093 20.1911 15.1284 21.4383 15.1265C24.5105 15.1265 27.0008 12.6358 27.0008 9.56327H27.0007C27.0007 6.49073 24.5104 4.00001 21.4382 4.00001C20.191 3.9982 18.9796 4.41725 18.0001 5.18936C17.0208 4.41723 15.8096 3.99816 14.5625 4.00001C11.4904 4.00001 9 6.49073 9 9.56327C9 12.6358 11.4904 15.1265 14.5625 15.1265C15.8096 15.1284 17.0209 14.7093 18.0002 13.9372ZM26.8282 13.0099V12.7939H26.7719L26.7068 12.9422L26.6421 12.7939H26.5857V13.0099H26.6257V12.8472L26.6865 12.9876H26.7279L26.7887 12.8469V13.0099H26.8282ZM26.4713 13.0099V12.8309H26.5433V12.7945H26.3594V12.8309H26.4314V13.0099H26.471H26.4713ZM26.6422 17.8126V17.8486H26.6757C26.682 17.8487 26.6882 17.8472 26.6937 17.8441C26.6959 17.8425 26.6977 17.8404 26.6989 17.838C26.7 17.8356 26.7006 17.833 26.7005 17.8303C26.7006 17.8277 26.7 17.825 26.6988 17.8227C26.6977 17.8204 26.6959 17.8183 26.6937 17.8169C26.6883 17.8136 26.682 17.812 26.6757 17.8123H26.6422V17.8126ZM26.6761 17.7872C26.6905 17.7863 26.7047 17.7904 26.7164 17.7989C26.7211 17.8027 26.7248 17.8076 26.7273 17.8131C26.7297 17.8187 26.7308 17.8247 26.7305 17.8307C26.7307 17.8359 26.7298 17.8411 26.7279 17.846C26.7259 17.8508 26.723 17.8551 26.7192 17.8587C26.7102 17.8666 26.6989 17.8713 26.687 17.8721L26.732 17.9234H26.6973L26.6559 17.8725H26.6425V17.9234H26.6135V17.7873H26.6765L26.6761 17.7872ZM26.6671 17.9704C26.6823 17.9706 26.6973 17.9675 26.7113 17.9614C26.7247 17.9556 26.7369 17.9474 26.7473 17.937C26.7576 17.9267 26.7659 17.9145 26.7717 17.901C26.7835 17.8725 26.7835 17.8405 26.7717 17.8119C26.7658 17.7985 26.7576 17.7863 26.7473 17.7759C26.7369 17.7656 26.7247 17.7573 26.7113 17.7515C26.6973 17.7458 26.6822 17.7429 26.6671 17.7431C26.6517 17.7429 26.6364 17.7458 26.6221 17.7515C26.6084 17.7572 26.5959 17.7655 26.5853 17.7759C26.5694 17.7923 26.5586 17.8129 26.5543 17.8353C26.5501 17.8577 26.5525 17.8809 26.5613 17.9019C26.5667 17.9154 26.5749 17.9277 26.5853 17.9379C26.5959 17.9483 26.6084 17.9566 26.6221 17.9623C26.6363 17.9684 26.6516 17.9714 26.6671 17.9713V17.9704ZM26.6671 17.7103C26.7066 17.7103 26.7446 17.7258 26.7728 17.7535C26.7864 17.7668 26.7973 17.7827 26.8047 17.8002C26.8124 17.8182 26.8163 17.8376 26.8163 17.8571C26.8163 17.8767 26.8124 17.8961 26.8047 17.9141C26.7971 17.9315 26.7863 17.9473 26.7728 17.9608C26.759 17.974 26.743 17.9847 26.7254 17.9923C26.707 18.0001 26.6871 18.0041 26.6671 18.004C26.6468 18.0041 26.6267 18.0001 26.6081 17.9923C26.5903 17.9849 26.5741 17.9742 26.5603 17.9608C26.5468 17.9468 26.5362 17.9305 26.5289 17.9125C26.5212 17.8945 26.5172 17.8752 26.5172 17.8556C26.5172 17.8361 26.5212 17.8167 26.5289 17.7987C26.5363 17.7812 26.5471 17.7653 26.5607 17.752C26.5743 17.7384 26.5906 17.7276 26.6085 17.7205C26.6272 17.7126 26.6473 17.7086 26.6675 17.7088L26.6671 17.7103ZM12.8869 17.1845C12.8869 16.9248 13.057 16.7115 13.335 16.7115C13.6007 16.7115 13.78 16.9157 13.78 17.1845C13.78 17.4533 13.6007 17.6574 13.335 17.6574C13.057 17.6574 12.8869 17.4441 12.8869 17.1845ZM14.0828 17.1845V16.4456H13.7616V16.6256C13.6597 16.4926 13.5052 16.4092 13.2951 16.4092C12.8811 16.4092 12.5562 16.7339 12.5562 17.1848C12.5562 17.6358 12.8809 17.9605 13.2951 17.9605C13.5051 17.9605 13.6597 17.877 13.7616 17.7441V17.9234H14.0824V17.1845H14.0828ZM24.9356 17.1845C24.9356 16.9248 25.1057 16.7115 25.3837 16.7115C25.6497 16.7115 25.8287 16.9157 25.8287 17.1845C25.8287 17.4533 25.6497 17.6574 25.3837 17.6574C25.1058 17.6574 24.9356 17.4441 24.9356 17.1845ZM26.1318 17.1845V15.8525H25.8103V16.6256C25.7085 16.4926 25.5539 16.4092 25.3438 16.4092C24.9298 16.4092 24.6049 16.7339 24.6049 17.1848C24.6049 17.6358 24.9296 17.9605 25.3438 17.9605C25.5539 17.9605 25.7085 17.877 25.8103 17.7441V17.9234H26.1318V17.1845ZM18.0693 16.6963C18.2763 16.6964 18.4092 16.8261 18.4431 17.0546H17.6767C17.711 16.8413 17.8405 16.6963 18.0693 16.6963ZM18.0757 16.4084C17.6429 16.4084 17.34 16.7233 17.34 17.184C17.34 17.6537 17.655 17.9597 18.0972 17.9597C18.3197 17.9597 18.5235 17.9042 18.7027 17.7527L18.5453 17.5147C18.4215 17.6137 18.2638 17.6692 18.1156 17.6692C17.9086 17.6692 17.7202 17.5733 17.6738 17.3074H18.7706L18.7708 17.3053C18.7739 17.2661 18.777 17.2264 18.777 17.1839C18.7737 16.7234 18.489 16.4083 18.0756 16.4083L18.0757 16.4084ZM21.9535 17.1839C21.9535 16.9243 22.1236 16.711 22.4016 16.711C22.6672 16.711 22.8465 16.9151 22.8465 17.1839C22.8465 17.4528 22.6672 17.6569 22.4016 17.6569C22.1236 17.6569 21.9534 17.4436 21.9534 17.1839H21.9535ZM23.1492 17.1839V16.4456H22.8282V16.6256C22.726 16.4926 22.5718 16.4092 22.3617 16.4092C21.9477 16.4092 21.6228 16.7339 21.6228 17.1848C21.6228 17.6358 21.9475 17.9605 22.3617 17.9605C22.5718 17.9605 22.726 17.877 22.8282 17.7441V17.9234H23.1493V17.1845L23.1492 17.1839ZM20.1396 17.1839C20.1396 17.632 20.4515 17.9596 20.9276 17.9596C21.1501 17.9596 21.2983 17.9101 21.4586 17.7835L21.3043 17.5239C21.1837 17.6105 21.0571 17.6569 20.9174 17.6569C20.661 17.6537 20.4724 17.4683 20.4724 17.1839C20.4724 16.8995 20.661 16.7142 20.9174 16.711C21.0568 16.711 21.1834 16.7574 21.3043 16.844L21.4586 16.5844C21.298 16.4578 21.1498 16.4083 20.9276 16.4083C20.4515 16.4083 20.1396 16.7358 20.1396 17.1839ZM24.2803 16.4083C24.095 16.4083 23.9743 16.4949 23.8909 16.6247V16.4456H23.5726V17.9226H23.8941V17.0947C23.8941 16.8502 23.9992 16.7144 24.2091 16.7144C24.2779 16.7134 24.3461 16.7261 24.41 16.7516L24.509 16.4489C24.4379 16.4209 24.3452 16.4085 24.2801 16.4085L24.2803 16.4083ZM15.6708 16.5631C15.5163 16.4612 15.3033 16.4085 15.0684 16.4085C14.6942 16.4085 14.4533 16.5879 14.4533 16.8814C14.4533 17.1222 14.6327 17.2708 14.963 17.3171L15.1147 17.3387C15.2908 17.3635 15.374 17.4098 15.374 17.4933C15.374 17.6075 15.257 17.6726 15.0373 17.6726C14.8148 17.6726 14.6543 17.6015 14.546 17.5181L14.3951 17.7685C14.5712 17.8983 14.7937 17.9602 15.0346 17.9602C15.4612 17.9602 15.7084 17.7594 15.7084 17.4781C15.7084 17.2185 15.5138 17.0827 15.1924 17.0363L15.041 17.0144C14.902 16.9964 14.7905 16.9684 14.7905 16.8694C14.7905 16.7614 14.8956 16.6964 15.0718 16.6964C15.2603 16.6964 15.4428 16.7675 15.5323 16.8231L15.6713 16.5634L15.6708 16.5631ZM19.8152 16.4088C19.6299 16.4088 19.5092 16.4955 19.4261 16.6252V16.4456H19.1078V17.9226H19.429V17.0947C19.429 16.8502 19.534 16.7144 19.744 16.7144C19.8127 16.7134 19.881 16.7261 19.9449 16.7516L20.0439 16.4489C19.9728 16.4209 19.8801 16.4085 19.815 16.4085L19.8152 16.4088ZM17.0743 16.4456H16.5491V15.9975H16.2243V16.4456H15.9248V16.7392H16.2243V17.413C16.2243 17.7557 16.3574 17.9598 16.7373 17.9598C16.8767 17.9598 17.0373 17.9166 17.1392 17.8456L17.0464 17.5706C16.9505 17.6261 16.8455 17.6541 16.762 17.6541C16.6014 17.6541 16.5491 17.5551 16.5491 17.4069V16.7394H17.0743V16.4456ZM12.2722 17.923V16.996C12.2722 16.6469 12.0497 16.412 11.6911 16.4089C11.5025 16.4057 11.3081 16.4644 11.1719 16.6717C11.07 16.5079 10.9095 16.4089 10.6838 16.4089C10.526 16.4089 10.3718 16.4552 10.2512 16.6282V16.4456H9.92969V17.9226H10.2537V17.1037C10.2537 16.8473 10.3959 16.711 10.6155 16.711C10.8287 16.711 10.9366 16.8501 10.9366 17.1004V17.9224H11.2614V17.1035C11.2614 16.8471 11.4096 16.7108 11.6228 16.7108C11.8421 16.7108 11.9468 16.8499 11.9468 17.1002V17.9223L12.2722 17.923Z" fill="#FCFDFD"/>
</svg>
