<svg width="35" height="22" viewBox="0 0 35 22" fill="none" xmlns="http://www.w3.org/2000/svg">
<rect width="35" height="22" rx="2" fill="#26337A"/>
<path fill-rule="evenodd" clip-rule="evenodd" d="M14.5084 13.9H16.0175L16.9608 8.10357H15.4516L14.5084 13.9ZM11.8001 12.0904L13.2389 8.10357H14.863L12.4621 13.9001H10.8897L9.57857 8.86425C8.72734 8.35305 8 8.20172 8 8.20172L8.00007 8.20147C8.00002 8.20146 8 8.20146 8 8.20146L8.02791 8.10331H10.4064C11.0609 8.10331 11.1223 8.62521 11.1223 8.62521L11.63 11.2319C11.63 11.2319 11.63 11.2318 11.6299 11.2315L11.63 11.2322L11.6299 11.2319L11.8001 12.0904ZM26.4945 13.9H25.1088L24.932 13.039H23.0136L22.699 13.9H21.1258L23.3765 8.53539C23.3765 8.53539 23.513 8.10342 24.0732 8.10342H25.2863L26.4945 13.9ZM24.2411 9.68044L23.4482 11.8496H24.6872L24.2411 9.68044ZM21.4592 8.25273L21.2438 9.49748C20.598 9.14164 19.1283 9.05745 19.1281 9.71285C19.1281 9.97322 19.4607 10.1523 19.8615 10.3681C20.4693 10.6954 21.2342 11.1073 21.2342 12.0155C21.2342 13.4668 19.6806 14 18.6507 14C17.6212 14 16.9474 13.6727 16.9474 13.6727L17.1717 12.3712C17.7896 12.8672 19.6618 13.0081 19.6618 12.2216C19.6618 11.891 19.2933 11.6961 18.8659 11.4701C18.2762 11.1582 17.5745 10.7871 17.5745 9.91891C17.5745 8.32731 19.353 8 20.1019 8C20.7946 8 21.4592 8.25273 21.4592 8.25273Z" fill="white"/>
</svg>
