<svg width="35" height="22" viewBox="0 0 35 22" fill="none" xmlns="http://www.w3.org/2000/svg">
<rect width="35" height="22" rx="2" fill="#26337A"/>
<path fill-rule="evenodd" clip-rule="evenodd" d="M10.3767 18.0227H10.3297C10.3297 17.9993 10.3179 17.9639 10.3179 17.9521C10.3179 17.9404 10.3179 17.9169 10.2826 17.9169H10.2119V18.0227H10.1766V17.7756H10.2826C10.3297 17.7756 10.365 17.7874 10.365 17.8344C10.365 17.8697 10.3532 17.8816 10.3415 17.8932C10.3533 17.9051 10.365 17.9168 10.365 17.9404V17.9874C10.365 17.9993 10.365 17.9993 10.3767 17.9993V18.0227ZM10.3297 17.8462C10.3297 17.8109 10.3061 17.8109 10.2944 17.8109H10.2119V17.8816H10.2826C10.3061 17.8816 10.3297 17.8697 10.3297 17.8462ZM10.5298 17.8933C10.5298 17.7521 10.4122 17.6342 10.259 17.6342C10.1178 17.6342 10 17.7521 10 17.8933C10 18.0463 10.1178 18.1642 10.259 18.1642C10.4121 18.1641 10.5298 18.0463 10.5298 17.8933ZM10.4945 17.8933C10.4945 18.0228 10.3886 18.117 10.259 18.117C10.1295 18.117 10.0353 18.0228 10.0353 17.8933C10.0353 17.7756 10.1296 17.6696 10.259 17.6696C10.3885 17.6696 10.4945 17.7756 10.4945 17.8933ZM25 13.1367C25 13.4899 24.7763 13.6546 24.3759 13.6546H23.6108V13.3013H24.3759C24.4466 13.3013 24.5055 13.2896 24.5291 13.2661C24.5526 13.2425 24.5762 13.2072 24.5762 13.1601C24.5762 13.1129 24.5527 13.0659 24.5291 13.0424C24.5055 13.0188 24.4585 13.0071 24.3878 13.0071C24.0229 12.9952 23.5637 13.0188 23.5637 12.5008C23.5637 12.2652 23.7167 12.0062 24.1288 12.0062H24.9176V12.3595H24.1876C24.1171 12.3595 24.0699 12.3595 24.0345 12.3829C23.9992 12.4183 23.9757 12.4536 23.9757 12.5125C23.9757 12.5714 24.0111 12.6067 24.0581 12.6304C24.1053 12.6421 24.1524 12.6538 24.2113 12.6538H24.4231C24.6468 12.6538 24.7882 12.7009 24.8824 12.7834C24.9529 12.8658 25 12.9719 25 13.1367ZM23.3399 12.7834C23.2456 12.7009 23.1043 12.6538 22.8806 12.6538H22.6688C22.61 12.6538 22.5628 12.642 22.5157 12.6304C22.4685 12.6067 22.4334 12.5714 22.4334 12.5125C22.4334 12.4536 22.4451 12.4183 22.4922 12.3829C22.5275 12.3595 22.5745 12.3595 22.6452 12.3595H23.3752V12.0062H22.5864C22.1625 12.0062 22.0211 12.2652 22.0211 12.5008C22.0211 13.0187 22.4804 12.9952 22.8454 13.0071C22.9159 13.0071 22.9631 13.0188 22.9866 13.0424C23.0101 13.0659 23.0338 13.1129 23.0338 13.1601C23.0338 13.2072 23.0102 13.2425 22.9866 13.2661C22.9513 13.2896 22.9042 13.3013 22.8336 13.3013H22.0682V13.6546H22.8336C23.2338 13.6546 23.4576 13.4898 23.4576 13.1367C23.4576 12.9719 23.4105 12.8658 23.3399 12.7834ZM21.8328 13.3132H20.9028V12.9835H21.8093V12.654H20.9028V12.3478H21.8328V12.0064H20.5142V13.6546H21.8328V13.3132ZM20.0903 12.0888C19.9607 12.0182 19.8077 12.0063 19.6075 12.0063H18.701V13.6546H19.1012V13.0541H19.5252C19.6663 13.0541 19.7489 13.066 19.8078 13.1248C19.8784 13.2072 19.8784 13.3485 19.8784 13.4545V13.6546H20.2669V13.3366C20.2669 13.1836 20.2552 13.1129 20.2081 13.0306C20.1727 12.9834 20.1022 12.9246 20.008 12.8892C20.1138 12.8541 20.2906 12.7127 20.2906 12.4536C20.2905 12.2653 20.2198 12.1593 20.0903 12.0888ZM17.8533 12.0063H16.5934L16.0871 12.5479L15.6044 12.0063H14.0149V13.6546H15.5809L16.0872 13.1129L16.5699 13.6546H17.3353V13.1013H17.8298C18.1712 13.1013 18.5128 13.0071 18.5128 12.5479C18.5127 12.1005 18.1594 12.0063 17.8533 12.0063ZM19.7723 12.6893C19.7135 12.7127 19.6546 12.7127 19.584 12.7127L19.1012 12.7246V12.3477H19.584C19.6546 12.3477 19.7253 12.3477 19.7723 12.383C19.8195 12.4067 19.8547 12.4537 19.8547 12.5244C19.8547 12.595 19.8195 12.6539 19.7723 12.6893ZM17.8533 12.7716H17.3352V12.3477H17.8533C17.9946 12.3477 18.0887 12.4067 18.0887 12.5479C18.0887 12.6893 17.9945 12.7716 17.8533 12.7716ZM16.3344 12.8304L16.9466 12.183V13.5134L16.3344 12.8304ZM15.3807 13.3132H14.4034V12.9835H15.2747V12.654H14.4034V12.3478H15.3925L15.8281 12.8305L15.3807 13.3132ZM23.905 10.8171H23.3399L22.5981 9.58083V10.8171H21.7976L21.6444 10.4521H20.8203L20.6672 10.8171H20.208C20.0196 10.8171 19.7723 10.77 19.6312 10.6287C19.5016 10.4874 19.4309 10.299 19.4309 10.0047C19.4309 9.75742 19.4663 9.53372 19.6428 9.35713C19.7605 9.22757 19.9725 9.16876 20.2432 9.16876H20.62V9.52203H20.2432C20.102 9.52203 20.0195 9.54558 19.9372 9.61625C19.8665 9.68692 19.8312 9.8164 19.8312 9.99298C19.8312 10.1696 19.8665 10.2991 19.9372 10.3816C19.996 10.4404 20.102 10.4639 20.2079 10.4639H20.3846L20.9497 9.16885H21.5384L22.1977 10.723V9.16876H22.81L23.5047 10.3108V9.16876H23.9049V10.8171H23.905ZM19.2308 9.16876H18.8306V10.8171H19.2308V9.16876ZM18.3948 9.23943C18.2652 9.16877 18.1241 9.16876 17.9239 9.16876H17.0173V10.8171H17.4058V10.2166H17.8296C17.971 10.2166 18.0652 10.2284 18.124 10.2873C18.1947 10.3697 18.1828 10.5111 18.1828 10.6052V10.8171H18.583V10.4874C18.583 10.3462 18.5713 10.2755 18.5125 10.193C18.4772 10.1459 18.4065 10.087 18.3241 10.0518C18.43 10.0047 18.6067 9.8752 18.6067 9.61617C18.6068 9.4278 18.5243 9.3218 18.3948 9.23943ZM16.7347 10.4757H15.8163V10.146H16.7229V9.80462H15.8163V9.51025H16.7347V9.16885H15.416V10.8172H16.7347V10.4757ZM15.1217 9.16876H14.4741L13.9914 10.2873L13.4733 9.16876H12.8375V10.7229L12.1664 9.16876H11.5778L10.8713 10.8171H11.2952L11.4482 10.4521H12.2723L12.4254 10.8171H13.226V9.52203L13.8029 10.8171H14.1443L14.7213 9.52203V10.8171H15.1216V9.16876H15.1217ZM21.5032 10.0989L21.2323 9.45136L20.9616 10.0989H21.5032ZM18.0887 9.83995C18.0299 9.87529 17.971 9.87529 17.8886 9.87529H17.4058V9.51033H17.8885C17.9592 9.51033 18.0415 9.51033 18.0887 9.53389C18.1357 9.56922 18.1593 9.61634 18.1593 9.68692C18.1593 9.75751 18.1358 9.81631 18.0887 9.83995ZM11.5895 10.0989L11.8603 9.45136L12.1311 10.0989H11.5895ZM24.9059 4H10.8595V9.93409L11.3422 8.83914H12.3665L12.5078 9.10996V8.83914H13.7088L13.9796 9.4278L14.2386 8.83914H18.0652C18.2417 8.83914 18.3947 8.87448 18.5126 8.96862V8.83914H19.5604V8.96862C19.7369 8.87439 19.9606 8.83914 20.2197 8.83914H21.7385L21.8799 9.10996V8.83914H22.9984L23.1633 9.10996V8.83914H24.2581V11.1468H23.1515L22.9397 10.7936V11.1468H21.562L21.409 10.7701H21.0674L20.9144 11.1468H20.1963C19.9137 11.1468 19.7017 11.0762 19.5605 11.0056V11.1468H17.8533V10.617C17.8533 10.5463 17.8415 10.5345 17.7944 10.5345H17.7356V11.1467H14.4388V10.8524L14.3211 11.1467H13.6264L13.5087 10.8641V11.1467H12.1782L12.037 10.77H11.6955L11.5424 11.1467H10.8595V18.1052H24.9059V13.8783C24.7528 13.9489 24.5408 13.9843 24.3289 13.9843H23.3045V13.8429C23.1868 13.9372 22.9748 13.9843 22.7748 13.9843H19.5486V13.4545C19.5486 13.3838 19.537 13.3838 19.478 13.3838H19.4192V13.9843H18.3595V13.3603C18.183 13.4426 17.9827 13.4426 17.8061 13.4426H17.6884V13.9843H16.3933L16.0872 13.631L15.7458 13.9843H13.6617V11.6767H15.781L16.0871 12.0298L16.4168 11.6767H17.8415C18.0062 11.6767 18.2771 11.7001 18.3948 11.8178V11.6767H19.6663C19.7959 11.6767 20.0432 11.7001 20.208 11.8178V11.6767H22.1271V11.8179C22.2331 11.7237 22.4334 11.6768 22.6099 11.6768H23.6813V11.8179C23.7991 11.7356 23.9639 11.6768 24.1759 11.6768H24.9059V4Z" fill="white"/>
</svg>
