<svg width="35" height="22" viewBox="0 0 35 22" fill="none" xmlns="http://www.w3.org/2000/svg">
<rect width="35" height="22" rx="2" fill="#26337A"/>
<path d="M11.8323 13.1825C13.2487 13.1893 14.5416 12.0273 14.5416 10.6138C14.5416 9.06797 13.2487 7.99949 11.8323 8H10.6133C9.17985 7.99949 8 9.06829 8 10.6138C8 12.0276 9.17985 13.1893 10.6133 13.1825H11.8323Z" fill="white"/>
<path d="M10.6196 8.21387C9.30974 8.21428 8.24836 9.27597 8.24805 10.5863C8.24836 11.8964 9.30973 12.958 10.6196 12.9584C11.9297 12.958 12.9913 11.8964 12.9915 10.5863C12.9913 9.27597 11.9297 8.21428 10.6196 8.21387ZM9.11632 10.5863C9.11756 9.94601 9.51746 9.4 10.0814 9.18302V11.9893C9.51746 11.7724 9.11755 11.2267 9.11632 10.5863ZM11.1576 11.9899V9.18293C11.7217 9.39938 12.1222 9.9457 12.1232 10.5863C12.1222 11.2271 11.7217 11.773 11.1576 11.9899Z" fill="#26337A"/>
<path d="M15.3707 9.11431C15.3707 8.86916 15.2429 8.88531 15.1203 8.88264V8.81179C15.2265 8.81704 15.3354 8.81704 15.4419 8.81704C15.5563 8.81704 15.7117 8.81179 15.9134 8.81179C16.619 8.81179 17.0033 9.28316 17.0033 9.76582C17.0033 10.0357 16.8454 10.7143 15.8806 10.7143C15.7417 10.7143 15.6135 10.7089 15.4854 10.7089C15.3629 10.7089 15.2429 10.7116 15.1203 10.7143V10.6436C15.2837 10.6271 15.3629 10.6217 15.3707 10.4363V9.11431H15.3707ZM15.6378 10.3928C15.6378 10.6026 15.7879 10.6271 15.9213 10.6271C16.5101 10.6271 16.7034 10.1828 16.7034 9.77662C16.7034 9.26711 16.3764 8.89919 15.8505 8.89919C15.7386 8.89919 15.6872 8.90721 15.6379 8.9101L15.6378 10.3928ZM17.0989 10.6436H17.1505C17.2267 10.6436 17.2813 10.6436 17.2813 10.5534V9.81488C17.2813 9.6951 17.2405 9.67843 17.1396 9.62424V9.58053C17.2677 9.54208 17.4205 9.49066 17.4312 9.48244C17.4504 9.47154 17.4666 9.46866 17.4803 9.46866C17.4938 9.46866 17.4994 9.48511 17.4994 9.50701V10.5534C17.4994 10.6436 17.5594 10.6436 17.6357 10.6436H17.682V10.7144C17.5892 10.7144 17.4938 10.709 17.3959 10.709C17.2978 10.709 17.1996 10.7117 17.0989 10.7144V10.6436H17.0989ZM17.3904 9.04901C17.3195 9.04901 17.257 8.98362 17.257 8.91276C17.257 8.84448 17.3224 8.78166 17.3904 8.78166C17.4611 8.78166 17.524 8.83915 17.524 8.91276C17.524 8.98639 17.4639 9.04901 17.3904 9.04901ZM17.9409 9.83113C17.9409 9.73036 17.9107 9.70321 17.7829 9.65138V9.59967C17.9 9.56152 18.0116 9.52605 18.1425 9.46867C18.1506 9.46867 18.1586 9.47422 18.1586 9.49592V9.67318C18.3142 9.56152 18.4478 9.46866 18.6306 9.46866C18.862 9.46866 18.9437 9.6377 18.9437 9.85024V10.5534C18.9437 10.6436 19.0037 10.6436 19.0801 10.6436H19.1291V10.7144C19.0335 10.7144 18.9382 10.709 18.8403 10.709C18.7421 10.709 18.6439 10.7117 18.5459 10.7144V10.6436H18.5948C18.6713 10.6436 18.7255 10.6436 18.7255 10.5534V9.84767C18.7255 9.69209 18.6306 9.6159 18.475 9.6159C18.3879 9.6159 18.2489 9.68676 18.1586 9.7468V10.5534C18.1586 10.6436 18.2189 10.6436 18.2953 10.6436H18.3442V10.7144C18.2489 10.7144 18.1534 10.709 18.0553 10.709C17.9573 10.709 17.859 10.7116 17.761 10.7144V10.6436H17.8101C17.8864 10.6436 17.9408 10.6436 17.9408 10.5534V9.83113H17.9409ZM19.3363 9.96212C19.3307 9.9867 19.3307 10.0275 19.3363 10.1203C19.3524 10.3791 19.519 10.5916 19.7367 10.5916C19.8867 10.5916 20.0042 10.5099 20.1049 10.4091L20.1429 10.4474C20.0175 10.6135 19.8622 10.7552 19.6388 10.7552C19.2054 10.7552 19.1182 10.3354 19.1182 10.1611C19.1182 9.6268 19.4779 9.46865 19.6685 9.46865C19.8894 9.46865 20.1266 9.60758 20.1292 9.89651C20.1292 9.91307 20.1292 9.92921 20.1266 9.94577L20.102 9.96212H19.3363ZM19.8188 9.87483C19.8867 9.87483 19.8948 9.83935 19.8948 9.80676C19.8948 9.66772 19.8104 9.55595 19.6577 9.55595C19.4916 9.55595 19.3771 9.67842 19.3444 9.87483H19.8188ZM20.192 10.6436H20.2656C20.3417 10.6436 20.3962 10.6436 20.3962 10.5534V9.78762C20.3962 9.7032 20.2955 9.68675 20.2545 9.66495V9.62423C20.4535 9.5396 20.5625 9.46865 20.5873 9.46865C20.6035 9.46865 20.6115 9.47687 20.6115 9.50423V9.74947H20.6173C20.6852 9.64325 20.7999 9.46865 20.9659 9.46865C21.0341 9.46865 21.1212 9.51492 21.1212 9.61312C21.1212 9.68675 21.0696 9.75235 20.9933 9.75235C20.9085 9.75235 20.9085 9.68675 20.8133 9.68675C20.7669 9.68675 20.6144 9.74947 20.6144 9.91307V10.5534C20.6144 10.6436 20.6688 10.6436 20.7452 10.6436H20.8977V10.7144C20.7477 10.7116 20.6337 10.709 20.5163 10.709C20.4046 10.709 20.2901 10.7116 20.192 10.7144V10.6436H20.192ZM21.2412 10.3354C21.2767 10.5153 21.3856 10.668 21.5847 10.668C21.7451 10.668 21.8051 10.5699 21.8051 10.4745C21.8051 10.1529 21.2112 10.2564 21.2112 9.81766C21.2112 9.66496 21.3339 9.46866 21.6336 9.46866C21.7207 9.46866 21.8378 9.49334 21.944 9.54794L21.9634 9.82569H21.9005C21.8734 9.65416 21.7781 9.55597 21.6035 9.55597C21.4945 9.55597 21.391 9.6187 21.391 9.73582C21.391 10.055 22.0232 9.95659 22.0232 10.3845C22.0232 10.5643 21.8787 10.7552 21.5544 10.7552C21.4454 10.7552 21.3174 10.7171 21.2221 10.6627L21.192 10.3492L21.2412 10.3354ZM24.484 9.30515H24.416C24.3642 8.98639 24.138 8.85816 23.8329 8.85816C23.5193 8.85816 23.0641 9.06792 23.0641 9.72202C23.0641 10.273 23.4568 10.668 23.8764 10.668C24.1461 10.668 24.3697 10.4827 24.4242 10.1965L24.4868 10.2127L24.4242 10.6106C24.3098 10.6817 24.0018 10.7552 23.8218 10.7552C23.1842 10.7552 22.781 10.3436 22.781 9.73034C22.781 9.17158 23.2797 8.77076 23.8137 8.77076C24.0344 8.77076 24.247 8.84191 24.4568 8.91554L24.484 9.30515ZM24.5823 10.6436H24.6339C24.7103 10.6436 24.765 10.6436 24.765 10.5534V9.03545C24.765 8.85817 24.7241 8.85271 24.6204 8.82279V8.77919C24.7294 8.74383 24.8439 8.69466 24.9012 8.66187C24.9309 8.64563 24.9529 8.63184 24.9609 8.63184C24.9776 8.63184 24.983 8.6483 24.983 8.67019V10.5534C24.983 10.6436 25.0429 10.6436 25.1193 10.6436H25.1652V10.7144C25.073 10.7144 24.9776 10.709 24.8794 10.709C24.7814 10.709 24.6833 10.7117 24.5823 10.7144V10.6436H24.5823ZM26.3321 10.5643C26.3321 10.6135 26.3619 10.6162 26.4082 10.6162C26.441 10.6162 26.4817 10.6135 26.5173 10.6135V10.6709C26.4 10.6817 26.1765 10.739 26.1247 10.7552L26.111 10.747V10.5264C25.9477 10.6599 25.8222 10.7552 25.6285 10.7552C25.4814 10.7552 25.3288 10.6599 25.3288 10.4311V9.73312C25.3288 9.66227 25.318 9.59409 25.1656 9.58052V9.5287C25.2638 9.52603 25.4814 9.50967 25.517 9.50967C25.5472 9.50967 25.5472 9.5287 25.5472 9.58865V10.2917C25.5472 10.3736 25.5472 10.608 25.7841 10.608C25.8768 10.608 25.9993 10.5371 26.1137 10.442V9.70843C26.1137 9.65414 25.983 9.62422 25.8851 9.59685V9.5478C26.13 9.53135 26.2829 9.50966 26.31 9.50966C26.3321 9.50966 26.3321 9.52868 26.3321 9.55881V10.5643H26.3321ZM26.8743 9.66496C26.9832 9.5723 27.1304 9.46866 27.2804 9.46866C27.5966 9.46866 27.7871 9.74424 27.7871 10.0411C27.7871 10.3981 27.5256 10.7552 27.1357 10.7552C26.9342 10.7552 26.8279 10.6897 26.757 10.6599L26.6753 10.7224L26.6183 10.6926C26.6424 10.5318 26.6563 10.3736 26.6563 10.2075V9.03543C26.6563 8.85817 26.6152 8.85271 26.5117 8.82279V8.77919C26.6211 8.74383 26.7352 8.69466 26.7925 8.66186C26.8225 8.64561 26.8442 8.63184 26.8526 8.63184C26.8689 8.63184 26.8743 8.6483 26.8743 8.67019V9.66495H26.8743V9.66496ZM26.8743 10.4062C26.8743 10.5099 26.9723 10.6845 27.1549 10.6845C27.4466 10.6845 27.5691 10.3981 27.5691 10.1555C27.5691 9.86116 27.3459 9.61592 27.1332 9.61592C27.0322 9.61592 26.9478 9.68142 26.8743 9.74424V10.4062H26.8743ZM15.1172 12.2991H15.1381C15.1913 12.2991 15.2477 12.2919 15.2477 12.2147V11.4377C15.2477 11.3604 15.1913 11.3531 15.1381 11.3531H15.1172V11.3085C15.1751 11.3085 15.264 11.3144 15.3369 11.3144C15.411 11.3144 15.4998 11.3085 15.5695 11.3085V11.3531H15.5487C15.4955 11.3531 15.439 11.3604 15.439 11.4377V12.2147C15.439 12.2919 15.4955 12.2991 15.5487 12.2991H15.5695V12.3438C15.4984 12.3438 15.4092 12.338 15.3353 12.338C15.2626 12.338 15.1751 12.3438 15.1172 12.3438V12.2991Z" fill="white"/>
<path d="M15.57 12.3501C15.4984 12.3501 15.4095 12.3441 15.3357 12.3441C15.2632 12.3441 15.176 12.3501 15.1177 12.3501H15.1113V12.2927H15.1385C15.1922 12.2915 15.2412 12.2872 15.2417 12.2147V11.4377C15.2412 11.3652 15.1923 11.3604 15.1385 11.3593H15.1113V11.302H15.1177C15.176 11.302 15.2648 11.3078 15.3373 11.3078C15.4112 11.3078 15.4999 11.302 15.57 11.302H15.5766V11.3593H15.5493C15.4955 11.3604 15.4462 11.3652 15.4459 11.4377V12.2147C15.4462 12.2872 15.4955 12.2915 15.5493 12.2927H15.5766V12.3501H15.57ZM15.5637 12.3374V12.3058H15.5493C15.4963 12.3058 15.4333 12.2966 15.433 12.2147V11.4377C15.4333 11.3557 15.4963 11.3465 15.5493 11.3465H15.5637V11.315C15.4952 11.315 15.4093 11.3208 15.3373 11.3208C15.2669 11.3208 15.1817 11.3154 15.1243 11.315V11.3465H15.1385C15.1913 11.3465 15.2546 11.3557 15.2546 11.4377V12.2147C15.2546 12.2966 15.1913 12.3058 15.1385 12.3058H15.1243V12.3374C15.1817 12.3368 15.2654 12.3315 15.3357 12.3315C15.4079 12.3315 15.4937 12.337 15.5637 12.3374ZM16.5887 12.0515L16.5917 12.0486V11.4925C16.5917 11.3707 16.5071 11.3531 16.4627 11.3531H16.43V11.3085C16.4998 11.3085 16.568 11.3144 16.6376 11.3144C16.6983 11.3144 16.7594 11.3085 16.8201 11.3085V11.3531H16.7979C16.7355 11.3531 16.6658 11.3649 16.6658 11.5413V12.2163C16.6658 12.2681 16.6673 12.32 16.6746 12.3659H16.6181L15.8546 11.5146V12.1257C15.8546 12.2548 15.8796 12.2991 15.994 12.2991H16.0191V12.3438C15.9554 12.3438 15.8918 12.338 15.8279 12.338C15.7614 12.338 15.6931 12.3438 15.6263 12.3438V12.2991H15.647C15.7494 12.2991 15.7804 12.2296 15.7804 12.111V11.4863C15.7804 11.4034 15.712 11.3531 15.6456 11.3531H15.6263V11.3085C15.6826 11.3085 15.7404 11.3144 15.7967 11.3144C15.8412 11.3144 15.8843 11.3085 15.9287 11.3085L16.5887 12.0515Z" fill="white"/>
<path d="M16.6741 12.3726L16.6129 12.3703L15.8604 11.5316V12.1259C15.8621 12.2549 15.8818 12.2915 15.9935 12.2929H16.0252V12.3503H16.0186C15.9545 12.3503 15.8906 12.3443 15.8274 12.3443C15.761 12.3443 15.6929 12.3503 15.6256 12.3503H15.6192V12.2929H15.6465C15.7445 12.2924 15.7725 12.2295 15.7736 12.1112V11.4867C15.7734 11.4077 15.7086 11.3598 15.6451 11.3596H15.6191V11.3024H15.6256C15.6823 11.3024 15.7404 11.308 15.796 11.308C15.8401 11.308 15.8831 11.3024 15.9331 11.3045L16.5848 12.0382V11.4928C16.584 11.3748 16.5053 11.3606 16.4621 11.3596H16.4228V11.3024H16.4294C16.4995 11.3024 16.5677 11.308 16.637 11.308C16.6974 11.308 16.7582 11.3024 16.8194 11.3024H16.8259V11.3595H16.7973C16.7362 11.3613 16.6733 11.3666 16.6716 11.5416V12.2164C16.6716 12.2682 16.6731 12.3201 16.6803 12.365L16.6818 12.3726H16.6741V12.3726ZM16.6177 12.3595H16.6668C16.6601 12.315 16.659 12.2657 16.659 12.2164V11.5416C16.659 11.3636 16.7335 11.3467 16.7974 11.3467H16.813V11.3152C16.7546 11.3156 16.696 11.321 16.6371 11.321C16.5692 11.321 16.5032 11.3156 16.436 11.3152L16.4359 11.3467H16.4622C16.5077 11.3467 16.5977 11.3671 16.5977 11.4928L16.5956 12.0532L16.5927 12.0563L16.5876 12.0609L15.9282 11.3152C15.8842 11.3152 15.8412 11.321 15.796 11.321C15.7416 11.321 15.686 11.3156 15.6322 11.3152L15.6319 11.3467H15.6451C15.7147 11.3467 15.7862 11.3999 15.7862 11.4866V12.1112C15.7862 12.2298 15.7532 12.3057 15.6465 12.3061L15.6322 12.3057V12.3376C15.6965 12.337 15.7625 12.3317 15.8274 12.3317C15.8893 12.3317 15.9509 12.337 16.0122 12.3376V12.3061H15.9935C15.8768 12.3057 15.8478 12.2549 15.8477 12.1259V11.4982L16.6177 12.3595ZM16.5882 12.0516L16.5929 12.0473L16.5882 12.0516ZM16.5848 12.0487V12.0482L16.5836 12.0472L16.5848 12.0487ZM17.0416 11.3828C16.9302 11.3828 16.926 11.4095 16.9038 11.5177H16.8593C16.8651 11.4763 16.8725 11.4348 16.8771 11.3916C16.883 11.3501 16.8859 11.3087 16.8859 11.2658H16.9216C16.9335 11.3103 16.9705 11.3088 17.0107 11.3088H17.7757C17.8158 11.3088 17.8528 11.3073 17.8559 11.2627L17.8912 11.2687C17.8855 11.3088 17.8795 11.3488 17.875 11.3889C17.8723 11.4289 17.8723 11.469 17.8723 11.5089L17.8277 11.5254C17.8246 11.4706 17.8172 11.3828 17.718 11.3828H17.4748V12.1719C17.4748 12.2862 17.5267 12.2993 17.5977 12.2993H17.6259V12.344C17.5682 12.344 17.4642 12.3382 17.3843 12.3382C17.2954 12.3382 17.1914 12.344 17.1335 12.344V12.2993H17.1618C17.2435 12.2993 17.2849 12.292 17.2849 12.175V11.3828H17.0416Z" fill="white"/>
<path d="M17.6259 12.35C17.5674 12.35 17.4637 12.3441 17.384 12.3441C17.2952 12.3441 17.1914 12.35 17.1332 12.35H17.127V12.2926H17.1615C17.2432 12.2907 17.2761 12.2897 17.278 12.1747V11.389H17.0413V11.3759H17.2909V12.1747C17.2909 12.2937 17.2429 12.3057 17.1615 12.3058H17.1397V12.3371C17.1982 12.3368 17.2979 12.3314 17.384 12.3314C17.4614 12.3314 17.5605 12.3368 17.6191 12.3371V12.3058H17.5974C17.5257 12.3057 17.468 12.2881 17.468 12.1716V11.3759H17.7177C17.8172 11.3763 17.8302 11.461 17.8335 11.516L17.8655 11.5041C17.8655 11.4655 17.8657 11.4267 17.8683 11.3876C17.8727 11.3495 17.8781 11.3117 17.8837 11.2738L17.861 11.27C17.8541 11.3132 17.8125 11.3154 17.7752 11.3149H17.0027C16.9679 11.3149 16.9297 11.3133 16.9164 11.2719H16.892C16.8918 11.3121 16.8889 11.3523 16.8832 11.3922C16.8789 11.4329 16.8721 11.4721 16.8666 11.5113H16.8983C16.9179 11.4079 16.9306 11.3744 17.0413 11.3759V11.389C16.9317 11.3909 16.9339 11.4095 16.9098 11.5191L16.9086 11.5241H16.8516L16.8524 11.5164C16.8583 11.4749 16.8659 11.4335 16.8703 11.3903C16.8764 11.3492 16.8793 11.3081 16.8793 11.2655V11.259H16.9263L16.9273 11.2636C16.9375 11.3011 16.965 11.3013 17.0027 11.3019H17.7752C17.8165 11.3013 17.8465 11.3007 17.8491 11.2619L17.8497 11.2549L17.8564 11.2563L17.8982 11.2629L17.8973 11.2694C17.8913 11.3091 17.8855 11.3492 17.8812 11.389C17.8782 11.4285 17.8782 11.4686 17.8782 11.5086V11.5132L17.8741 11.5148L17.8215 11.534L17.8211 11.5253C17.8172 11.4696 17.8114 11.389 17.7177 11.389H17.481V12.1716C17.4823 12.2835 17.5267 12.2912 17.5974 12.2926H17.6321V12.35L17.6259 12.35ZM17.9384 12.299H17.9592C18.0125 12.299 18.0689 12.2918 18.0689 12.2146V11.4376C18.0689 11.3603 18.0125 11.353 17.9592 11.353H17.9384V11.3085C18.0286 11.3085 18.1831 11.3143 18.3074 11.3143C18.4322 11.3143 18.5862 11.3085 18.6869 11.3085C18.6845 11.3721 18.6858 11.4702 18.6902 11.5353L18.6455 11.5472C18.6384 11.4509 18.6206 11.3739 18.4648 11.3739H18.2589V11.7623H18.4351C18.5241 11.7623 18.5435 11.712 18.5522 11.6317H18.5967C18.5938 11.6898 18.5922 11.7476 18.5922 11.8054C18.5922 11.8618 18.5938 11.918 18.5967 11.9744L18.5522 11.9832C18.5435 11.8943 18.539 11.8365 18.4366 11.8365H18.2589V12.1819C18.2589 12.2785 18.3445 12.2785 18.4396 12.2785C18.6175 12.2785 18.696 12.2664 18.7405 12.0976L18.7821 12.1078C18.7626 12.1865 18.745 12.265 18.7318 12.3437C18.6368 12.3437 18.4662 12.3379 18.3329 12.3379C18.1992 12.3379 18.0229 12.3437 17.9384 12.3437V12.299Z" fill="white"/>
<path d="M18.7332 12.3497C18.638 12.3497 18.4675 12.3436 18.3343 12.3436C18.2007 12.3436 18.0245 12.3497 17.9399 12.3497H17.9336V12.2923H17.9606C18.0144 12.2915 18.0631 12.2867 18.0639 12.2143V11.4373C18.0632 11.3649 18.0144 11.3601 17.9606 11.3589H17.9336V11.3018H17.9399C18.0303 11.3018 18.1846 11.3074 18.3089 11.3074C18.4336 11.3074 18.5875 11.3018 18.6884 11.3018H18.6951L18.6948 11.3083C18.6938 11.3307 18.6934 11.357 18.6934 11.3849C18.6934 11.4362 18.6948 11.4923 18.6978 11.5346L18.698 11.5399L18.6931 11.5414L18.6409 11.5549L18.6406 11.5473C18.6319 11.4511 18.619 11.3813 18.4664 11.3798H18.2666L18.2663 11.7552H18.4366C18.522 11.7544 18.5373 11.7107 18.5474 11.6308L18.5479 11.625H18.6048L18.6047 11.6316C18.6018 11.6894 18.5999 11.7472 18.5999 11.805C18.5999 11.8611 18.6018 11.9174 18.6047 11.9738L18.6048 11.9791L18.5994 11.9803L18.5479 11.9906L18.5474 11.9836C18.5372 11.8931 18.5365 11.8436 18.438 11.8424L18.2666 11.8423V12.1816C18.2667 12.2716 18.3444 12.2711 18.4411 12.2716C18.6196 12.2706 18.6911 12.262 18.7359 12.0954L18.7373 12.0894L18.7436 12.0905L18.7911 12.1028L18.7896 12.109C18.7705 12.1875 18.7527 12.2659 18.7395 12.3444L18.7382 12.3497H18.7332ZM18.7277 12.3367C18.7406 12.262 18.7575 12.1869 18.7758 12.1122L18.7464 12.1048C18.702 12.2708 18.616 12.2856 18.441 12.2845C18.3477 12.2845 18.2541 12.2845 18.2537 12.1815V11.8297H18.438C18.5415 11.8285 18.5521 11.8911 18.5594 11.9755L18.5915 11.9688C18.5886 11.9142 18.5872 11.8596 18.5873 11.805C18.5873 11.7492 18.5886 11.6936 18.5915 11.6378H18.5594C18.5512 11.715 18.527 11.7693 18.4366 11.7683H18.2537V11.3668H18.4664C18.6206 11.3658 18.6462 11.4454 18.6528 11.5387L18.6848 11.53C18.6822 11.4882 18.6804 11.4345 18.6804 11.3849C18.6804 11.3595 18.681 11.3356 18.6819 11.3146C18.5811 11.315 18.431 11.3204 18.3089 11.3204C18.1871 11.3204 18.037 11.315 17.9462 11.3146V11.3461H17.9606C18.0135 11.3461 18.0766 11.3553 18.0768 11.4373V12.2143C18.0766 12.296 18.0135 12.305 17.9606 12.3055H17.9462V12.3367C18.0327 12.3366 18.204 12.3311 18.3343 12.3311C18.4651 12.3311 18.6321 12.3366 18.7277 12.3367ZM18.9837 11.4652C18.9837 11.3571 18.9245 11.3526 18.8783 11.3526H18.8517V11.308C18.8992 11.308 18.991 11.314 19.0815 11.314C19.1704 11.314 19.2417 11.308 19.3202 11.308C19.5069 11.308 19.6732 11.3585 19.6732 11.5693C19.6732 11.7025 19.5842 11.7841 19.4671 11.8303L19.7206 12.2097C19.7621 12.2724 19.7916 12.29 19.8644 12.2987V12.3434C19.8155 12.3434 19.768 12.3375 19.7191 12.3375C19.6732 12.3375 19.6255 12.3434 19.5798 12.3434C19.4656 12.1936 19.3675 12.0334 19.2712 11.8627H19.1736V12.1802C19.1736 12.2945 19.2268 12.2987 19.295 12.2987H19.3217V12.3434C19.237 12.3434 19.1513 12.3375 19.0667 12.3375C18.9954 12.3375 18.9257 12.3434 18.8517 12.3434V12.2987H18.8783C18.9334 12.2987 18.9837 12.2738 18.9837 12.2188V11.4652ZM19.1736 11.8093H19.246C19.3944 11.8093 19.4743 11.753 19.4743 11.5779C19.4743 11.4461 19.3899 11.3615 19.2577 11.3615C19.2132 11.3615 19.1943 11.3661 19.1736 11.3675V11.8093H19.1736Z" fill="white"/>
<path d="M19.863 12.3499C19.8133 12.3499 19.7661 12.3439 19.7174 12.3439C19.6722 12.3439 19.6248 12.3499 19.5731 12.3474C19.4594 12.1982 19.3619 12.0389 19.2661 11.8694H19.1785V12.1802C19.18 12.2918 19.2249 12.2908 19.2934 12.2925H19.3267V12.3499H19.3201C19.2353 12.3499 19.1493 12.3439 19.0651 12.3439C18.9942 12.3439 18.9247 12.3499 18.8502 12.3499H18.8438V12.2925H18.8769C18.9303 12.2922 18.9754 12.2689 18.9756 12.219V11.4655C18.9745 11.3602 18.9229 11.3608 18.8769 11.3592H18.8438V11.3018H18.8502C18.8983 11.3018 18.9898 11.3076 19.0801 11.3076C19.1686 11.3076 19.2399 11.3018 19.3188 11.3018C19.5057 11.3022 19.6778 11.3538 19.6783 11.5691C19.6783 11.7031 19.5898 11.7867 19.4753 11.8334L19.7245 12.2064C19.7659 12.2679 19.7917 12.2832 19.8639 12.2925L19.8694 12.2933V12.3499H19.863V12.3499ZM19.172 11.8565H19.2734L19.2751 11.8598C19.3718 12.0302 19.4692 12.1902 19.5784 12.3372C19.6236 12.3372 19.6712 12.3311 19.7174 12.3311C19.7648 12.3311 19.8104 12.3363 19.8566 12.337V12.3045C19.787 12.2959 19.7544 12.2751 19.7139 12.2135L19.4559 11.8274L19.4632 11.8244C19.5792 11.7787 19.6651 11.6995 19.6652 11.5691C19.6651 11.3633 19.5053 11.3156 19.3188 11.3148C19.2406 11.3148 19.1694 11.3206 19.0801 11.3206C18.993 11.3206 18.905 11.3152 18.8565 11.3148V11.3463H18.8769C18.9229 11.3464 18.9885 11.354 18.9885 11.4654V12.219C18.9885 12.2785 18.9327 12.3056 18.8769 12.3057H18.8565V12.337C18.9279 12.3368 18.9954 12.3311 19.0651 12.3311C19.148 12.3311 19.2316 12.3368 19.3137 12.337V12.3057H19.2934C19.2258 12.3056 19.1655 12.2972 19.1655 12.1802V11.8565H19.172H19.172ZM19.172 11.8158H19.1655V11.3617L19.1712 11.3612C19.1914 11.3596 19.2115 11.3554 19.2563 11.3554C19.3914 11.3554 19.4792 11.4432 19.4794 11.5784C19.479 11.7555 19.3941 11.8156 19.2446 11.8158H19.172V11.8158ZM19.2446 11.803C19.3914 11.8018 19.4653 11.7508 19.4668 11.5784C19.466 11.4489 19.3855 11.3685 19.2563 11.3679C19.2162 11.3679 19.1974 11.3716 19.1785 11.3733V11.803H19.2446ZM20.8698 12.0512L20.8725 12.0484V11.4923C20.8725 11.3705 20.788 11.3528 20.7436 11.3528H20.7111V11.3083C20.7807 11.3083 20.8488 11.3142 20.9186 11.3142C20.9795 11.3142 21.0401 11.3083 21.1013 11.3083V11.3528H21.0789C21.0166 11.3528 20.9469 11.3646 20.9469 11.5411V12.2161C20.9469 12.2679 20.9484 12.3197 20.9557 12.3657H20.8994L20.1358 11.5144V12.1255C20.1358 12.2545 20.161 12.2989 20.2751 12.2989H20.3003V12.3436C20.2367 12.3436 20.1728 12.3377 20.1092 12.3377C20.0422 12.3377 19.9741 12.3436 19.9074 12.3436V12.2989H19.928C20.0304 12.2989 20.0616 12.2293 20.0616 12.1108V11.4861C20.0616 11.4031 19.9934 11.3528 19.9268 11.3528H19.9074V11.3083C19.9636 11.3083 20.0217 11.3142 20.0779 11.3142C20.1221 11.3142 20.1653 11.3083 20.2098 11.3083L20.8698 12.0512Z" fill="white"/>
<path d="M20.9573 12.3725L20.8963 12.3704L20.1437 11.5315V12.1258C20.1454 12.2548 20.165 12.2914 20.2768 12.2929H20.3082V12.3503H20.3017C20.2376 12.3503 20.174 12.3442 20.1105 12.3442C20.0443 12.3442 19.9758 12.3503 19.909 12.3503H19.9023V12.2929H19.9296C20.0275 12.2925 20.0556 12.2294 20.0565 12.1108V11.4865C20.0564 11.4075 19.9917 11.3596 19.9284 11.3595H19.9023V11.3021H19.909C19.9656 11.3021 20.0236 11.308 20.0795 11.308C20.1231 11.308 20.1661 11.3021 20.2159 11.3042L20.8677 12.0382V11.4926C20.8673 11.3747 20.7883 11.3601 20.7452 11.3595H20.706V11.3021H20.7125C20.7827 11.3021 20.8509 11.308 20.9202 11.308C20.9807 11.308 21.0415 11.3021 21.1025 11.3021H21.109V11.3595H21.0805C21.0194 11.3612 20.9563 11.3666 20.9548 11.5415V12.2164C20.9548 12.2682 20.9561 12.3196 20.9636 12.3653L20.9645 12.3725H20.9573ZM20.901 12.3595H20.9497C20.9433 12.315 20.9418 12.2656 20.9418 12.2164V11.5415C20.9419 11.3635 21.017 11.3471 21.0805 11.3465H21.0961V11.3152C21.0379 11.3156 20.9792 11.3209 20.9202 11.3209C20.8522 11.3209 20.786 11.3156 20.7189 11.3152V11.3465H20.7452C20.7909 11.3471 20.8807 11.367 20.8807 11.4926L20.8787 12.0532L20.8758 12.0563L20.8713 12.061L20.2114 11.3152C20.1673 11.3152 20.1243 11.321 20.0795 11.321C20.0246 11.321 19.9692 11.3156 19.9152 11.3152V11.3466H19.9284C19.998 11.3471 20.0694 11.3996 20.0694 11.4865V12.1108C20.0694 12.2298 20.0359 12.3056 19.9296 12.306L19.9152 12.3059V12.3373C19.9793 12.337 20.0454 12.3316 20.1105 12.3316C20.1727 12.3316 20.2343 12.337 20.2956 12.3373V12.306H20.2769C20.16 12.3059 20.1308 12.2548 20.1306 12.1258V11.4983L20.901 12.3595ZM20.8714 12.0515L20.8759 12.0473L20.8714 12.0515ZM20.8677 12.0488V12.0482L20.8665 12.0471L20.8677 12.0488ZM21.3413 12.1318C21.3263 12.1821 21.3084 12.221 21.3084 12.2474C21.3084 12.292 21.3709 12.2992 21.4196 12.2992H21.4362V12.344C21.3767 12.3408 21.3162 12.3381 21.2564 12.3381C21.2031 12.3381 21.15 12.3408 21.0965 12.344V12.2992H21.1055C21.1632 12.2992 21.2123 12.2652 21.2342 12.2028L21.4717 11.5223C21.4909 11.4674 21.5178 11.3932 21.5268 11.3382C21.574 11.3221 21.6334 11.2925 21.6615 11.2746C21.6661 11.273 21.6687 11.2715 21.6733 11.2715C21.6777 11.2715 21.6806 11.2715 21.6839 11.2761C21.6882 11.2878 21.6925 11.3013 21.6973 11.3131L21.97 12.0889C21.9878 12.1407 22.0054 12.1955 22.0247 12.2401C22.0425 12.2817 22.0738 12.2992 22.1228 12.2992H22.1316V12.344C22.0649 12.3408 21.998 12.3381 21.9271 12.3381C21.8544 12.3381 21.78 12.3408 21.7045 12.344V12.2992H21.7209C21.7548 12.2992 21.8128 12.2935 21.8128 12.2564C21.8128 12.2371 21.7995 12.1971 21.7829 12.1495L21.7252 11.9775H21.3887L21.3413 12.1318ZM21.5577 11.4748H21.5547L21.4168 11.8945H21.6939L21.5577 11.4748Z" fill="white"/>
<path d="M22.131 12.3503C22.0642 12.3473 21.9975 12.3442 21.9269 12.3442C21.8542 12.3442 21.7803 12.3473 21.7044 12.3503L21.6977 12.3507V12.2927H21.7206C21.7549 12.2927 21.8059 12.2849 21.8059 12.2564C21.8063 12.2396 21.793 12.1988 21.7766 12.1517L21.7202 11.9839H21.3931L21.347 12.1337C21.332 12.1843 21.3142 12.2235 21.3143 12.2477C21.3148 12.2839 21.3702 12.2927 21.4194 12.2927H21.4422V12.3507L21.4355 12.3503C21.3762 12.3473 21.3156 12.3442 21.2565 12.3442C21.2034 12.3442 21.1499 12.3473 21.0967 12.3503L21.0898 12.3507V12.2927H21.1052C21.1604 12.2925 21.2065 12.2612 21.2278 12.2008L21.4653 11.5202C21.4847 11.4652 21.5114 11.3912 21.5243 11.3321C21.5708 11.3164 21.6303 11.2866 21.6589 11.2685C21.663 11.2671 21.6671 11.2651 21.6732 11.2651C21.6768 11.265 21.6848 11.2659 21.6895 11.2737C21.6938 11.2859 21.6984 11.2991 21.7029 11.3111L21.976 12.0868C21.9935 12.1388 22.0112 12.1936 22.0305 12.2374C22.0477 12.277 22.075 12.2925 22.1227 12.2927H22.1378V12.3507L22.131 12.3503ZM21.7107 12.337C21.7841 12.3345 21.856 12.3316 21.9269 12.3316C21.9957 12.3316 22.0602 12.3345 22.1247 12.337V12.3061H22.1226C22.0718 12.3064 22.0368 12.2864 22.0186 12.2427C21.9992 12.1977 21.9811 12.1427 21.9638 12.0908L21.6907 11.3152C21.6862 11.3034 21.6819 11.2899 21.678 11.2795C21.6768 11.278 21.6771 11.278 21.6758 11.278H21.6732C21.6701 11.278 21.6683 11.2789 21.6645 11.28C21.6359 11.2986 21.5764 11.3277 21.5325 11.3393C21.5233 11.3954 21.4967 11.4695 21.4774 11.5244L21.2401 12.2051C21.2174 12.2695 21.1655 12.3062 21.1052 12.3061H21.1028V12.337C21.1536 12.3345 21.205 12.3316 21.2565 12.3316C21.3138 12.3316 21.3724 12.3345 21.4289 12.337V12.3061H21.4194C21.3712 12.3055 21.3037 12.3 21.3019 12.2477C21.302 12.2181 21.3202 12.1801 21.3346 12.13L21.3411 12.132L21.3346 12.1298L21.3835 11.9713H21.7292L21.7887 12.1475C21.8054 12.1951 21.8189 12.2346 21.8189 12.2564C21.8168 12.302 21.7542 12.3052 21.7206 12.3061H21.7107V12.337H21.7107ZM21.4076 11.9009L21.5496 11.4683H21.5576V11.4748L21.556 11.4751L21.5576 11.4748V11.4683H21.562L21.7028 11.9009H21.4076ZM21.4254 11.8881H21.6849L21.5558 11.4907L21.4254 11.8881ZM21.5511 11.4767L21.5545 11.4755L21.5511 11.4767ZM22.1966 11.3828C22.0853 11.3828 22.0809 11.4095 22.0586 11.5177H22.014C22.0199 11.4763 22.0274 11.4348 22.0321 11.3916C22.038 11.3501 22.0407 11.3087 22.0407 11.2658H22.0765C22.0883 11.3103 22.1255 11.3088 22.1653 11.3088H22.9307C22.9705 11.3088 23.0075 11.3073 23.0106 11.2627L23.046 11.2687C23.0404 11.3088 23.0345 11.3488 23.03 11.3889C23.0268 11.4289 23.0268 11.469 23.0268 11.5089L22.9824 11.5254C22.9796 11.4706 22.9722 11.3828 22.8728 11.3828H22.6296V12.1719C22.6296 12.2862 22.6816 12.2993 22.7526 12.2993H22.7807V12.344C22.723 12.344 22.6193 12.3382 22.5391 12.3382C22.4503 12.3382 22.3463 12.344 22.2885 12.344V12.2993H22.3166C22.3983 12.2993 22.4399 12.292 22.4399 12.175V11.3828H22.1966Z" fill="white"/>
<path d="M22.7801 12.3501C22.7219 12.3501 22.618 12.3441 22.5384 12.3441C22.4498 12.3441 22.3459 12.3501 22.2878 12.3501H22.2813V12.2927H22.3159C22.3976 12.2908 22.4305 12.2897 22.4325 12.1748L22.4323 11.3891H22.1959V11.376H22.4454V12.1748C22.4454 12.2937 22.3973 12.3055 22.3159 12.3058H22.2941V12.3374C22.3528 12.3368 22.4524 12.3315 22.5384 12.3315C22.6159 12.3315 22.715 12.3368 22.7736 12.3374V12.3058H22.7517C22.6804 12.3055 22.6226 12.2883 22.6224 12.1717V11.376H22.8721C22.9716 11.3764 22.9847 11.461 22.9875 11.5161L23.0199 11.5042C23.0199 11.4656 23.02 11.4268 23.0228 11.3879C23.027 11.3498 23.0325 11.3117 23.038 11.2739L23.0156 11.2701C23.0088 11.3133 22.9669 11.3156 22.93 11.315H22.1571C22.1222 11.3154 22.0843 11.3134 22.0709 11.2717H22.0466C22.0462 11.3129 22.0434 11.3528 22.0375 11.3922C22.0336 11.4331 22.0263 11.4724 22.0208 11.5113H22.0526C22.0722 11.408 22.0851 11.3745 22.1959 11.376V11.3891C22.086 11.3909 22.0884 11.4095 22.0642 11.5191L22.063 11.5242H22.0059L22.0068 11.5168C22.013 11.4749 22.0204 11.4336 22.0247 11.3907C22.0307 11.3493 22.0336 11.3081 22.0336 11.2656V11.2591H22.0805L22.0817 11.2637C22.0921 11.3011 22.1192 11.3013 22.1571 11.302L22.1646 11.3022H22.93C22.9709 11.3013 23.0008 11.3007 23.0034 11.2621L23.0038 11.255L23.0108 11.2564L23.0529 11.263L23.0517 11.2695C23.0457 11.3092 23.04 11.3493 23.0355 11.3891C23.0325 11.4286 23.0325 11.4688 23.0325 11.5087V11.5133L23.0283 11.5149L22.9758 11.5341L22.9755 11.5254C22.9716 11.4697 22.9658 11.3891 22.8721 11.3891H22.6353V12.1717C22.6368 12.2836 22.6811 12.2913 22.7517 12.2927H22.7864V12.3501L22.7801 12.3501ZM23.1001 12.2991H23.1209C23.1745 12.2991 23.2305 12.2919 23.2305 12.2147V11.4377C23.2305 11.3604 23.1745 11.3531 23.1209 11.3531H23.1001V11.3085C23.158 11.3085 23.2469 11.3144 23.3194 11.3144C23.3938 11.3144 23.4828 11.3085 23.5525 11.3085V11.3531H23.5317C23.4783 11.3531 23.4218 11.3604 23.4218 11.4377V12.2147C23.4218 12.2919 23.4783 12.2991 23.5317 12.2991H23.5525V12.3438C23.4812 12.3438 23.3922 12.338 23.3182 12.338C23.2454 12.338 23.158 12.3438 23.1001 12.3438V12.2991Z" fill="white"/>
<path d="M23.5526 12.3501C23.4809 12.3501 23.3921 12.344 23.3182 12.344C23.2457 12.344 23.1581 12.3501 23.1002 12.3501H23.0938V12.2927H23.121C23.1746 12.2919 23.2237 12.2873 23.2239 12.2147V11.4377C23.2237 11.3653 23.1746 11.3604 23.121 11.3593H23.0938V11.3022H23.1002C23.1581 11.3022 23.2472 11.3078 23.3194 11.3078C23.3934 11.3078 23.4823 11.3022 23.5526 11.3022H23.5588V11.3593H23.5318C23.4776 11.3604 23.429 11.3653 23.4282 11.4377V12.2147C23.429 12.2873 23.4776 12.2919 23.5318 12.2927H23.5588V12.3501H23.5526ZM23.5459 12.3371V12.3058H23.5318C23.4786 12.3058 23.4157 12.2964 23.4157 12.2147V11.4377C23.4157 11.3557 23.4786 11.3465 23.5318 11.3465H23.5459V11.315C23.4774 11.3154 23.3917 11.3208 23.3194 11.3208C23.2492 11.3208 23.1642 11.3154 23.1067 11.315V11.3465H23.121C23.1737 11.3465 23.2369 11.3557 23.2371 11.4377V12.2147C23.2369 12.2964 23.1737 12.3058 23.121 12.3058H23.1067V12.3371C23.1639 12.3365 23.2478 12.3315 23.3182 12.3315C23.3901 12.3315 23.476 12.3368 23.5459 12.3371H23.5459ZM24.1439 11.2863C24.46 11.2863 24.7119 11.4823 24.7119 11.7981C24.7119 12.1393 24.4673 12.366 24.1516 12.366C23.8369 12.366 23.5969 12.1524 23.5969 11.8336C23.5969 11.5252 23.8355 11.2863 24.1439 11.2863ZM24.1663 12.3007C24.454 12.3007 24.5041 12.0469 24.5041 11.8307C24.5041 11.6139 24.3873 11.3515 24.141 11.3515C23.8815 11.3515 23.8044 11.5829 23.8044 11.7814C23.8044 12.0469 23.926 12.3007 24.1663 12.3007Z" fill="white"/>
<path d="M23.5898 11.834C23.5905 11.522 23.8319 11.2807 24.1434 11.2803V11.293C23.8386 11.293 23.6027 11.5288 23.6024 11.834C23.6031 12.1493 23.8397 12.3596 24.1511 12.3597C24.4637 12.3596 24.7048 12.1361 24.7053 11.7982C24.705 11.4864 24.4569 11.2934 24.1434 11.293V11.2803C24.4619 11.2805 24.7173 11.4784 24.7179 11.7982C24.7176 12.143 24.4697 12.3721 24.1511 12.3727C23.834 12.3721 23.5905 12.1564 23.5899 11.834H23.5898V11.834ZM23.7976 11.7819C23.798 11.5824 23.8759 11.3453 24.1406 11.3453C24.3923 11.3459 24.5099 11.6132 24.5103 11.8311C24.5099 12.0474 24.459 12.3073 24.1659 12.3073V12.2948C24.4479 12.2944 24.4967 12.0474 24.4974 11.8311C24.4974 11.6161 24.3816 11.3587 24.1406 11.3584C23.8862 11.3587 23.8109 11.5843 23.8104 11.7819C23.8106 12.046 23.931 12.2942 24.1659 12.2948V12.3073C23.9197 12.307 23.798 12.0489 23.7976 11.7819ZM25.7107 12.0519L25.7137 12.049V11.4929C25.7137 11.3712 25.629 11.3535 25.5845 11.3535H25.5524V11.309C25.6219 11.309 25.6901 11.3148 25.7596 11.3148C25.8205 11.3148 25.8813 11.309 25.9422 11.309V11.3535H25.9198C25.8577 11.3535 25.7878 11.3653 25.7878 11.5418V12.2167C25.7878 12.2686 25.7893 12.3204 25.7968 12.3664H25.7405L24.9767 11.515V12.1261C24.9767 12.2552 25.0018 12.2995 25.116 12.2995H25.1414V12.3442C25.0775 12.3442 25.0139 12.3384 24.9501 12.3384C24.8834 12.3384 24.815 12.3442 24.7483 12.3442V12.2995H24.7691C24.8717 12.2995 24.9024 12.23 24.9024 12.1114V11.4868C24.9024 11.4038 24.8345 11.3535 24.7676 11.3535H24.7483V11.309C24.8046 11.309 24.8625 11.3148 24.9187 11.3148C24.9633 11.3148 25.0062 11.309 25.0508 11.309L25.7107 12.0519Z" fill="white"/>
<path d="M25.7971 12.3723L25.7357 12.3701L24.9833 11.5314V12.1257C24.985 12.2547 25.0046 12.2912 25.116 12.2925H25.1481V12.3501H25.1416C25.0773 12.3501 25.0137 12.3441 24.9503 12.3441C24.8838 12.3441 24.8157 12.3501 24.7484 12.3501H24.7422V12.2925H24.7693C24.8671 12.2922 24.8952 12.2293 24.8964 12.111V11.4863C24.8962 11.4074 24.8315 11.3594 24.7678 11.3593H24.7422V11.3022H24.7484C24.8052 11.3022 24.863 11.3078 24.9189 11.3078C24.963 11.3078 25.0057 11.3022 25.0559 11.3043L25.7074 12.038V11.4926C25.707 11.3746 25.628 11.3604 25.5847 11.3594H25.5457V11.3022H25.5524C25.6222 11.3022 25.6906 11.3079 25.7596 11.3079C25.8204 11.3079 25.8809 11.3022 25.9424 11.3022H25.9488V11.3594H25.92C25.859 11.3611 25.7959 11.3667 25.7946 11.5414V12.2162C25.7946 12.268 25.7957 12.3198 25.803 12.3651L25.8042 12.3723H25.7971V12.3723ZM25.7408 12.3593H25.7893C25.7828 12.3148 25.7817 12.2655 25.7817 12.2162V11.5413C25.7817 11.363 25.8565 11.3469 25.92 11.3464H25.936V11.315C25.8776 11.3154 25.8189 11.3208 25.7596 11.3208C25.6922 11.3208 25.6258 11.3154 25.5587 11.315V11.3464H25.5847C25.6307 11.3469 25.7201 11.3672 25.7201 11.4926L25.7185 12.053L25.7157 12.0561L25.711 12.0608L25.051 11.315C25.0073 11.315 24.964 11.3208 24.919 11.3208C24.8644 11.3208 24.8088 11.3154 24.7548 11.315V11.3464H24.7678C24.8375 11.3469 24.9091 11.3994 24.9091 11.4863V12.111C24.9091 12.2296 24.876 12.3055 24.7694 12.3059L24.7548 12.3058V12.3371C24.8191 12.3368 24.8852 12.3315 24.9504 12.3315C25.0122 12.3315 25.0735 12.3368 25.1351 12.3371V12.3059H25.116C24.9996 12.3058 24.9705 12.2547 24.9705 12.1257V11.4979L25.7408 12.3593ZM25.711 12.0514L25.7157 12.0472L25.711 12.0514ZM25.7075 12.0486V12.0481L25.7062 12.0469L25.7075 12.0486ZM26.1807 12.1317C26.1662 12.182 26.1482 12.2208 26.1482 12.2473C26.1482 12.2919 26.2106 12.2991 26.2593 12.2991H26.2758V12.3438C26.2165 12.3406 26.1556 12.3379 26.0963 12.3379C26.0427 12.3379 25.9895 12.3406 25.9364 12.3438V12.2991H25.9448C26.0029 12.2991 26.0521 12.265 26.074 12.2026L26.3115 11.5221C26.3306 11.4672 26.3575 11.3931 26.3661 11.3381C26.4136 11.3219 26.4728 11.2923 26.5013 11.2744C26.5055 11.2729 26.5085 11.2713 26.513 11.2713C26.5175 11.2713 26.5202 11.2713 26.5232 11.2759C26.5277 11.2877 26.5324 11.3011 26.5368 11.313L26.8095 12.0887C26.8273 12.1405 26.845 12.1953 26.8645 12.24C26.8823 12.2815 26.9136 12.2991 26.9623 12.2991H26.9714V12.3438C26.9045 12.3406 26.8378 12.338 26.7665 12.338C26.694 12.338 26.6198 12.3406 26.5441 12.3438V12.2991H26.5606C26.5944 12.2991 26.6526 12.2933 26.6526 12.2562C26.6526 12.237 26.6391 12.197 26.6226 12.1494L26.565 11.9773H26.2283L26.1807 12.1317ZM26.3975 11.4746H26.3945L26.2564 11.8943H26.5339L26.3975 11.4746Z" fill="white"/>
<path d="M26.9705 12.3497C26.9038 12.347 26.8372 12.3437 26.7663 12.3437C26.694 12.3437 26.6198 12.347 26.5441 12.3497L26.5375 12.3501V12.2923H26.56C26.5946 12.2923 26.6457 12.2843 26.6458 12.2558C26.6461 12.2389 26.6327 12.1985 26.6162 12.151L26.5598 11.9833H26.2325L26.1867 12.1331C26.1719 12.1839 26.1542 12.2229 26.1545 12.2468C26.1545 12.2832 26.21 12.2923 26.2591 12.2923H26.2817V12.3501L26.2751 12.3497C26.2158 12.347 26.1551 12.3437 26.0961 12.3437C26.0429 12.3437 25.9896 12.347 25.9362 12.3497L25.9297 12.3501V12.2923H25.9446C25.9999 12.2921 26.0462 12.2603 26.0678 12.2002L26.3051 11.5195C26.324 11.4645 26.3508 11.3906 26.3639 11.3317C26.4105 11.3155 26.47 11.2859 26.4988 11.2678C26.5027 11.2665 26.5068 11.2647 26.5128 11.2647C26.5167 11.2643 26.5243 11.2652 26.5291 11.2734C26.5335 11.285 26.5378 11.2985 26.5427 11.3105L26.8154 12.0861C26.8331 12.1382 26.8509 12.193 26.8701 12.2371C26.8875 12.2764 26.9146 12.2919 26.9619 12.2923H26.9773V12.3501L26.9705 12.3497ZM26.5503 12.3366C26.6236 12.3338 26.6958 12.3309 26.7663 12.3309C26.8353 12.3309 26.9 12.3338 26.9646 12.3364L26.9644 12.3054H26.9619C26.9117 12.3056 26.8766 12.2858 26.8582 12.2421C26.8387 12.1971 26.821 12.1421 26.8033 12.0903L26.5304 11.3146C26.526 11.3028 26.5215 11.2893 26.5179 11.2792C26.5166 11.2774 26.5168 11.2774 26.5156 11.2774H26.5128C26.5097 11.2774 26.5081 11.2784 26.5045 11.2794C26.4756 11.2976 26.4162 11.3272 26.3723 11.3387C26.3631 11.3948 26.3362 11.4687 26.3171 11.5238L26.0796 12.2045C26.0571 12.2688 26.0053 12.3056 25.9446 12.3054H25.9424V12.3364C25.9934 12.3338 26.0444 12.3309 26.0961 12.3309C26.1535 12.3309 26.212 12.3338 26.2691 12.3364V12.3054H26.259C26.2108 12.3048 26.1432 12.2996 26.1414 12.2468C26.1417 12.2174 26.1601 12.1797 26.1744 12.1294L26.1805 12.1314L26.1744 12.1292L26.2233 11.9706H26.5691L26.6285 12.1469C26.6449 12.1946 26.6583 12.234 26.6583 12.2558C26.6562 12.3013 26.594 12.3045 26.56 12.3054H26.5503V12.3366H26.5503ZM26.2473 11.9002L26.3895 11.4677H26.3973V11.4742L26.3957 11.4745L26.3973 11.4742V11.4677H26.4019L26.542 11.9002H26.2473ZM26.2651 11.8875H26.5245L26.3955 11.4902L26.2651 11.8875ZM26.3911 11.476L26.3941 11.4749L26.3911 11.476ZM27.3448 12.198C27.3448 12.2573 27.3859 12.275 27.4334 12.2811C27.4942 12.2856 27.5609 12.2856 27.6294 12.2781C27.6915 12.2706 27.745 12.235 27.7715 12.198C27.7952 12.1653 27.8086 12.1238 27.8175 12.0912H27.8605C27.8442 12.1757 27.8235 12.259 27.8056 12.3434C27.6754 12.3434 27.5446 12.3375 27.4143 12.3375C27.2836 12.3375 27.1533 12.3434 27.0229 12.3434V12.2987H27.0432C27.0969 12.2987 27.1549 12.2915 27.1549 12.1994V11.4373C27.1549 11.3599 27.0969 11.3526 27.0432 11.3526H27.0229V11.3081C27.1012 11.3081 27.1784 11.314 27.2569 11.314C27.3328 11.314 27.4068 11.3081 27.4825 11.3081V11.3526H27.4452C27.389 11.3526 27.3448 11.3543 27.3448 11.4326V12.198Z" fill="white"/>
<path d="M27.8049 12.3503C27.6742 12.3503 27.5438 12.3443 27.4137 12.3443C27.2831 12.3443 27.1526 12.3503 27.0219 12.3503H27.0156V12.2929H27.0426C27.0964 12.2917 27.1472 12.288 27.1478 12.2001V11.4376C27.1471 11.3655 27.0967 11.3606 27.0426 11.3596H27.0156V11.3024H27.0219C27.1008 11.3024 27.178 11.3081 27.2563 11.3081C27.3316 11.3081 27.4057 11.3024 27.4818 11.3024H27.4879V11.3596H27.4446C27.3872 11.3612 27.3514 11.3585 27.3502 11.4333V12.1987C27.3506 12.2539 27.3869 12.2688 27.4331 12.2753C27.4593 12.2771 27.4868 12.2782 27.5154 12.2782C27.5517 12.2782 27.5894 12.2765 27.6277 12.2724C27.6881 12.2653 27.7402 12.2304 27.7657 12.1951C27.7885 12.1634 27.8017 12.1227 27.8105 12.0903L27.8118 12.0853H27.8677L27.8663 12.0932C27.8496 12.178 27.8292 12.2609 27.8112 12.3453L27.81 12.3503H27.8049V12.3503ZM27.7996 12.3374C27.8168 12.2569 27.8362 12.1783 27.8521 12.0981H27.8217C27.8124 12.1304 27.7993 12.1701 27.7759 12.2025C27.7483 12.241 27.6934 12.2772 27.6291 12.2851C27.5902 12.2891 27.5518 12.2912 27.5154 12.2912C27.4867 12.2912 27.4588 12.2898 27.432 12.288C27.3838 12.2826 27.337 12.2621 27.3372 12.1986V11.4333C27.3372 11.3509 27.3893 11.3467 27.4446 11.3467H27.4753V11.3152C27.4022 11.3157 27.3302 11.3211 27.2563 11.3211C27.1795 11.3211 27.1045 11.3157 27.0284 11.3152V11.3467H27.0426C27.0955 11.3467 27.1603 11.356 27.1603 11.4376V12.2001C27.1603 12.296 27.0958 12.306 27.0426 12.306H27.0284V12.3373C27.1566 12.3372 27.2848 12.3317 27.4137 12.3317C27.5425 12.3317 27.6713 12.3372 27.7996 12.3374ZM27.8418 11.2666C27.9312 11.2666 27.9979 11.3353 27.9979 11.4233C27.9979 11.5109 27.9312 11.579 27.8418 11.579C27.7525 11.579 27.6856 11.5109 27.6856 11.4233C27.6856 11.3353 27.7525 11.2666 27.8418 11.2666ZM27.8418 11.5499C27.9117 11.5499 27.9653 11.4903 27.9653 11.4233C27.9653 11.356 27.9125 11.2958 27.8418 11.2958C27.7716 11.2958 27.7179 11.356 27.7179 11.4233C27.7179 11.4903 27.7716 11.5499 27.8418 11.5499ZM27.7641 11.5056V11.4979C27.7833 11.4952 27.7868 11.4958 27.7868 11.4839V11.3683C27.7868 11.3521 27.7851 11.3465 27.7648 11.3473V11.3394H27.8447C27.8723 11.3394 27.8975 11.3525 27.8975 11.3808C27.8975 11.4041 27.882 11.4213 27.8605 11.4279L27.8861 11.4637C27.8982 11.48 27.9116 11.4952 27.9206 11.5005V11.5056H27.8902C27.8756 11.5056 27.8628 11.4748 27.834 11.4336H27.8167V11.4855C27.8167 11.4958 27.8203 11.4952 27.8396 11.4979V11.5056H27.7641V11.5056ZM27.8167 11.4233H27.8352C27.8553 11.4233 27.8648 11.408 27.8648 11.3834C27.8648 11.3585 27.8502 11.3498 27.8341 11.3498H27.8167V11.4233Z" fill="white"/>
<path d="M11.8323 13.1825C13.2487 13.1893 14.5416 12.0273 14.5416 10.6138C14.5416 9.06797 13.2487 7.99949 11.8323 8H10.6133C9.17985 7.99949 8 9.06829 8 10.6138C8 12.0276 9.17985 13.1893 10.6133 13.1825H11.8323Z" fill="white"/>
<path d="M10.6196 8.21387C9.30974 8.21428 8.24836 9.27597 8.24805 10.5863C8.24836 11.8964 9.30973 12.958 10.6196 12.9584C11.9297 12.958 12.9913 11.8964 12.9915 10.5863C12.9913 9.27597 11.9297 8.21428 10.6196 8.21387ZM9.11632 10.5863C9.11756 9.94601 9.51746 9.4 10.0814 9.18302V11.9893C9.51746 11.7724 9.11755 11.2267 9.11632 10.5863ZM11.1576 11.9899V9.18293C11.7217 9.39938 12.1222 9.9457 12.1232 10.5863C12.1222 11.2271 11.7217 11.773 11.1576 11.9899Z" fill="#26337A"/>
<path d="M15.3707 9.11431C15.3707 8.86916 15.2429 8.88531 15.1203 8.88264V8.81179C15.2265 8.81704 15.3354 8.81704 15.4419 8.81704C15.5563 8.81704 15.7117 8.81179 15.9134 8.81179C16.619 8.81179 17.0033 9.28316 17.0033 9.76582C17.0033 10.0357 16.8454 10.7143 15.8806 10.7143C15.7417 10.7143 15.6135 10.7089 15.4854 10.7089C15.3629 10.7089 15.2429 10.7116 15.1203 10.7143V10.6436C15.2837 10.6271 15.3629 10.6217 15.3707 10.4363V9.11431H15.3707ZM15.6378 10.3928C15.6378 10.6026 15.7879 10.6271 15.9213 10.6271C16.5101 10.6271 16.7034 10.1828 16.7034 9.77662C16.7034 9.26711 16.3764 8.89919 15.8505 8.89919C15.7386 8.89919 15.6872 8.90721 15.6379 8.9101L15.6378 10.3928ZM17.0989 10.6436H17.1505C17.2267 10.6436 17.2813 10.6436 17.2813 10.5534V9.81488C17.2813 9.6951 17.2405 9.67843 17.1396 9.62424V9.58053C17.2677 9.54208 17.4205 9.49066 17.4312 9.48244C17.4504 9.47154 17.4666 9.46866 17.4803 9.46866C17.4938 9.46866 17.4994 9.48511 17.4994 9.50701V10.5534C17.4994 10.6436 17.5594 10.6436 17.6357 10.6436H17.682V10.7144C17.5892 10.7144 17.4938 10.709 17.3959 10.709C17.2978 10.709 17.1996 10.7117 17.0989 10.7144V10.6436H17.0989ZM17.3904 9.04901C17.3195 9.04901 17.257 8.98362 17.257 8.91276C17.257 8.84448 17.3224 8.78166 17.3904 8.78166C17.4611 8.78166 17.524 8.83915 17.524 8.91276C17.524 8.98639 17.4639 9.04901 17.3904 9.04901ZM17.9409 9.83113C17.9409 9.73036 17.9107 9.70321 17.7829 9.65138V9.59967C17.9 9.56152 18.0116 9.52605 18.1425 9.46867C18.1506 9.46867 18.1586 9.47422 18.1586 9.49592V9.67318C18.3142 9.56152 18.4478 9.46866 18.6306 9.46866C18.862 9.46866 18.9437 9.6377 18.9437 9.85024V10.5534C18.9437 10.6436 19.0037 10.6436 19.0801 10.6436H19.1291V10.7144C19.0335 10.7144 18.9382 10.709 18.8403 10.709C18.7421 10.709 18.6439 10.7117 18.5459 10.7144V10.6436H18.5948C18.6713 10.6436 18.7255 10.6436 18.7255 10.5534V9.84767C18.7255 9.69209 18.6306 9.6159 18.475 9.6159C18.3879 9.6159 18.2489 9.68676 18.1586 9.7468V10.5534C18.1586 10.6436 18.2189 10.6436 18.2953 10.6436H18.3442V10.7144C18.2489 10.7144 18.1534 10.709 18.0553 10.709C17.9573 10.709 17.859 10.7116 17.761 10.7144V10.6436H17.8101C17.8864 10.6436 17.9408 10.6436 17.9408 10.5534V9.83113H17.9409ZM19.3363 9.96212C19.3307 9.9867 19.3307 10.0275 19.3363 10.1203C19.3524 10.3791 19.519 10.5916 19.7367 10.5916C19.8867 10.5916 20.0042 10.5099 20.1049 10.4091L20.1429 10.4474C20.0175 10.6135 19.8622 10.7552 19.6388 10.7552C19.2054 10.7552 19.1182 10.3354 19.1182 10.1611C19.1182 9.6268 19.4779 9.46865 19.6685 9.46865C19.8894 9.46865 20.1266 9.60758 20.1292 9.89651C20.1292 9.91307 20.1292 9.92921 20.1266 9.94577L20.102 9.96212H19.3363ZM19.8188 9.87483C19.8867 9.87483 19.8948 9.83935 19.8948 9.80676C19.8948 9.66772 19.8104 9.55595 19.6577 9.55595C19.4916 9.55595 19.3771 9.67842 19.3444 9.87483H19.8188ZM20.192 10.6436H20.2656C20.3417 10.6436 20.3962 10.6436 20.3962 10.5534V9.78762C20.3962 9.7032 20.2955 9.68675 20.2545 9.66495V9.62423C20.4535 9.5396 20.5625 9.46865 20.5873 9.46865C20.6035 9.46865 20.6115 9.47687 20.6115 9.50423V9.74947H20.6173C20.6852 9.64325 20.7999 9.46865 20.9659 9.46865C21.0341 9.46865 21.1212 9.51492 21.1212 9.61312C21.1212 9.68675 21.0696 9.75235 20.9933 9.75235C20.9085 9.75235 20.9085 9.68675 20.8133 9.68675C20.7669 9.68675 20.6144 9.74947 20.6144 9.91307V10.5534C20.6144 10.6436 20.6688 10.6436 20.7452 10.6436H20.8977V10.7144C20.7477 10.7116 20.6337 10.709 20.5163 10.709C20.4046 10.709 20.2901 10.7116 20.192 10.7144V10.6436H20.192ZM21.2412 10.3354C21.2767 10.5153 21.3856 10.668 21.5847 10.668C21.7451 10.668 21.8051 10.5699 21.8051 10.4745C21.8051 10.1529 21.2112 10.2564 21.2112 9.81766C21.2112 9.66496 21.3339 9.46866 21.6336 9.46866C21.7207 9.46866 21.8378 9.49334 21.944 9.54794L21.9634 9.82569H21.9005C21.8734 9.65416 21.7781 9.55597 21.6035 9.55597C21.4945 9.55597 21.391 9.6187 21.391 9.73582C21.391 10.055 22.0232 9.95659 22.0232 10.3845C22.0232 10.5643 21.8787 10.7552 21.5544 10.7552C21.4454 10.7552 21.3174 10.7171 21.2221 10.6627L21.192 10.3492L21.2412 10.3354ZM24.484 9.30515H24.416C24.3642 8.98639 24.138 8.85816 23.8329 8.85816C23.5193 8.85816 23.0641 9.06792 23.0641 9.72202C23.0641 10.273 23.4568 10.668 23.8764 10.668C24.1461 10.668 24.3697 10.4827 24.4242 10.1965L24.4868 10.2127L24.4242 10.6106C24.3098 10.6817 24.0018 10.7552 23.8218 10.7552C23.1842 10.7552 22.781 10.3436 22.781 9.73034C22.781 9.17158 23.2797 8.77076 23.8137 8.77076C24.0344 8.77076 24.247 8.84191 24.4568 8.91554L24.484 9.30515ZM24.5823 10.6436H24.6339C24.7103 10.6436 24.765 10.6436 24.765 10.5534V9.03545C24.765 8.85817 24.7241 8.85271 24.6204 8.82279V8.77919C24.7294 8.74383 24.8439 8.69466 24.9012 8.66187C24.9309 8.64563 24.9529 8.63184 24.9609 8.63184C24.9776 8.63184 24.983 8.6483 24.983 8.67019V10.5534C24.983 10.6436 25.0429 10.6436 25.1193 10.6436H25.1652V10.7144C25.073 10.7144 24.9776 10.709 24.8794 10.709C24.7814 10.709 24.6833 10.7117 24.5823 10.7144V10.6436H24.5823ZM26.3321 10.5643C26.3321 10.6135 26.3619 10.6162 26.4082 10.6162C26.441 10.6162 26.4817 10.6135 26.5173 10.6135V10.6709C26.4 10.6817 26.1765 10.739 26.1247 10.7552L26.111 10.747V10.5264C25.9477 10.6599 25.8222 10.7552 25.6285 10.7552C25.4814 10.7552 25.3288 10.6599 25.3288 10.4311V9.73312C25.3288 9.66227 25.318 9.59409 25.1656 9.58052V9.5287C25.2638 9.52603 25.4814 9.50967 25.517 9.50967C25.5472 9.50967 25.5472 9.5287 25.5472 9.58865V10.2917C25.5472 10.3736 25.5472 10.608 25.7841 10.608C25.8768 10.608 25.9993 10.5371 26.1137 10.442V9.70843C26.1137 9.65414 25.983 9.62422 25.8851 9.59685V9.5478C26.13 9.53135 26.2829 9.50966 26.31 9.50966C26.3321 9.50966 26.3321 9.52868 26.3321 9.55881V10.5643H26.3321ZM26.8743 9.66496C26.9832 9.5723 27.1304 9.46866 27.2804 9.46866C27.5966 9.46866 27.7871 9.74424 27.7871 10.0411C27.7871 10.3981 27.5256 10.7552 27.1357 10.7552C26.9342 10.7552 26.8279 10.6897 26.757 10.6599L26.6753 10.7224L26.6183 10.6926C26.6424 10.5318 26.6563 10.3736 26.6563 10.2075V9.03543C26.6563 8.85817 26.6152 8.85271 26.5117 8.82279V8.77919C26.6211 8.74383 26.7352 8.69466 26.7925 8.66186C26.8225 8.64561 26.8442 8.63184 26.8526 8.63184C26.8689 8.63184 26.8743 8.6483 26.8743 8.67019V9.66495H26.8743V9.66496ZM26.8743 10.4062C26.8743 10.5099 26.9723 10.6845 27.1549 10.6845C27.4466 10.6845 27.5691 10.3981 27.5691 10.1555C27.5691 9.86116 27.3459 9.61592 27.1332 9.61592C27.0322 9.61592 26.9478 9.68142 26.8743 9.74424V10.4062H26.8743ZM15.1172 12.2991H15.1381C15.1913 12.2991 15.2477 12.2919 15.2477 12.2147V11.4377C15.2477 11.3604 15.1913 11.3531 15.1381 11.3531H15.1172V11.3085C15.1751 11.3085 15.264 11.3144 15.3369 11.3144C15.411 11.3144 15.4998 11.3085 15.5695 11.3085V11.3531H15.5487C15.4955 11.3531 15.439 11.3604 15.439 11.4377V12.2147C15.439 12.2919 15.4955 12.2991 15.5487 12.2991H15.5695V12.3438C15.4984 12.3438 15.4092 12.338 15.3353 12.338C15.2626 12.338 15.1751 12.3438 15.1172 12.3438V12.2991Z" fill="white"/>
<path d="M15.57 12.3501C15.4984 12.3501 15.4095 12.3441 15.3357 12.3441C15.2632 12.3441 15.176 12.3501 15.1177 12.3501H15.1113V12.2927H15.1385C15.1922 12.2915 15.2412 12.2872 15.2417 12.2147V11.4377C15.2412 11.3652 15.1923 11.3604 15.1385 11.3593H15.1113V11.302H15.1177C15.176 11.302 15.2648 11.3078 15.3373 11.3078C15.4112 11.3078 15.4999 11.302 15.57 11.302H15.5766V11.3593H15.5493C15.4955 11.3604 15.4462 11.3652 15.4459 11.4377V12.2147C15.4462 12.2872 15.4955 12.2915 15.5493 12.2927H15.5766V12.3501H15.57ZM15.5637 12.3374V12.3058H15.5493C15.4963 12.3058 15.4333 12.2966 15.433 12.2147V11.4377C15.4333 11.3557 15.4963 11.3465 15.5493 11.3465H15.5637V11.315C15.4952 11.315 15.4093 11.3208 15.3373 11.3208C15.2669 11.3208 15.1817 11.3154 15.1243 11.315V11.3465H15.1385C15.1913 11.3465 15.2546 11.3557 15.2546 11.4377V12.2147C15.2546 12.2966 15.1913 12.3058 15.1385 12.3058H15.1243V12.3374C15.1817 12.3368 15.2654 12.3315 15.3357 12.3315C15.4079 12.3315 15.4937 12.337 15.5637 12.3374ZM16.5887 12.0515L16.5917 12.0486V11.4925C16.5917 11.3707 16.5071 11.3531 16.4627 11.3531H16.43V11.3085C16.4998 11.3085 16.568 11.3144 16.6376 11.3144C16.6983 11.3144 16.7594 11.3085 16.8201 11.3085V11.3531H16.7979C16.7355 11.3531 16.6658 11.3649 16.6658 11.5413V12.2163C16.6658 12.2681 16.6673 12.32 16.6746 12.3659H16.6181L15.8546 11.5146V12.1257C15.8546 12.2548 15.8796 12.2991 15.994 12.2991H16.0191V12.3438C15.9554 12.3438 15.8918 12.338 15.8279 12.338C15.7614 12.338 15.6931 12.3438 15.6263 12.3438V12.2991H15.647C15.7494 12.2991 15.7804 12.2296 15.7804 12.111V11.4863C15.7804 11.4034 15.712 11.3531 15.6456 11.3531H15.6263V11.3085C15.6826 11.3085 15.7404 11.3144 15.7967 11.3144C15.8412 11.3144 15.8843 11.3085 15.9287 11.3085L16.5887 12.0515Z" fill="white"/>
<path d="M16.6741 12.3726L16.6129 12.3703L15.8604 11.5316V12.1259C15.8621 12.2549 15.8818 12.2915 15.9935 12.2929H16.0252V12.3503H16.0186C15.9545 12.3503 15.8906 12.3443 15.8274 12.3443C15.761 12.3443 15.6929 12.3503 15.6256 12.3503H15.6192V12.2929H15.6465C15.7445 12.2924 15.7725 12.2295 15.7736 12.1112V11.4867C15.7734 11.4077 15.7086 11.3598 15.6451 11.3596H15.6191V11.3024H15.6256C15.6823 11.3024 15.7404 11.308 15.796 11.308C15.8401 11.308 15.8831 11.3024 15.9331 11.3045L16.5848 12.0382V11.4928C16.584 11.3748 16.5053 11.3606 16.4621 11.3596H16.4228V11.3024H16.4294C16.4995 11.3024 16.5677 11.308 16.637 11.308C16.6974 11.308 16.7582 11.3024 16.8194 11.3024H16.8259V11.3595H16.7973C16.7362 11.3613 16.6733 11.3666 16.6716 11.5416V12.2164C16.6716 12.2682 16.6731 12.3201 16.6803 12.365L16.6818 12.3726H16.6741V12.3726ZM16.6177 12.3595H16.6668C16.6601 12.315 16.659 12.2657 16.659 12.2164V11.5416C16.659 11.3636 16.7335 11.3467 16.7974 11.3467H16.813V11.3152C16.7546 11.3156 16.696 11.321 16.6371 11.321C16.5692 11.321 16.5032 11.3156 16.436 11.3152L16.4359 11.3467H16.4622C16.5077 11.3467 16.5977 11.3671 16.5977 11.4928L16.5956 12.0532L16.5927 12.0563L16.5876 12.0609L15.9282 11.3152C15.8842 11.3152 15.8412 11.321 15.796 11.321C15.7416 11.321 15.686 11.3156 15.6322 11.3152L15.6319 11.3467H15.6451C15.7147 11.3467 15.7862 11.3999 15.7862 11.4866V12.1112C15.7862 12.2298 15.7532 12.3057 15.6465 12.3061L15.6322 12.3057V12.3376C15.6965 12.337 15.7625 12.3317 15.8274 12.3317C15.8893 12.3317 15.9509 12.337 16.0122 12.3376V12.3061H15.9935C15.8768 12.3057 15.8478 12.2549 15.8477 12.1259V11.4982L16.6177 12.3595ZM16.5882 12.0516L16.5929 12.0473L16.5882 12.0516ZM16.5848 12.0487V12.0482L16.5836 12.0472L16.5848 12.0487ZM17.0416 11.3828C16.9302 11.3828 16.926 11.4095 16.9038 11.5177H16.8593C16.8651 11.4763 16.8725 11.4348 16.8771 11.3916C16.883 11.3501 16.8859 11.3087 16.8859 11.2658H16.9216C16.9335 11.3103 16.9705 11.3088 17.0107 11.3088H17.7757C17.8158 11.3088 17.8528 11.3073 17.8559 11.2627L17.8912 11.2687C17.8855 11.3088 17.8795 11.3488 17.875 11.3889C17.8723 11.4289 17.8723 11.469 17.8723 11.5089L17.8277 11.5254C17.8246 11.4706 17.8172 11.3828 17.718 11.3828H17.4748V12.1719C17.4748 12.2862 17.5267 12.2993 17.5977 12.2993H17.6259V12.344C17.5682 12.344 17.4642 12.3382 17.3843 12.3382C17.2954 12.3382 17.1914 12.344 17.1335 12.344V12.2993H17.1618C17.2435 12.2993 17.2849 12.292 17.2849 12.175V11.3828H17.0416Z" fill="white"/>
<path d="M17.6259 12.35C17.5674 12.35 17.4637 12.3441 17.384 12.3441C17.2952 12.3441 17.1914 12.35 17.1332 12.35H17.127V12.2926H17.1615C17.2432 12.2907 17.2761 12.2897 17.278 12.1747V11.389H17.0413V11.3759H17.2909V12.1747C17.2909 12.2937 17.2429 12.3057 17.1615 12.3058H17.1397V12.3371C17.1982 12.3368 17.2979 12.3314 17.384 12.3314C17.4614 12.3314 17.5605 12.3368 17.6191 12.3371V12.3058H17.5974C17.5257 12.3057 17.468 12.2881 17.468 12.1716V11.3759H17.7177C17.8172 11.3763 17.8302 11.461 17.8335 11.516L17.8655 11.5041C17.8655 11.4655 17.8657 11.4267 17.8683 11.3876C17.8727 11.3495 17.8781 11.3117 17.8837 11.2738L17.861 11.27C17.8541 11.3132 17.8125 11.3154 17.7752 11.3149H17.0027C16.9679 11.3149 16.9297 11.3133 16.9164 11.2719H16.892C16.8918 11.3121 16.8889 11.3523 16.8832 11.3922C16.8789 11.4329 16.8721 11.4721 16.8666 11.5113H16.8983C16.9179 11.4079 16.9306 11.3744 17.0413 11.3759V11.389C16.9317 11.3909 16.9339 11.4095 16.9098 11.5191L16.9086 11.5241H16.8516L16.8524 11.5164C16.8583 11.4749 16.8659 11.4335 16.8703 11.3903C16.8764 11.3492 16.8793 11.3081 16.8793 11.2655V11.259H16.9263L16.9273 11.2636C16.9375 11.3011 16.965 11.3013 17.0027 11.3019H17.7752C17.8165 11.3013 17.8465 11.3007 17.8491 11.2619L17.8497 11.2549L17.8564 11.2563L17.8982 11.2629L17.8973 11.2694C17.8913 11.3091 17.8855 11.3492 17.8812 11.389C17.8782 11.4285 17.8782 11.4686 17.8782 11.5086V11.5132L17.8741 11.5148L17.8215 11.534L17.8211 11.5253C17.8172 11.4696 17.8114 11.389 17.7177 11.389H17.481V12.1716C17.4823 12.2835 17.5267 12.2912 17.5974 12.2926H17.6321V12.35L17.6259 12.35ZM17.9384 12.299H17.9592C18.0125 12.299 18.0689 12.2918 18.0689 12.2146V11.4376C18.0689 11.3603 18.0125 11.353 17.9592 11.353H17.9384V11.3085C18.0286 11.3085 18.1831 11.3143 18.3074 11.3143C18.4322 11.3143 18.5862 11.3085 18.6869 11.3085C18.6845 11.3721 18.6858 11.4702 18.6902 11.5353L18.6455 11.5472C18.6384 11.4509 18.6206 11.3739 18.4648 11.3739H18.2589V11.7623H18.4351C18.5241 11.7623 18.5435 11.712 18.5522 11.6317H18.5967C18.5938 11.6898 18.5922 11.7476 18.5922 11.8054C18.5922 11.8618 18.5938 11.918 18.5967 11.9744L18.5522 11.9832C18.5435 11.8943 18.539 11.8365 18.4366 11.8365H18.2589V12.1819C18.2589 12.2785 18.3445 12.2785 18.4396 12.2785C18.6175 12.2785 18.696 12.2664 18.7405 12.0976L18.7821 12.1078C18.7626 12.1865 18.745 12.265 18.7318 12.3437C18.6368 12.3437 18.4662 12.3379 18.3329 12.3379C18.1992 12.3379 18.0229 12.3437 17.9384 12.3437V12.299Z" fill="white"/>
<path d="M18.7332 12.3497C18.638 12.3497 18.4675 12.3436 18.3343 12.3436C18.2007 12.3436 18.0245 12.3497 17.9399 12.3497H17.9336V12.2923H17.9606C18.0144 12.2915 18.0631 12.2867 18.0639 12.2143V11.4373C18.0632 11.3649 18.0144 11.3601 17.9606 11.3589H17.9336V11.3018H17.9399C18.0303 11.3018 18.1846 11.3074 18.3089 11.3074C18.4336 11.3074 18.5875 11.3018 18.6884 11.3018H18.6951L18.6948 11.3083C18.6938 11.3307 18.6934 11.357 18.6934 11.3849C18.6934 11.4362 18.6948 11.4923 18.6978 11.5346L18.698 11.5399L18.6931 11.5414L18.6409 11.5549L18.6406 11.5473C18.6319 11.4511 18.619 11.3813 18.4664 11.3798H18.2666L18.2663 11.7552H18.4366C18.522 11.7544 18.5373 11.7107 18.5474 11.6308L18.5479 11.625H18.6048L18.6047 11.6316C18.6018 11.6894 18.5999 11.7472 18.5999 11.805C18.5999 11.8611 18.6018 11.9174 18.6047 11.9738L18.6048 11.9791L18.5994 11.9803L18.5479 11.9906L18.5474 11.9836C18.5372 11.8931 18.5365 11.8436 18.438 11.8424L18.2666 11.8423V12.1816C18.2667 12.2716 18.3444 12.2711 18.4411 12.2716C18.6196 12.2706 18.6911 12.262 18.7359 12.0954L18.7373 12.0894L18.7436 12.0905L18.7911 12.1028L18.7896 12.109C18.7705 12.1875 18.7527 12.2659 18.7395 12.3444L18.7382 12.3497H18.7332ZM18.7277 12.3367C18.7406 12.262 18.7575 12.1869 18.7758 12.1122L18.7464 12.1048C18.702 12.2708 18.616 12.2856 18.441 12.2845C18.3477 12.2845 18.2541 12.2845 18.2537 12.1815V11.8297H18.438C18.5415 11.8285 18.5521 11.8911 18.5594 11.9755L18.5915 11.9688C18.5886 11.9142 18.5872 11.8596 18.5873 11.805C18.5873 11.7492 18.5886 11.6936 18.5915 11.6378H18.5594C18.5512 11.715 18.527 11.7693 18.4366 11.7683H18.2537V11.3668H18.4664C18.6206 11.3658 18.6462 11.4454 18.6528 11.5387L18.6848 11.53C18.6822 11.4882 18.6804 11.4345 18.6804 11.3849C18.6804 11.3595 18.681 11.3356 18.6819 11.3146C18.5811 11.315 18.431 11.3204 18.3089 11.3204C18.1871 11.3204 18.037 11.315 17.9462 11.3146V11.3461H17.9606C18.0135 11.3461 18.0766 11.3553 18.0768 11.4373V12.2143C18.0766 12.296 18.0135 12.305 17.9606 12.3055H17.9462V12.3367C18.0327 12.3366 18.204 12.3311 18.3343 12.3311C18.4651 12.3311 18.6321 12.3366 18.7277 12.3367ZM18.9837 11.4652C18.9837 11.3571 18.9245 11.3526 18.8783 11.3526H18.8517V11.308C18.8992 11.308 18.991 11.314 19.0815 11.314C19.1704 11.314 19.2417 11.308 19.3202 11.308C19.5069 11.308 19.6732 11.3585 19.6732 11.5693C19.6732 11.7025 19.5842 11.7841 19.4671 11.8303L19.7206 12.2097C19.7621 12.2724 19.7916 12.29 19.8644 12.2987V12.3434C19.8155 12.3434 19.768 12.3375 19.7191 12.3375C19.6732 12.3375 19.6255 12.3434 19.5798 12.3434C19.4656 12.1936 19.3675 12.0334 19.2712 11.8627H19.1736V12.1802C19.1736 12.2945 19.2268 12.2987 19.295 12.2987H19.3217V12.3434C19.237 12.3434 19.1513 12.3375 19.0667 12.3375C18.9954 12.3375 18.9257 12.3434 18.8517 12.3434V12.2987H18.8783C18.9334 12.2987 18.9837 12.2738 18.9837 12.2188V11.4652ZM19.1736 11.8093H19.246C19.3944 11.8093 19.4743 11.753 19.4743 11.5779C19.4743 11.4461 19.3899 11.3615 19.2577 11.3615C19.2132 11.3615 19.1943 11.3661 19.1736 11.3675V11.8093H19.1736Z" fill="white"/>
<path d="M19.863 12.3499C19.8133 12.3499 19.7661 12.3439 19.7174 12.3439C19.6722 12.3439 19.6248 12.3499 19.5731 12.3474C19.4594 12.1982 19.3619 12.0389 19.2661 11.8694H19.1785V12.1802C19.18 12.2918 19.2249 12.2908 19.2934 12.2925H19.3267V12.3499H19.3201C19.2353 12.3499 19.1493 12.3439 19.0651 12.3439C18.9942 12.3439 18.9247 12.3499 18.8502 12.3499H18.8438V12.2925H18.8769C18.9303 12.2922 18.9754 12.2689 18.9756 12.219V11.4655C18.9745 11.3602 18.9229 11.3608 18.8769 11.3592H18.8438V11.3018H18.8502C18.8983 11.3018 18.9898 11.3076 19.0801 11.3076C19.1686 11.3076 19.2399 11.3018 19.3188 11.3018C19.5057 11.3022 19.6778 11.3538 19.6783 11.5691C19.6783 11.7031 19.5898 11.7867 19.4753 11.8334L19.7245 12.2064C19.7659 12.2679 19.7917 12.2832 19.8639 12.2925L19.8694 12.2933V12.3499H19.863V12.3499ZM19.172 11.8565H19.2734L19.2751 11.8598C19.3718 12.0302 19.4692 12.1902 19.5784 12.3372C19.6236 12.3372 19.6712 12.3311 19.7174 12.3311C19.7648 12.3311 19.8104 12.3363 19.8566 12.337V12.3045C19.787 12.2959 19.7544 12.2751 19.7139 12.2135L19.4559 11.8274L19.4632 11.8244C19.5792 11.7787 19.6651 11.6995 19.6652 11.5691C19.6651 11.3633 19.5053 11.3156 19.3188 11.3148C19.2406 11.3148 19.1694 11.3206 19.0801 11.3206C18.993 11.3206 18.905 11.3152 18.8565 11.3148V11.3463H18.8769C18.9229 11.3464 18.9885 11.354 18.9885 11.4654V12.219C18.9885 12.2785 18.9327 12.3056 18.8769 12.3057H18.8565V12.337C18.9279 12.3368 18.9954 12.3311 19.0651 12.3311C19.148 12.3311 19.2316 12.3368 19.3137 12.337V12.3057H19.2934C19.2258 12.3056 19.1655 12.2972 19.1655 12.1802V11.8565H19.172H19.172ZM19.172 11.8158H19.1655V11.3617L19.1712 11.3612C19.1914 11.3596 19.2115 11.3554 19.2563 11.3554C19.3914 11.3554 19.4792 11.4432 19.4794 11.5784C19.479 11.7555 19.3941 11.8156 19.2446 11.8158H19.172V11.8158ZM19.2446 11.803C19.3914 11.8018 19.4653 11.7508 19.4668 11.5784C19.466 11.4489 19.3855 11.3685 19.2563 11.3679C19.2162 11.3679 19.1974 11.3716 19.1785 11.3733V11.803H19.2446ZM20.8698 12.0512L20.8725 12.0484V11.4923C20.8725 11.3705 20.788 11.3528 20.7436 11.3528H20.7111V11.3083C20.7807 11.3083 20.8488 11.3142 20.9186 11.3142C20.9795 11.3142 21.0401 11.3083 21.1013 11.3083V11.3528H21.0789C21.0166 11.3528 20.9469 11.3646 20.9469 11.5411V12.2161C20.9469 12.2679 20.9484 12.3197 20.9557 12.3657H20.8994L20.1358 11.5144V12.1255C20.1358 12.2545 20.161 12.2989 20.2751 12.2989H20.3003V12.3436C20.2367 12.3436 20.1728 12.3377 20.1092 12.3377C20.0422 12.3377 19.9741 12.3436 19.9074 12.3436V12.2989H19.928C20.0304 12.2989 20.0616 12.2293 20.0616 12.1108V11.4861C20.0616 11.4031 19.9934 11.3528 19.9268 11.3528H19.9074V11.3083C19.9636 11.3083 20.0217 11.3142 20.0779 11.3142C20.1221 11.3142 20.1653 11.3083 20.2098 11.3083L20.8698 12.0512Z" fill="white"/>
<path d="M20.9573 12.3725L20.8963 12.3704L20.1437 11.5315V12.1258C20.1454 12.2548 20.165 12.2914 20.2768 12.2929H20.3082V12.3503H20.3017C20.2376 12.3503 20.174 12.3442 20.1105 12.3442C20.0443 12.3442 19.9758 12.3503 19.909 12.3503H19.9023V12.2929H19.9296C20.0275 12.2925 20.0556 12.2294 20.0565 12.1108V11.4865C20.0564 11.4075 19.9917 11.3596 19.9284 11.3595H19.9023V11.3021H19.909C19.9656 11.3021 20.0236 11.308 20.0795 11.308C20.1231 11.308 20.1661 11.3021 20.2159 11.3042L20.8677 12.0382V11.4926C20.8673 11.3747 20.7883 11.3601 20.7452 11.3595H20.706V11.3021H20.7125C20.7827 11.3021 20.8509 11.308 20.9202 11.308C20.9807 11.308 21.0415 11.3021 21.1025 11.3021H21.109V11.3595H21.0805C21.0194 11.3612 20.9563 11.3666 20.9548 11.5415V12.2164C20.9548 12.2682 20.9561 12.3196 20.9636 12.3653L20.9645 12.3725H20.9573ZM20.901 12.3595H20.9497C20.9433 12.315 20.9418 12.2656 20.9418 12.2164V11.5415C20.9419 11.3635 21.017 11.3471 21.0805 11.3465H21.0961V11.3152C21.0379 11.3156 20.9792 11.3209 20.9202 11.3209C20.8522 11.3209 20.786 11.3156 20.7189 11.3152V11.3465H20.7452C20.7909 11.3471 20.8807 11.367 20.8807 11.4926L20.8787 12.0532L20.8758 12.0563L20.8713 12.061L20.2114 11.3152C20.1673 11.3152 20.1243 11.321 20.0795 11.321C20.0246 11.321 19.9692 11.3156 19.9152 11.3152V11.3466H19.9284C19.998 11.3471 20.0694 11.3996 20.0694 11.4865V12.1108C20.0694 12.2298 20.0359 12.3056 19.9296 12.306L19.9152 12.3059V12.3373C19.9793 12.337 20.0454 12.3316 20.1105 12.3316C20.1727 12.3316 20.2343 12.337 20.2956 12.3373V12.306H20.2769C20.16 12.3059 20.1308 12.2548 20.1306 12.1258V11.4983L20.901 12.3595ZM20.8714 12.0515L20.8759 12.0473L20.8714 12.0515ZM20.8677 12.0488V12.0482L20.8665 12.0471L20.8677 12.0488ZM21.3413 12.1318C21.3263 12.1821 21.3084 12.221 21.3084 12.2474C21.3084 12.292 21.3709 12.2992 21.4196 12.2992H21.4362V12.344C21.3767 12.3408 21.3162 12.3381 21.2564 12.3381C21.2031 12.3381 21.15 12.3408 21.0965 12.344V12.2992H21.1055C21.1632 12.2992 21.2123 12.2652 21.2342 12.2028L21.4717 11.5223C21.4909 11.4674 21.5178 11.3932 21.5268 11.3382C21.574 11.3221 21.6334 11.2925 21.6615 11.2746C21.6661 11.273 21.6687 11.2715 21.6733 11.2715C21.6777 11.2715 21.6806 11.2715 21.6839 11.2761C21.6882 11.2878 21.6925 11.3013 21.6973 11.3131L21.97 12.0889C21.9878 12.1407 22.0054 12.1955 22.0247 12.2401C22.0425 12.2817 22.0738 12.2992 22.1228 12.2992H22.1316V12.344C22.0649 12.3408 21.998 12.3381 21.9271 12.3381C21.8544 12.3381 21.78 12.3408 21.7045 12.344V12.2992H21.7209C21.7548 12.2992 21.8128 12.2935 21.8128 12.2564C21.8128 12.2371 21.7995 12.1971 21.7829 12.1495L21.7252 11.9775H21.3887L21.3413 12.1318ZM21.5577 11.4748H21.5547L21.4168 11.8945H21.6939L21.5577 11.4748Z" fill="white"/>
<path d="M22.131 12.3503C22.0642 12.3473 21.9975 12.3442 21.9269 12.3442C21.8542 12.3442 21.7803 12.3473 21.7044 12.3503L21.6977 12.3507V12.2927H21.7206C21.7549 12.2927 21.8059 12.2849 21.8059 12.2564C21.8063 12.2396 21.793 12.1988 21.7766 12.1517L21.7202 11.9839H21.3931L21.347 12.1337C21.332 12.1843 21.3142 12.2235 21.3143 12.2477C21.3148 12.2839 21.3702 12.2927 21.4194 12.2927H21.4422V12.3507L21.4355 12.3503C21.3762 12.3473 21.3156 12.3442 21.2565 12.3442C21.2034 12.3442 21.1499 12.3473 21.0967 12.3503L21.0898 12.3507V12.2927H21.1052C21.1604 12.2925 21.2065 12.2612 21.2278 12.2008L21.4653 11.5202C21.4847 11.4652 21.5114 11.3912 21.5243 11.3321C21.5708 11.3164 21.6303 11.2866 21.6589 11.2685C21.663 11.2671 21.6671 11.2651 21.6732 11.2651C21.6768 11.265 21.6848 11.2659 21.6895 11.2737C21.6938 11.2859 21.6984 11.2991 21.7029 11.3111L21.976 12.0868C21.9935 12.1388 22.0112 12.1936 22.0305 12.2374C22.0477 12.277 22.075 12.2925 22.1227 12.2927H22.1378V12.3507L22.131 12.3503ZM21.7107 12.337C21.7841 12.3345 21.856 12.3316 21.9269 12.3316C21.9957 12.3316 22.0602 12.3345 22.1247 12.337V12.3061H22.1226C22.0718 12.3064 22.0368 12.2864 22.0186 12.2427C21.9992 12.1977 21.9811 12.1427 21.9638 12.0908L21.6907 11.3152C21.6862 11.3034 21.6819 11.2899 21.678 11.2795C21.6768 11.278 21.6771 11.278 21.6758 11.278H21.6732C21.6701 11.278 21.6683 11.2789 21.6645 11.28C21.6359 11.2986 21.5764 11.3277 21.5325 11.3393C21.5233 11.3954 21.4967 11.4695 21.4774 11.5244L21.2401 12.2051C21.2174 12.2695 21.1655 12.3062 21.1052 12.3061H21.1028V12.337C21.1536 12.3345 21.205 12.3316 21.2565 12.3316C21.3138 12.3316 21.3724 12.3345 21.4289 12.337V12.3061H21.4194C21.3712 12.3055 21.3037 12.3 21.3019 12.2477C21.302 12.2181 21.3202 12.1801 21.3346 12.13L21.3411 12.132L21.3346 12.1298L21.3835 11.9713H21.7292L21.7887 12.1475C21.8054 12.1951 21.8189 12.2346 21.8189 12.2564C21.8168 12.302 21.7542 12.3052 21.7206 12.3061H21.7107V12.337H21.7107ZM21.4076 11.9009L21.5496 11.4683H21.5576V11.4748L21.556 11.4751L21.5576 11.4748V11.4683H21.562L21.7028 11.9009H21.4076ZM21.4254 11.8881H21.6849L21.5558 11.4907L21.4254 11.8881ZM21.5511 11.4767L21.5545 11.4755L21.5511 11.4767ZM22.1966 11.3828C22.0853 11.3828 22.0809 11.4095 22.0586 11.5177H22.014C22.0199 11.4763 22.0274 11.4348 22.0321 11.3916C22.038 11.3501 22.0407 11.3087 22.0407 11.2658H22.0765C22.0883 11.3103 22.1255 11.3088 22.1653 11.3088H22.9307C22.9705 11.3088 23.0075 11.3073 23.0106 11.2627L23.046 11.2687C23.0404 11.3088 23.0345 11.3488 23.03 11.3889C23.0268 11.4289 23.0268 11.469 23.0268 11.5089L22.9824 11.5254C22.9796 11.4706 22.9722 11.3828 22.8728 11.3828H22.6296V12.1719C22.6296 12.2862 22.6816 12.2993 22.7526 12.2993H22.7807V12.344C22.723 12.344 22.6193 12.3382 22.5391 12.3382C22.4503 12.3382 22.3463 12.344 22.2885 12.344V12.2993H22.3166C22.3983 12.2993 22.4399 12.292 22.4399 12.175V11.3828H22.1966Z" fill="white"/>
<path d="M22.7801 12.3501C22.7219 12.3501 22.618 12.3441 22.5384 12.3441C22.4498 12.3441 22.3459 12.3501 22.2878 12.3501H22.2813V12.2927H22.3159C22.3976 12.2908 22.4305 12.2897 22.4325 12.1748L22.4323 11.3891H22.1959V11.376H22.4454V12.1748C22.4454 12.2937 22.3973 12.3055 22.3159 12.3058H22.2941V12.3374C22.3528 12.3368 22.4524 12.3315 22.5384 12.3315C22.6159 12.3315 22.715 12.3368 22.7736 12.3374V12.3058H22.7517C22.6804 12.3055 22.6226 12.2883 22.6224 12.1717V11.376H22.8721C22.9716 11.3764 22.9847 11.461 22.9875 11.5161L23.0199 11.5042C23.0199 11.4656 23.02 11.4268 23.0228 11.3879C23.027 11.3498 23.0325 11.3117 23.038 11.2739L23.0156 11.2701C23.0088 11.3133 22.9669 11.3156 22.93 11.315H22.1571C22.1222 11.3154 22.0843 11.3134 22.0709 11.2717H22.0466C22.0462 11.3129 22.0434 11.3528 22.0375 11.3922C22.0336 11.4331 22.0263 11.4724 22.0208 11.5113H22.0526C22.0722 11.408 22.0851 11.3745 22.1959 11.376V11.3891C22.086 11.3909 22.0884 11.4095 22.0642 11.5191L22.063 11.5242H22.0059L22.0068 11.5168C22.013 11.4749 22.0204 11.4336 22.0247 11.3907C22.0307 11.3493 22.0336 11.3081 22.0336 11.2656V11.2591H22.0805L22.0817 11.2637C22.0921 11.3011 22.1192 11.3013 22.1571 11.302L22.1646 11.3022H22.93C22.9709 11.3013 23.0008 11.3007 23.0034 11.2621L23.0038 11.255L23.0108 11.2564L23.0529 11.263L23.0517 11.2695C23.0457 11.3092 23.04 11.3493 23.0355 11.3891C23.0325 11.4286 23.0325 11.4688 23.0325 11.5087V11.5133L23.0283 11.5149L22.9758 11.5341L22.9755 11.5254C22.9716 11.4697 22.9658 11.3891 22.8721 11.3891H22.6353V12.1717C22.6368 12.2836 22.6811 12.2913 22.7517 12.2927H22.7864V12.3501L22.7801 12.3501ZM23.1001 12.2991H23.1209C23.1745 12.2991 23.2305 12.2919 23.2305 12.2147V11.4377C23.2305 11.3604 23.1745 11.3531 23.1209 11.3531H23.1001V11.3085C23.158 11.3085 23.2469 11.3144 23.3194 11.3144C23.3938 11.3144 23.4828 11.3085 23.5525 11.3085V11.3531H23.5317C23.4783 11.3531 23.4218 11.3604 23.4218 11.4377V12.2147C23.4218 12.2919 23.4783 12.2991 23.5317 12.2991H23.5525V12.3438C23.4812 12.3438 23.3922 12.338 23.3182 12.338C23.2454 12.338 23.158 12.3438 23.1001 12.3438V12.2991Z" fill="white"/>
<path d="M23.5526 12.3501C23.4809 12.3501 23.3921 12.344 23.3182 12.344C23.2457 12.344 23.1581 12.3501 23.1002 12.3501H23.0938V12.2927H23.121C23.1746 12.2919 23.2237 12.2873 23.2239 12.2147V11.4377C23.2237 11.3653 23.1746 11.3604 23.121 11.3593H23.0938V11.3022H23.1002C23.1581 11.3022 23.2472 11.3078 23.3194 11.3078C23.3934 11.3078 23.4823 11.3022 23.5526 11.3022H23.5588V11.3593H23.5318C23.4776 11.3604 23.429 11.3653 23.4282 11.4377V12.2147C23.429 12.2873 23.4776 12.2919 23.5318 12.2927H23.5588V12.3501H23.5526ZM23.5459 12.3371V12.3058H23.5318C23.4786 12.3058 23.4157 12.2964 23.4157 12.2147V11.4377C23.4157 11.3557 23.4786 11.3465 23.5318 11.3465H23.5459V11.315C23.4774 11.3154 23.3917 11.3208 23.3194 11.3208C23.2492 11.3208 23.1642 11.3154 23.1067 11.315V11.3465H23.121C23.1737 11.3465 23.2369 11.3557 23.2371 11.4377V12.2147C23.2369 12.2964 23.1737 12.3058 23.121 12.3058H23.1067V12.3371C23.1639 12.3365 23.2478 12.3315 23.3182 12.3315C23.3901 12.3315 23.476 12.3368 23.5459 12.3371H23.5459ZM24.1439 11.2863C24.46 11.2863 24.7119 11.4823 24.7119 11.7981C24.7119 12.1393 24.4673 12.366 24.1516 12.366C23.8369 12.366 23.5969 12.1524 23.5969 11.8336C23.5969 11.5252 23.8355 11.2863 24.1439 11.2863ZM24.1663 12.3007C24.454 12.3007 24.5041 12.0469 24.5041 11.8307C24.5041 11.6139 24.3873 11.3515 24.141 11.3515C23.8815 11.3515 23.8044 11.5829 23.8044 11.7814C23.8044 12.0469 23.926 12.3007 24.1663 12.3007Z" fill="white"/>
<path d="M23.5898 11.834C23.5905 11.522 23.8319 11.2807 24.1434 11.2803V11.293C23.8386 11.293 23.6027 11.5288 23.6024 11.834C23.6031 12.1493 23.8397 12.3596 24.1511 12.3597C24.4637 12.3596 24.7048 12.1361 24.7053 11.7982C24.705 11.4864 24.4569 11.2934 24.1434 11.293V11.2803C24.4619 11.2805 24.7173 11.4784 24.7179 11.7982C24.7176 12.143 24.4697 12.3721 24.1511 12.3727C23.834 12.3721 23.5905 12.1564 23.5899 11.834H23.5898V11.834ZM23.7976 11.7819C23.798 11.5824 23.8759 11.3453 24.1406 11.3453C24.3923 11.3459 24.5099 11.6132 24.5103 11.8311C24.5099 12.0474 24.459 12.3073 24.1659 12.3073V12.2948C24.4479 12.2944 24.4967 12.0474 24.4974 11.8311C24.4974 11.6161 24.3816 11.3587 24.1406 11.3584C23.8862 11.3587 23.8109 11.5843 23.8104 11.7819C23.8106 12.046 23.931 12.2942 24.1659 12.2948V12.3073C23.9197 12.307 23.798 12.0489 23.7976 11.7819ZM25.7107 12.0519L25.7137 12.049V11.4929C25.7137 11.3712 25.629 11.3535 25.5845 11.3535H25.5524V11.309C25.6219 11.309 25.6901 11.3148 25.7596 11.3148C25.8205 11.3148 25.8813 11.309 25.9422 11.309V11.3535H25.9198C25.8577 11.3535 25.7878 11.3653 25.7878 11.5418V12.2167C25.7878 12.2686 25.7893 12.3204 25.7968 12.3664H25.7405L24.9767 11.515V12.1261C24.9767 12.2552 25.0018 12.2995 25.116 12.2995H25.1414V12.3442C25.0775 12.3442 25.0139 12.3384 24.9501 12.3384C24.8834 12.3384 24.815 12.3442 24.7483 12.3442V12.2995H24.7691C24.8717 12.2995 24.9024 12.23 24.9024 12.1114V11.4868C24.9024 11.4038 24.8345 11.3535 24.7676 11.3535H24.7483V11.309C24.8046 11.309 24.8625 11.3148 24.9187 11.3148C24.9633 11.3148 25.0062 11.309 25.0508 11.309L25.7107 12.0519Z" fill="white"/>
<path d="M25.7971 12.3723L25.7357 12.3701L24.9833 11.5314V12.1257C24.985 12.2547 25.0046 12.2912 25.116 12.2925H25.1481V12.3501H25.1416C25.0773 12.3501 25.0137 12.3441 24.9503 12.3441C24.8838 12.3441 24.8157 12.3501 24.7484 12.3501H24.7422V12.2925H24.7693C24.8671 12.2922 24.8952 12.2293 24.8964 12.111V11.4863C24.8962 11.4074 24.8315 11.3594 24.7678 11.3593H24.7422V11.3022H24.7484C24.8052 11.3022 24.863 11.3078 24.9189 11.3078C24.963 11.3078 25.0057 11.3022 25.0559 11.3043L25.7074 12.038V11.4926C25.707 11.3746 25.628 11.3604 25.5847 11.3594H25.5457V11.3022H25.5524C25.6222 11.3022 25.6906 11.3079 25.7596 11.3079C25.8204 11.3079 25.8809 11.3022 25.9424 11.3022H25.9488V11.3594H25.92C25.859 11.3611 25.7959 11.3667 25.7946 11.5414V12.2162C25.7946 12.268 25.7957 12.3198 25.803 12.3651L25.8042 12.3723H25.7971V12.3723ZM25.7408 12.3593H25.7893C25.7828 12.3148 25.7817 12.2655 25.7817 12.2162V11.5413C25.7817 11.363 25.8565 11.3469 25.92 11.3464H25.936V11.315C25.8776 11.3154 25.8189 11.3208 25.7596 11.3208C25.6922 11.3208 25.6258 11.3154 25.5587 11.315V11.3464H25.5847C25.6307 11.3469 25.7201 11.3672 25.7201 11.4926L25.7185 12.053L25.7157 12.0561L25.711 12.0608L25.051 11.315C25.0073 11.315 24.964 11.3208 24.919 11.3208C24.8644 11.3208 24.8088 11.3154 24.7548 11.315V11.3464H24.7678C24.8375 11.3469 24.9091 11.3994 24.9091 11.4863V12.111C24.9091 12.2296 24.876 12.3055 24.7694 12.3059L24.7548 12.3058V12.3371C24.8191 12.3368 24.8852 12.3315 24.9504 12.3315C25.0122 12.3315 25.0735 12.3368 25.1351 12.3371V12.3059H25.116C24.9996 12.3058 24.9705 12.2547 24.9705 12.1257V11.4979L25.7408 12.3593ZM25.711 12.0514L25.7157 12.0472L25.711 12.0514ZM25.7075 12.0486V12.0481L25.7062 12.0469L25.7075 12.0486ZM26.1807 12.1317C26.1662 12.182 26.1482 12.2208 26.1482 12.2473C26.1482 12.2919 26.2106 12.2991 26.2593 12.2991H26.2758V12.3438C26.2165 12.3406 26.1556 12.3379 26.0963 12.3379C26.0427 12.3379 25.9895 12.3406 25.9364 12.3438V12.2991H25.9448C26.0029 12.2991 26.0521 12.265 26.074 12.2026L26.3115 11.5221C26.3306 11.4672 26.3575 11.3931 26.3661 11.3381C26.4136 11.3219 26.4728 11.2923 26.5013 11.2744C26.5055 11.2729 26.5085 11.2713 26.513 11.2713C26.5175 11.2713 26.5202 11.2713 26.5232 11.2759C26.5277 11.2877 26.5324 11.3011 26.5368 11.313L26.8095 12.0887C26.8273 12.1405 26.845 12.1953 26.8645 12.24C26.8823 12.2815 26.9136 12.2991 26.9623 12.2991H26.9714V12.3438C26.9045 12.3406 26.8378 12.338 26.7665 12.338C26.694 12.338 26.6198 12.3406 26.5441 12.3438V12.2991H26.5606C26.5944 12.2991 26.6526 12.2933 26.6526 12.2562C26.6526 12.237 26.6391 12.197 26.6226 12.1494L26.565 11.9773H26.2283L26.1807 12.1317ZM26.3975 11.4746H26.3945L26.2564 11.8943H26.5339L26.3975 11.4746Z" fill="white"/>
<path d="M26.9705 12.3497C26.9038 12.347 26.8372 12.3437 26.7663 12.3437C26.694 12.3437 26.6198 12.347 26.5441 12.3497L26.5375 12.3501V12.2923H26.56C26.5946 12.2923 26.6457 12.2843 26.6458 12.2558C26.6461 12.2389 26.6327 12.1985 26.6162 12.151L26.5598 11.9833H26.2325L26.1867 12.1331C26.1719 12.1839 26.1542 12.2229 26.1545 12.2468C26.1545 12.2832 26.21 12.2923 26.2591 12.2923H26.2817V12.3501L26.2751 12.3497C26.2158 12.347 26.1551 12.3437 26.0961 12.3437C26.0429 12.3437 25.9896 12.347 25.9362 12.3497L25.9297 12.3501V12.2923H25.9446C25.9999 12.2921 26.0462 12.2603 26.0678 12.2002L26.3051 11.5195C26.324 11.4645 26.3508 11.3906 26.3639 11.3317C26.4105 11.3155 26.47 11.2859 26.4988 11.2678C26.5027 11.2665 26.5068 11.2647 26.5128 11.2647C26.5167 11.2643 26.5243 11.2652 26.5291 11.2734C26.5335 11.285 26.5378 11.2985 26.5427 11.3105L26.8154 12.0861C26.8331 12.1382 26.8509 12.193 26.8701 12.2371C26.8875 12.2764 26.9146 12.2919 26.9619 12.2923H26.9773V12.3501L26.9705 12.3497ZM26.5503 12.3366C26.6236 12.3338 26.6958 12.3309 26.7663 12.3309C26.8353 12.3309 26.9 12.3338 26.9646 12.3364L26.9644 12.3054H26.9619C26.9117 12.3056 26.8766 12.2858 26.8582 12.2421C26.8387 12.1971 26.821 12.1421 26.8033 12.0903L26.5304 11.3146C26.526 11.3028 26.5215 11.2893 26.5179 11.2792C26.5166 11.2774 26.5168 11.2774 26.5156 11.2774H26.5128C26.5097 11.2774 26.5081 11.2784 26.5045 11.2794C26.4756 11.2976 26.4162 11.3272 26.3723 11.3387C26.3631 11.3948 26.3362 11.4687 26.3171 11.5238L26.0796 12.2045C26.0571 12.2688 26.0053 12.3056 25.9446 12.3054H25.9424V12.3364C25.9934 12.3338 26.0444 12.3309 26.0961 12.3309C26.1535 12.3309 26.212 12.3338 26.2691 12.3364V12.3054H26.259C26.2108 12.3048 26.1432 12.2996 26.1414 12.2468C26.1417 12.2174 26.1601 12.1797 26.1744 12.1294L26.1805 12.1314L26.1744 12.1292L26.2233 11.9706H26.5691L26.6285 12.1469C26.6449 12.1946 26.6583 12.234 26.6583 12.2558C26.6562 12.3013 26.594 12.3045 26.56 12.3054H26.5503V12.3366H26.5503ZM26.2473 11.9002L26.3895 11.4677H26.3973V11.4742L26.3957 11.4745L26.3973 11.4742V11.4677H26.4019L26.542 11.9002H26.2473ZM26.2651 11.8875H26.5245L26.3955 11.4902L26.2651 11.8875ZM26.3911 11.476L26.3941 11.4749L26.3911 11.476ZM27.3448 12.198C27.3448 12.2573 27.3859 12.275 27.4334 12.2811C27.4942 12.2856 27.5609 12.2856 27.6294 12.2781C27.6915 12.2706 27.745 12.235 27.7715 12.198C27.7952 12.1653 27.8086 12.1238 27.8175 12.0912H27.8605C27.8442 12.1757 27.8235 12.259 27.8056 12.3434C27.6754 12.3434 27.5446 12.3375 27.4143 12.3375C27.2836 12.3375 27.1533 12.3434 27.0229 12.3434V12.2987H27.0432C27.0969 12.2987 27.1549 12.2915 27.1549 12.1994V11.4373C27.1549 11.3599 27.0969 11.3526 27.0432 11.3526H27.0229V11.3081C27.1012 11.3081 27.1784 11.314 27.2569 11.314C27.3328 11.314 27.4068 11.3081 27.4825 11.3081V11.3526H27.4452C27.389 11.3526 27.3448 11.3543 27.3448 11.4326V12.198Z" fill="white"/>
<path d="M27.8049 12.3503C27.6742 12.3503 27.5438 12.3443 27.4137 12.3443C27.2831 12.3443 27.1526 12.3503 27.0219 12.3503H27.0156V12.2929H27.0426C27.0964 12.2917 27.1472 12.288 27.1478 12.2001V11.4376C27.1471 11.3655 27.0967 11.3606 27.0426 11.3596H27.0156V11.3024H27.0219C27.1008 11.3024 27.178 11.3081 27.2563 11.3081C27.3316 11.3081 27.4057 11.3024 27.4818 11.3024H27.4879V11.3596H27.4446C27.3872 11.3612 27.3514 11.3585 27.3502 11.4333V12.1987C27.3506 12.2539 27.3869 12.2688 27.4331 12.2753C27.4593 12.2771 27.4868 12.2782 27.5154 12.2782C27.5517 12.2782 27.5894 12.2765 27.6277 12.2724C27.6881 12.2653 27.7402 12.2304 27.7657 12.1951C27.7885 12.1634 27.8017 12.1227 27.8105 12.0903L27.8118 12.0853H27.8677L27.8663 12.0932C27.8496 12.178 27.8292 12.2609 27.8112 12.3453L27.81 12.3503H27.8049V12.3503ZM27.7996 12.3374C27.8168 12.2569 27.8362 12.1783 27.8521 12.0981H27.8217C27.8124 12.1304 27.7993 12.1701 27.7759 12.2025C27.7483 12.241 27.6934 12.2772 27.6291 12.2851C27.5902 12.2891 27.5518 12.2912 27.5154 12.2912C27.4867 12.2912 27.4588 12.2898 27.432 12.288C27.3838 12.2826 27.337 12.2621 27.3372 12.1986V11.4333C27.3372 11.3509 27.3893 11.3467 27.4446 11.3467H27.4753V11.3152C27.4022 11.3157 27.3302 11.3211 27.2563 11.3211C27.1795 11.3211 27.1045 11.3157 27.0284 11.3152V11.3467H27.0426C27.0955 11.3467 27.1603 11.356 27.1603 11.4376V12.2001C27.1603 12.296 27.0958 12.306 27.0426 12.306H27.0284V12.3373C27.1566 12.3372 27.2848 12.3317 27.4137 12.3317C27.5425 12.3317 27.6713 12.3372 27.7996 12.3374ZM27.8418 11.2666C27.9312 11.2666 27.9979 11.3353 27.9979 11.4233C27.9979 11.5109 27.9312 11.579 27.8418 11.579C27.7525 11.579 27.6856 11.5109 27.6856 11.4233C27.6856 11.3353 27.7525 11.2666 27.8418 11.2666ZM27.8418 11.5499C27.9117 11.5499 27.9653 11.4903 27.9653 11.4233C27.9653 11.356 27.9125 11.2958 27.8418 11.2958C27.7716 11.2958 27.7179 11.356 27.7179 11.4233C27.7179 11.4903 27.7716 11.5499 27.8418 11.5499ZM27.7641 11.5056V11.4979C27.7833 11.4952 27.7868 11.4958 27.7868 11.4839V11.3683C27.7868 11.3521 27.7851 11.3465 27.7648 11.3473V11.3394H27.8447C27.8723 11.3394 27.8975 11.3525 27.8975 11.3808C27.8975 11.4041 27.882 11.4213 27.8605 11.4279L27.8861 11.4637C27.8982 11.48 27.9116 11.4952 27.9206 11.5005V11.5056H27.8902C27.8756 11.5056 27.8628 11.4748 27.834 11.4336H27.8167V11.4855C27.8167 11.4958 27.8203 11.4952 27.8396 11.4979V11.5056H27.7641V11.5056ZM27.8167 11.4233H27.8352C27.8553 11.4233 27.8648 11.408 27.8648 11.3834C27.8648 11.3585 27.8502 11.3498 27.8341 11.3498H27.8167V11.4233Z" fill="white"/>
</svg>
