<svg width="35" height="22" viewBox="0 0 35 22" fill="none" xmlns="http://www.w3.org/2000/svg">
<rect width="35" height="22" rx="2" fill="#26337A"/>
<path fill-rule="evenodd" clip-rule="evenodd" d="M12.011 5C10.9121 5 10.011 5.89011 10.011 7V11.9341C10.5714 12.2088 11.1538 12.3846 11.7363 12.3846C12.4286 12.3846 12.8022 11.967 12.8022 11.3956V9.06593H14.5165V11.3846C14.5165 12.2857 13.956 13.022 12.0549 13.022C10.9011 13.022 10 12.7692 10 12.7692V16.978H12.9341C14.033 16.978 14.9341 16.0879 14.9341 14.978V5H12.011ZM23.0657 5C21.9668 5 21.0657 5.89011 21.0657 7V9.07692H23.8899C23.9558 9.07692 24.0327 9.07692 24.0877 9.08791C24.725 9.12088 25.1975 9.45055 25.1975 10.022C25.1975 10.4725 24.8789 10.8571 24.2855 10.9341V10.956C24.9338 11 25.4283 11.3626 25.4283 11.9231C25.4283 12.5275 24.8789 12.9231 24.1536 12.9231H21.0547V16.989H23.9888C25.0877 16.989 25.9888 16.0989 25.9888 14.989V5H23.0657ZM22.043 12.2854H23.1968C23.2133 12.2854 23.2408 12.2827 23.2682 12.2799L23.2682 12.2799C23.2957 12.2772 23.3232 12.2744 23.3397 12.2744C23.5595 12.2305 23.7463 12.0327 23.7463 11.7579C23.7463 11.4942 23.5595 11.2964 23.3397 11.2415C23.3067 11.2305 23.2408 11.2305 23.1968 11.2305H22.043V12.2854ZM23.1968 9.68091C23.4166 9.71388 23.6034 9.8897 23.6034 10.1534C23.6034 10.4172 23.4166 10.593 23.1968 10.626C23.1858 10.637 23.1199 10.637 23.0869 10.637H22.043V9.66992H23.0869C23.1051 9.66992 23.1299 9.67325 23.1522 9.67625C23.1704 9.67869 23.1869 9.68091 23.1968 9.68091ZM15.5391 7C15.5391 5.89011 16.4402 5 17.5391 5H20.4731V15C20.4731 16.1099 19.572 17 18.4731 17H15.5391V12.3846C16.0446 12.8132 16.9237 13.0879 18.3413 13.022C19.1105 12.989 19.9127 12.7802 19.9127 12.7802V11.9341C19.5061 12.1319 19.0226 12.3297 18.3962 12.3736C17.3193 12.4615 16.6709 11.9341 16.6709 11C16.6709 10.0769 17.3193 9.54945 18.3962 9.62637C19.0226 9.67033 19.5061 9.85714 19.9127 10.0659V9.21978C19.9127 9.21978 19.0995 9.01099 18.3413 8.97802C16.9237 8.91209 16.0446 9.18681 15.5391 9.61538V7Z" fill="white"/>
</svg>
