<svg width="35" height="22" viewBox="0 0 35 22" fill="none" xmlns="http://www.w3.org/2000/svg">
<rect width="35" height="22" rx="2" fill="#26337A"/>
<path fill-rule="evenodd" clip-rule="evenodd" d="M27.9134 6.85156C27.5649 6.85156 27.1804 7.04594 27.027 7.39513L25.3976 11.1302L24.8106 7.39513C24.7416 7.04591 24.5044 6.85156 24.1288 6.85156H22.0645L23.8302 13.0548C23.8627 13.1737 23.8688 13.3056 23.845 13.4443C23.7527 13.962 23.2581 14.382 22.7403 14.382H21.5843C21.2908 14.382 21.0974 14.5638 21.0029 14.9754L20.7461 16.5127H22.7819C23.844 16.5127 25.0913 15.9791 25.9233 14.5037L29.9996 6.85156H27.9134Z" fill="white"/>
<path fill-rule="evenodd" clip-rule="evenodd" d="M7.87466 5C8.4843 5 8.7789 5.24321 8.67162 5.85436L8.49597 6.84998H9.89665L9.588 8.59902H8.18669L7.80498 10.7646C7.67308 11.5191 8.41991 11.6196 8.84837 11.6196C8.93374 11.6196 9.00468 11.6177 9.05548 11.6147L8.71286 13.5651C8.6071 13.5764 8.49813 13.591 8.26744 13.591C7.20406 13.591 5.19248 13.3062 5.58801 11.0622L6.02112 8.59899H5L5.30734 6.84994H6.31848L6.64388 5H7.87462H7.87466Z" fill="white"/>
<path fill-rule="evenodd" clip-rule="evenodd" d="M19.6445 6.92969L19.2847 8.96889C19.7284 9.19555 20.0324 9.65586 20.0324 10.1875C20.0324 10.8885 19.5069 11.4629 18.8303 11.5455L18.4707 13.5843C18.5342 13.5883 18.5988 13.5905 18.6631 13.5905C20.5437 13.5905 22.0667 12.0664 22.0667 10.1876C22.0667 8.65139 21.0467 7.35161 19.6445 6.92972" fill="white"/>
<path fill-rule="evenodd" clip-rule="evenodd" d="M18.0433 11.4065C17.6 11.1812 17.2954 10.7187 17.2954 10.1877C17.2954 9.49115 17.822 8.91235 18.4983 8.83117L18.8575 6.79218C18.7936 6.78815 18.7286 6.78516 18.6646 6.78516C16.7856 6.78516 15.2617 8.31029 15.2617 10.1876C15.2617 11.7245 16.2822 13.0251 17.6843 13.447L18.0433 11.4065V11.4065Z" fill="white"/>
<path fill-rule="evenodd" clip-rule="evenodd" d="M10.7076 6.85162H11.9111C12.521 6.85162 12.8143 7.09528 12.7069 7.70662L12.5752 8.44625C13.0236 7.53605 13.9962 6.78516 14.994 6.78516C15.1248 6.78516 15.2508 6.81109 15.2508 6.81109L14.8619 9.01638C14.8619 9.01638 14.6873 8.97581 14.4147 8.97581C13.883 8.97581 12.9839 9.14447 12.4834 10.1435C12.364 10.3897 12.2723 10.6892 12.2087 11.0501L11.7733 13.5277H9.53125L10.7076 6.85166L10.7076 6.85162Z" fill="white"/>
</svg>
