<svg width="46" height="45" viewBox="0 0 46 45" fill="none" xmlns="http://www.w3.org/2000/svg">
<path d="M14.5488 34.8643C11.9191 34.8643 9.78741 36.9961 9.78741 39.6257C9.78741 42.2554 11.9192 44.3871 14.5488 44.3871C17.1785 44.3871 19.3102 42.2553 19.3102 39.6257C19.3103 36.9961 17.1785 34.8643 14.5488 34.8643ZM14.5488 42.271C13.0879 42.271 11.9036 41.0867 11.9036 39.6258C11.9036 38.1648 13.0879 36.9806 14.5488 36.9806C16.0097 36.9806 17.194 38.1648 17.194 39.6258C17.1941 41.0867 16.0097 42.271 14.5488 42.271Z" fill="white"/>
<path d="M34.6526 34.8643C32.0229 34.8643 29.8912 36.9961 29.8912 39.6257C29.8912 42.2554 32.023 44.3871 34.6526 44.3871C37.2822 44.3871 39.414 42.2553 39.414 39.6257C39.414 36.9961 37.2823 34.8643 34.6526 34.8643ZM34.6526 42.271C33.1917 42.271 32.0074 41.0867 32.0074 39.6258C32.0074 38.1648 33.1917 36.9806 34.6526 36.9806C36.1136 36.9806 37.2978 38.1648 37.2978 39.6258C37.2979 41.0867 36.1136 42.271 34.6526 42.271Z" fill="white"/>
<path d="M45.3923 7.08934C45.172 6.84863 44.8705 6.69795 44.5459 6.66606L10.1049 6.18992L9.15257 3.28012C8.4817 1.33495 6.66018 0.0217716 4.60272 0H1.0581C0.473709 0 0 0.473709 0 1.0581C0 1.64249 0.473709 2.1162 1.0581 2.1162H4.60272C5.75317 2.14162 6.7662 2.88033 7.14219 3.9679L13.8611 24.2305L13.3321 25.4472C12.7421 26.9688 12.9193 28.6814 13.8083 30.05C14.6887 31.3941 16.17 32.2237 17.7761 32.272H38.3562C38.9406 32.272 39.4143 31.7983 39.4143 31.2139C39.4143 30.6295 38.9406 30.1558 38.3562 30.1558H17.776C16.869 30.1331 16.0341 29.6559 15.554 28.886C15.0793 28.1256 14.9818 27.1887 15.2895 26.3466L15.7128 25.3943L37.9857 23.0664C40.4323 22.797 42.4448 21.0176 43.0117 18.6224L45.5512 7.98855C45.6657 7.68233 45.6049 7.33794 45.3923 7.08934ZM40.9484 18.1464C40.6049 19.6882 39.2959 20.8255 37.7213 20.9503L15.7128 23.2252L10.7926 8.30611L43.2233 8.78225L40.9484 18.1464Z" fill="white"/>
</svg>
