<svg width="881" height="300" viewBox="0 0 881 300" fill="none" xmlns="http://www.w3.org/2000/svg">
<g clip-path="url(#clip0_1278_9525)">
<path fill-rule="evenodd" clip-rule="evenodd" d="M778.207 208.433C778.207 208.433 801.063 204.184 803.221 189.95L809.841 192.684C809.841 192.684 806.014 197.681 805.839 198.097C805.664 198.513 803.709 202.42 802.778 203.565C801.847 204.711 802.677 204.194 800.187 205.745C797.698 207.297 796.831 208.036 794.517 208.867C792.203 209.699 794.48 209.643 790.442 210.604C786.404 211.565 786.606 211.26 784.735 211.463C782.863 211.666 780.826 211.463 780.826 211.463" fill="#735CFF"/>
<path d="M793.918 207.879C797.197 207.879 799.856 205.216 799.856 201.931C799.856 198.645 797.197 195.982 793.918 195.982C790.639 195.982 787.98 198.645 787.98 201.931C787.98 205.216 790.639 207.879 793.918 207.879Z" fill="#735CFF"/>
<path fill-rule="evenodd" clip-rule="evenodd" d="M587.355 203.316C587.355 203.316 614.406 208.341 616.702 206.503L613.355 213.957L594.021 212.83C594.021 212.83 586.967 211.417 586.691 210.604C586.414 209.791 583.648 209.052 583.233 207.621C582.818 206.189 587.355 203.307 587.355 203.307V203.316Z" fill="#735CFF"/>
<path d="M600.586 212.719C603.865 212.719 606.523 210.056 606.523 206.771C606.523 203.485 603.865 200.822 600.586 200.822C597.306 200.822 594.648 203.485 594.648 206.771C594.648 210.056 597.306 212.719 600.586 212.719Z" fill="#735CFF"/>
<path fill-rule="evenodd" clip-rule="evenodd" d="M470.843 169.222L493.588 174.506L489.956 180.002L467.164 174.617" fill="#735CFF"/>
<path d="M485.983 175.839C486.948 171.984 485.36 168.264 482.436 167.529C479.512 166.794 476.359 169.324 475.394 173.178C474.429 177.033 476.017 180.753 478.941 181.488C481.865 182.223 485.018 179.694 485.983 175.839Z" fill="#735CFF"/>
<path fill-rule="evenodd" clip-rule="evenodd" d="M217.793 210.096C219.794 210.493 254.507 226.15 254.507 226.15C254.507 226.15 245.656 244.227 244.549 244.264C243.443 244.301 214.953 231.258 211.911 230.787C208.868 230.316 209.145 219.361 209.145 219.361L217.793 210.096Z" fill="#735CFF"/>
<path d="M233.135 229.337C238.94 229.337 243.645 224.622 243.645 218.807C243.645 212.991 238.94 208.276 233.135 208.276C227.33 208.276 222.624 212.991 222.624 218.807C222.624 224.622 227.33 229.337 233.135 229.337Z" fill="#735CFF"/>
<path fill-rule="evenodd" clip-rule="evenodd" d="M121.233 164.982L112.382 158.11C115.627 152.753 114.677 154.388 114.677 152.67C114.677 145.834 109.145 140.292 102.323 140.292C99.4921 140.292 98.2013 137.983 92.863 144.513L85.5977 140.43L83.4126 146.481L92.0701 153.732C93.5729 157.759 97.1042 160.789 101.428 161.565L115.876 173.665L121.233 164.982Z" fill="#735CFF"/>
<path fill-rule="evenodd" clip-rule="evenodd" d="M164.705 0H166.816C167.166 3.71328 165.47 7.55588 164.705 11.1029C164.022 14.2343 164.677 19.2961 161.007 20.0905C160.546 13.7724 163.838 6.74303 164.705 0Z" fill="#231F20"/>
<path fill-rule="evenodd" clip-rule="evenodd" d="M441.284 3.17749C444.806 4.42449 446.456 14.1511 443.395 16.9222C440.556 14.9916 440.131 5.66225 441.284 3.17749Z" fill="#231F20"/>
<path fill-rule="evenodd" clip-rule="evenodd" d="M422.807 7.40808C427.454 8.49805 429.565 17.4025 427.03 22.215C425.186 18.0307 422.798 11.7125 422.807 7.40808Z" fill="#231F20"/>
<path fill-rule="evenodd" clip-rule="evenodd" d="M129.337 8.46106C133.209 10.7518 136.132 16.8113 135.671 21.6792C133.449 20.4784 129.65 11.9065 129.337 8.46106Z" fill="#231F20"/>
<path fill-rule="evenodd" clip-rule="evenodd" d="M102.94 13.2181C107.643 16.2664 111.662 19.9889 114.023 25.3833C109.321 22.6584 103.872 17.966 102.94 13.2181Z" fill="#231F20"/>
<path fill-rule="evenodd" clip-rule="evenodd" d="M199.012 19.564C200.312 22.4367 196.578 25.1893 194.789 27.4986C193.213 29.5307 191.461 34.1307 188.455 32.7914C191.627 28.0343 194.715 23.1941 199.012 19.5732V19.564Z" fill="#231F20"/>
<path fill-rule="evenodd" clip-rule="evenodd" d="M642.379 40.7168C638.959 40.5782 640.277 36.0521 639.743 33.8444C638.95 30.6115 637.133 27.9697 636.571 25.3833C636.276 24.2102 637.576 24.6351 637.631 23.7946C641.835 26.2701 643.928 35.9505 642.379 40.7168Z" fill="#231F20"/>
<path fill-rule="evenodd" clip-rule="evenodd" d="M162.593 35.4332C165.682 33.0962 172.053 35.8765 172.09 41.2525C173.298 41.9822 174.883 42.3332 176.313 42.8413C178.581 45.012 183.255 55.4406 176.838 56.5859C178.037 51.1361 177.133 43.922 172.615 44.4208C170.532 44.7903 171.804 48.5405 169.444 48.6513C165.728 47.3027 172.68 38.9617 167.332 37.0219C163.893 37.5484 162.907 38.8232 160.473 38.6107C159.532 36.5508 159.984 33.1054 158.887 31.2026C153.936 28.995 153.069 34.685 149.39 35.4332C146.975 27.0921 164.124 24.8106 162.584 35.4332H162.593Z" fill="#231F20"/>
<path fill-rule="evenodd" clip-rule="evenodd" d="M94.5041 42.8321C88.4005 44.6333 83.9196 35.8766 77.0876 34.8975V33.3087C83.809 33.4842 88.4466 40.2365 94.5041 42.8228V42.8321Z" fill="#231F20"/>
<path fill-rule="evenodd" clip-rule="evenodd" d="M390.086 33.318C394.216 34.6481 396.392 40.7353 395.894 44.9474C392.575 42.7582 389.772 37.4008 390.086 33.318Z" fill="#231F20"/>
<path fill-rule="evenodd" clip-rule="evenodd" d="M480.339 37.0128C477.887 40.1903 478.394 46.3421 473.479 47.0626C474.862 43.0168 475.683 36.0706 480.339 37.0128Z" fill="#231F20"/>
<path fill-rule="evenodd" clip-rule="evenodd" d="M146.753 37.0127C147.491 41.6497 143.637 45.2336 141.48 49.1779C136.565 58.1285 132.61 67.8736 128.286 77.203C126.009 82.1263 124.312 89.0633 118.789 90.9477C119.25 84.6111 125.667 81.7568 124.598 75.6142C127.982 73.1849 129.429 68.825 130.932 64.5113C124.008 66.4049 119.075 73.0463 112.99 74.0347C116.613 66.7374 125.271 64.4836 132.518 60.8165C137.745 53.3622 139.193 42.1208 146.772 37.0219L146.753 37.0127Z" fill="#231F20"/>
<path fill-rule="evenodd" clip-rule="evenodd" d="M685.141 37.5485C685.584 41.2433 683.897 47.1642 680.393 48.6514C679.831 44.8365 680.863 38.2505 685.141 37.5485Z" fill="#231F20"/>
<path fill-rule="evenodd" clip-rule="evenodd" d="M289.266 38.6016C290.215 38.5369 290.381 39.2482 291.377 39.1281C290.151 46.0097 289.026 52.9929 283.457 55.5238C283.107 49.6675 287.652 44.2454 289.266 38.6016Z" fill="#231F20"/>
<path fill-rule="evenodd" clip-rule="evenodd" d="M161.007 40.1903C159.91 47.9402 155.715 55.8378 152.562 63.4584C151.004 67.2271 148.846 70.8665 147.279 74.5613C145.831 77.979 145.444 83.1609 141.47 84.6111C146.846 68.0861 153.733 55.7455 159.412 40.1903H160.998H161.007Z" fill="#231F20"/>
<path fill-rule="evenodd" clip-rule="evenodd" d="M431.262 43.3679C438.49 51.4595 433.843 71.4484 436.545 84.0847C442.897 76.1685 438.85 57.8423 445.516 50.2402C446.76 50.933 449.167 50.4619 450.264 51.3025C451.896 53.6672 451.324 58.5166 451.324 62.9319C451.324 66.7283 452.514 72.1966 449.738 73.5083C446.309 70.4324 450.467 59.3479 448.153 53.9443C443.045 57.2881 443.478 66.1833 442.869 74.0348C444.252 75.291 448.411 73.7762 448.153 76.6766C447.424 80.316 444.077 76.0023 442.344 77.7388C439.513 81.0734 440.657 88.3891 435.484 89.3683C430.349 78.2931 437.024 55.3852 430.201 46.0097C424.983 49.3997 427.989 60.8351 425.979 66.1002C421.304 60.9459 424.476 47.0812 428.09 43.3586H431.252L431.262 43.3679Z" fill="#231F20"/>
<path fill-rule="evenodd" clip-rule="evenodd" d="M613.355 43.8943C617.744 45.714 622.842 49.4919 622.326 54.4707C617.781 53.2052 616.545 48.6329 612.83 46.5361C612.664 45.3076 612.913 44.5039 613.355 43.8943Z" fill="#231F20"/>
<path fill-rule="evenodd" clip-rule="evenodd" d="M247.039 45.4832C250.865 47.6169 256.24 57.7684 251.787 61.3431C250.597 56.1519 245.729 49.7229 247.039 45.4832Z" fill="#231F20"/>
<path fill-rule="evenodd" clip-rule="evenodd" d="M312.491 46.0096C312.472 49.0948 309.632 51.404 308.268 53.9442C307.115 56.0687 306.94 60.7704 302.985 60.29C302.432 54.5723 307.973 50.5173 309.845 45.4831C311.071 45.3168 311.873 45.5662 312.481 46.0096H312.491Z" fill="#231F20"/>
<path fill-rule="evenodd" clip-rule="evenodd" d="M498.816 48.1249C496.714 51.7274 493.348 58.8676 487.733 55.533C493.348 55.3021 493.874 47.2936 498.816 48.1249Z" fill="#231F20"/>
<path fill-rule="evenodd" clip-rule="evenodd" d="M221.702 50.2401C218.051 55.0526 212.335 57.7775 206.397 60.29C206.296 56.7707 210.915 55.4406 213.257 53.9442C215.792 52.3184 218.77 49.261 221.702 50.2401Z" fill="#231F20"/>
<path fill-rule="evenodd" clip-rule="evenodd" d="M168.918 51.8197C162.501 67.772 153.77 81.4151 148.865 98.8823C144.605 97.1919 147.841 93.377 148.865 90.9477C150.054 88.1397 151.944 84.7589 153.088 81.9601C157.384 71.3837 161.782 58.535 167.342 51.2932C168.199 51.1454 168.254 51.792 168.927 51.8197H168.918Z" fill="#231F20"/>
<path fill-rule="evenodd" clip-rule="evenodd" d="M151.511 133.789C158.361 131.563 166.558 128.515 173.676 124.801C179.355 121.836 185.837 119.416 189.506 114.751C189.811 112.156 187.358 112.322 186.335 111.047C186.261 109.56 187.625 109.523 188.972 109.459C187.939 104.896 198.247 101.635 192.669 95.7047C190.419 95.8525 188.483 99.1132 186.86 96.767C188.28 92.7212 194.992 93.9866 193.72 87.2436C191.442 86.0336 190.106 84.685 187.911 84.6018C191.304 78.4962 192.825 72.9078 182.103 74.0254C179.761 78.7271 177.751 83.7705 175.769 88.8324C180.111 88.6107 183.218 82.6805 186.851 85.1283C183.873 90.3842 176.266 89.5806 172.597 94.116C170.412 96.8132 170.79 100.028 168.374 103.104C173.528 103.15 178.184 98.1248 184.74 97.82C185.035 102.337 179.106 102.032 176.294 103.104C172.8 104.443 169.61 106.143 166.788 107.334C165.322 107.63 165.313 109.376 164.677 110.512C163.626 110.512 164.004 109.071 162.566 109.449C166.383 97.9309 175.354 86.6986 179.457 72.9632C179.696 72.1596 179.272 71.1435 179.457 70.3214C181.891 68.1599 184.472 62.6639 181.568 59.745C179.503 58.8213 178.701 61.0474 176.82 59.2185C171.546 75.7897 161.653 87.7424 156.766 104.702C155.356 104.351 154.756 103.187 153.595 102.586C160.786 88.1119 168.439 74.0993 174.183 58.1655C177.456 59.5972 177.207 56.9092 179.466 57.1032C187.091 57.759 184.555 67.4117 182.637 71.9102C190.677 68.437 197.445 77.6556 191.083 82.4866C195.942 83.2902 197.767 89.9039 194.255 93.5895C198.865 98.8084 194.854 107.833 189.506 109.449C195.425 121.014 177.944 125.365 169.453 129.54C162.095 133.161 154.646 135.867 149.4 138.001C143.729 145.742 137.239 155.385 127.76 157.565C127.797 153.408 132.343 152.919 134.62 151.219C143.517 144.587 150.22 130.621 156.259 120.017C157.633 117.606 157.882 113.532 161.008 112.618C163.967 114.086 160.104 117.162 159.947 118.964C168.946 115.638 177.142 111.519 185.809 107.861C185.911 108.295 186.335 108.387 186.335 108.923C186.399 109.874 185.689 110.041 185.809 111.038C173.565 117.809 155.365 118.613 151.502 133.78L151.511 133.789Z" fill="#231F20"/>
<path fill-rule="evenodd" clip-rule="evenodd" d="M78.1388 68.2154C72.109 70.109 67.287 61.8788 60.1969 61.3431C59.9203 60.9181 59.6437 60.484 59.6713 59.7543C66.6139 59.7081 71.7126 65.9985 78.1481 68.2154H78.1388Z" fill="#231F20"/>
<path fill-rule="evenodd" clip-rule="evenodd" d="M671.413 60.8166C673.414 65.2503 672.39 72.603 670.353 76.15C672.003 76.8336 673.34 75.3556 676.161 76.15C679.195 78.6717 679.231 88.0381 674.05 88.3152C671.21 86.0613 676.761 82.9947 674.575 79.8541C662.119 82.893 659.077 99.9261 647.653 105.764C646.74 102.263 650.29 99.2888 652.401 96.7763C659.243 88.6477 671.699 75.9006 668.232 62.9318C665.079 64.8809 662.165 67.0793 661.898 71.9195C653.628 84.6204 642.149 96.3606 633.399 109.468C630.753 113.431 629.462 119.906 623.903 120.571C624.954 116.313 628.227 112.581 630.762 108.941C638.249 98.1896 647.22 86.9758 655.048 76.1593C653.545 72.3444 656.394 70.2568 656.633 66.6359C650.843 65.666 646.123 71.744 646.602 77.2123C638.738 86.1352 630.495 95.012 623.903 105.773C621.948 108.969 620.39 113.588 616.508 115.297C615.642 111.362 618.878 107.75 620.731 104.72C624.53 98.5313 628.937 93.063 633.925 86.7449C637.723 81.9324 642.398 79.2259 640.259 71.9379C632.901 72.8524 632.293 80.5284 628.116 84.6296C622.363 81.175 639.217 59.976 643.421 71.9379C646.031 68.0861 655.767 56.5491 659.252 66.6451C662.654 63.8648 665.678 56.5675 671.395 60.8258L671.413 60.8166Z" fill="#231F20"/>
<path fill-rule="evenodd" clip-rule="evenodd" d="M354.192 64.5206C352.348 69.3793 346.217 71.3653 342.575 74.5705C340.63 76.2793 339.422 80.1958 336.241 78.801C337.302 71.6885 346.826 68.6496 351.546 63.4676C353.234 63.015 353.178 64.2989 354.183 64.5299L354.192 64.5206Z" fill="#231F20"/>
<path fill-rule="evenodd" clip-rule="evenodd" d="M466.094 64.5206C467.099 69.1761 466.509 73.9794 465.034 78.2653C463.513 82.7176 461.392 88.3706 458.174 89.8947C457.28 82.0895 464.177 77.6003 463.457 68.2154C461.964 66.9315 462.047 71.707 459.235 70.8572C456.432 67.5411 461.835 62.4331 466.094 64.5114V64.5206Z" fill="#231F20"/>
<path fill-rule="evenodd" clip-rule="evenodd" d="M585.907 65.0471C589.079 65.5736 591.006 67.3379 591.716 70.3399C589.42 71.1805 584.22 68.2062 585.907 65.0471Z" fill="#231F20"/>
<path fill-rule="evenodd" clip-rule="evenodd" d="M418.584 89.3682C412.942 85.1469 413.827 74.395 406.442 71.9195C399.204 74.9307 408.608 80.8332 406.967 84.6111C399.167 84.565 397.591 65.1949 408.553 69.2777C413.744 71.2082 419.156 83.3272 418.584 89.3682Z" fill="#231F20"/>
<path fill-rule="evenodd" clip-rule="evenodd" d="M598.05 70.8572C600.447 72.5106 604.319 72.6861 604.91 76.15C601.636 77.6464 596.132 74.5705 598.05 70.8572Z" fill="#231F20"/>
<path fill-rule="evenodd" clip-rule="evenodd" d="M460.286 71.3929C457.953 78.9765 454.883 90.2641 448.143 95.1875C446.631 95.2891 445.267 95.2521 445.506 93.5987C444.16 96.5176 437.78 94.1622 440.223 90.4212C442.399 90.7075 443.496 92.0746 444.972 93.063C446.069 88.1673 444.465 80.5745 449.72 79.8448C451.278 84.491 446.982 87.6131 447.609 93.063C455.086 89.091 452.2 74.7459 460.277 71.3837L460.286 71.3929Z" fill="#231F20"/>
<path fill-rule="evenodd" clip-rule="evenodd" d="M422.807 73.5082H424.393C426.144 78.6809 425.554 89.9963 421.221 92.5457C420.373 88.7585 423.01 80.0849 422.807 73.5082Z" fill="#231F20"/>
<path fill-rule="evenodd" clip-rule="evenodd" d="M364.215 76.6765C364.085 81.5351 358.839 83.2347 355.769 85.1376C352.312 87.2806 349.14 90.3195 345.212 91.4834C345.129 82.9207 358.157 82.9576 361.578 76.15C362.804 75.9837 363.606 76.2331 364.215 76.6765Z" fill="#231F20"/>
<path fill-rule="evenodd" clip-rule="evenodd" d="M121.417 81.4336C118.706 84.8883 114.207 86.5417 113.497 92.01C112.879 94.3932 116.448 92.5827 115.608 95.1875C108.684 103.732 101.235 83.4842 109.274 80.3806C109.625 83.6597 107.283 91.5204 110.86 94.1253C111.589 87.0959 114.862 82.616 119.831 79.8448C120.587 80.1404 121.122 80.6669 121.417 81.4336Z" fill="#231F20"/>
<path fill-rule="evenodd" clip-rule="evenodd" d="M509.373 81.4336C510.239 89.6822 509.907 100.887 504.09 104.175C503.592 99.3903 506.939 94.0329 506.726 87.7794C504.265 89.8393 502.734 93.1923 500.918 96.2405C499.332 98.91 498.724 103.464 495.109 104.175C496.391 95.9172 502.126 87.6039 506.717 80.9071C508.211 80.4729 508.082 81.6553 509.354 81.4336H509.373Z" fill="#231F20"/>
<path fill-rule="evenodd" clip-rule="evenodd" d="M553.176 81.9694C555.067 90.569 550.032 95.1968 545.791 99.9446C544.205 101.718 541.891 104.452 539.457 104.175C539.9 96.7948 549.903 94.5964 551.065 86.1999C540.914 90.4859 536.783 100.794 527.315 105.764C525.968 107.408 524.982 109.422 522.566 109.994C520.621 104.997 529.002 100.721 532.598 97.3028C538.996 91.2249 542.841 83.5304 553.186 81.9694H553.176Z" fill="#231F20"/>
<path fill-rule="evenodd" clip-rule="evenodd" d="M570.602 85.6734C570.657 96.1851 561.696 101.681 554.772 107.879C551.84 110.503 550.567 114.17 546.852 115.278C547.303 107.362 556.145 104.351 561.106 98.8824C563.89 95.8157 565.393 92.4349 567.44 88.8325C560.304 91.8992 555.435 99.5567 549.498 104.692C546.437 107.343 541.642 112.211 536.83 110.512C538.047 107.214 541.117 107.113 543.689 105.219C551.535 99.4366 557.316 90.2365 565.328 85.1284C566.057 84.6666 568.952 85.2393 570.611 85.6549L570.602 85.6734Z" fill="#231F20"/>
<path fill-rule="evenodd" clip-rule="evenodd" d="M139.368 86.1907H141.48C141.397 86.8096 141.59 87.1329 142.005 87.2529C142.328 89.3682 138.566 90.1164 140.419 92.01C139.322 93.0723 137.331 90.5506 136.722 89.3682C138.658 91.0493 138.013 86.7541 139.359 86.1907H139.368Z" fill="#231F20"/>
<path fill-rule="evenodd" clip-rule="evenodd" d="M95.0298 86.7264C94.1078 95.3908 88.0318 107.999 89.7467 120.044C90.2446 123.573 92.817 125.624 92.3836 129.032C87.9396 127.711 87.3404 121.07 87.1006 116.867C86.5382 106.697 90.4382 94.3285 92.9092 86.7264H95.0205H95.0298Z" fill="#231F20"/>
<path fill-rule="evenodd" clip-rule="evenodd" d="M372.669 87.7795C371.415 91.9823 365.902 93.8944 362.112 96.2406C358.507 98.4667 354.699 102.845 351.03 101.533C354.865 93.9221 364.841 92.4626 370.558 86.7264C371.341 87.0036 371.885 87.5116 372.669 87.7887V87.7795Z" fill="#231F20"/>
<path fill-rule="evenodd" clip-rule="evenodd" d="M623.386 87.2529C624.926 91.659 620.252 94.1899 618.103 96.7763C609.787 106.826 602.457 119.952 598.05 134.851C597.257 128.09 600.217 121.495 602.798 115.814C607.546 105.357 616.195 96.6008 621.275 87.2529H623.386Z" fill="#231F20"/>
<path fill-rule="evenodd" clip-rule="evenodd" d="M408.553 88.3059C407.649 95.5108 407.548 103.519 403.805 107.87C400.559 105.921 404.284 101.386 404.865 97.82C405.418 94.3931 404.238 90.6614 405.391 87.7702C406.691 87.6963 407.935 87.687 408.562 88.2967L408.553 88.3059Z" fill="#231F20"/>
<path fill-rule="evenodd" clip-rule="evenodd" d="M431.778 93.0722C430.699 93.8851 427.057 93.8851 425.969 93.0722V90.4304C428.394 89.7838 432.423 89.2296 431.778 93.0722Z" fill="#231F20"/>
<path fill-rule="evenodd" clip-rule="evenodd" d="M474.54 92.01C471.553 103.658 463.541 110.253 455.538 116.867C455.455 116.248 454.579 116.423 453.952 116.34C452.302 114.825 453.214 110.733 451.841 108.932C450.734 107.584 447.47 108.378 446.558 106.817C449.683 101.404 456.109 108.609 456.589 112.627C462.757 107.528 467.911 101.413 471.894 94.116C463.209 94.4116 462.019 102.208 454.478 103.639C452.79 100.61 453.749 92.3241 458.175 92.0008C459.844 94.7719 456.709 96.7209 456.589 99.4089C461.309 98.3558 466.777 88.2967 474.531 92.0008L474.54 92.01Z" fill="#231F20"/>
<path fill-rule="evenodd" clip-rule="evenodd" d="M226.985 96.2405C223.915 96.7393 218.245 95.5569 214.843 94.6517V93.063C218.014 92.9706 225.556 92.8413 226.985 96.2405Z" fill="#231F20"/>
<path fill-rule="evenodd" clip-rule="evenodd" d="M582.745 94.1253C577.877 112.525 561.198 119.074 551.074 132.2C563.051 131.757 568.666 119.647 579.582 121.624C577.997 130.362 570.141 134.159 563.217 138.546C559.981 140.588 556.855 145.031 552.66 143.303C559.068 136.329 570.086 133.974 574.825 125.328C566.665 126.667 558.275 137.77 547.903 133.789C546.557 128.764 551.877 127.12 554.762 124.801C563.328 117.901 571.764 108.6 577.987 98.8916C567.864 100.24 562.839 109.736 556.348 115.287C553.398 117.809 548.963 122.28 544.206 120.571C546.833 116.109 551.001 115.768 555.288 112.11C558.635 109.256 561.548 104.813 565.319 101.533C570.141 97.3398 575.47 91.2895 582.736 94.1345L582.745 94.1253Z" fill="#231F20"/>
<path fill-rule="evenodd" clip-rule="evenodd" d="M596.464 100.471C593.56 101.635 589.374 99.9262 586.968 98.8824C586.866 94.3285 596.335 97.1366 596.464 100.471Z" fill="#231F20"/>
<path fill-rule="evenodd" clip-rule="evenodd" d="M420.695 101.533C426.522 102.078 424.531 113.153 424.918 117.393C420.889 117.329 422.761 111.546 422.281 108.406C421.783 105.182 419.903 103.279 420.695 101.533Z" fill="#231F20"/>
<path fill-rule="evenodd" clip-rule="evenodd" d="M647.663 106.29C648.704 109.958 644.933 113.237 642.914 115.814C640.729 118.594 638.627 122.307 635.52 123.748C635.004 115.971 643.403 112.627 646.077 106.3H647.663V106.29Z" fill="#231F20"/>
<path fill-rule="evenodd" clip-rule="evenodd" d="M494.068 106.817C495.497 110.198 491.606 112.895 489.845 115.278C488.176 117.523 486.673 121.929 482.985 121.624C485.263 115.269 487.964 109.339 494.068 106.817Z" fill="#231F20"/>
<path fill-rule="evenodd" clip-rule="evenodd" d="M504.09 109.459C504.615 112.812 502.135 113.144 501.979 115.805C507.925 117.837 511.65 110.392 516.758 111.574C516.832 114.594 505.252 120.294 501.453 118.982C497.157 117.486 498.503 108.221 504.09 109.459Z" fill="#231F20"/>
<path fill-rule="evenodd" clip-rule="evenodd" d="M690.415 114.752C695.191 122.991 689.77 132.902 686.192 140.135C680.19 139.765 676.806 143.026 672.473 145.428C670.417 138.592 680.144 134.916 680.393 126.917C672.252 127.046 671.606 134.685 664.562 135.904C663.124 130.769 669.726 129.078 672.482 125.854C676.926 120.663 680.78 112.359 690.424 114.752H690.415ZM678.272 122.686C683.233 122.187 686.653 120.155 689.355 117.393C685.031 116.627 680.522 119.666 678.272 122.686ZM683.021 124.801C683.638 124.894 683.592 125.633 683.546 126.39C686.497 125.55 691.835 124.598 689.88 120.571C687.87 120.155 683.85 122.28 683.021 124.801ZM683.021 129.032C683.436 130.861 682.431 131.267 681.96 132.21C685.261 131.286 688.663 130.464 689.355 126.917C686.81 127.185 686.109 129.3 683.021 129.032ZM678.798 139.608C680.688 137.724 687.695 135.581 685.658 133.263C683.094 134.759 677.728 136.237 678.798 139.608Z" fill="#231F20"/>
<path fill-rule="evenodd" clip-rule="evenodd" d="M531.012 116.867C531.832 122.446 528.854 124.22 525.203 125.328C523.276 122.455 526.909 121.227 528.901 120.571C528.901 118.807 527.186 118.77 527.315 116.867C528.762 115.832 529.564 115.832 531.012 116.867Z" fill="#231F20"/>
<path fill-rule="evenodd" clip-rule="evenodd" d="M482.976 123.213C481.077 127.471 482.202 134.777 480.339 139.073C474.577 138.01 478.486 123.878 480.865 122.677C481.815 122.612 481.981 123.323 482.976 123.203V123.213Z" fill="#231F20"/>
<path fill-rule="evenodd" clip-rule="evenodd" d="M539.457 122.686C541.615 126.39 534.663 132.912 533.123 127.979C534.405 127.148 536.258 126.889 537.346 125.864C537.558 124.589 536.378 124.718 536.82 123.222C537.429 122.778 538.231 122.52 539.457 122.695V122.686Z" fill="#231F20"/>
<path fill-rule="evenodd" clip-rule="evenodd" d="M208.508 126.917C211.745 129.845 216.373 131.378 218.54 135.378C213.791 134.417 206.895 130.815 208.508 126.917Z" fill="#231F20"/>
<path fill-rule="evenodd" clip-rule="evenodd" d="M425.444 129.558H427.555C428.025 133.752 426.725 140.218 422.272 141.188C421.249 137.087 425.554 134.426 425.444 129.558Z" fill="#231F20"/>
<path fill-rule="evenodd" clip-rule="evenodd" d="M541.043 130.085C542.343 130.02 543.588 130.002 544.215 130.611C545.22 135.812 537.586 139.738 534.718 135.895C535.594 133.946 539.955 135.498 541.052 133.78C540.942 131.849 540.324 131.748 541.052 130.076L541.043 130.085Z" fill="#231F20"/>
<path fill-rule="evenodd" clip-rule="evenodd" d="M370.023 132.2C369.995 135.96 358.544 136.237 358.406 133.263C360.296 129.9 367.672 131.397 370.023 132.2Z" fill="#231F20"/>
<path fill-rule="evenodd" clip-rule="evenodd" d="M542.629 140.661C545.404 145.723 538.047 147.063 534.184 145.418C534.755 141.585 540.398 142.823 542.629 140.661Z" fill="#231F20"/>
<path fill-rule="evenodd" clip-rule="evenodd" d="M681.444 142.25C681.914 142.481 682.394 142.712 682.504 143.312C680.209 146.527 674.077 148.55 670.887 149.132C672.243 144.67 678.779 145.4 681.444 142.259V142.25Z" fill="#231F20"/>
<path fill-rule="evenodd" clip-rule="evenodd" d="M193.729 158.646C189.995 154.101 185.929 149.889 183.698 143.839C187.533 145.871 193.554 152.937 193.729 158.646Z" fill="#231F20"/>
<path fill-rule="evenodd" clip-rule="evenodd" d="M367.386 145.954C368.271 150.268 357.927 150.702 357.89 147.543C358.452 144.643 364.805 145.104 367.386 145.954Z" fill="#231F20"/>
<path fill-rule="evenodd" clip-rule="evenodd" d="M550.54 147.534C547.414 154.849 534.202 157.547 526.254 156.521C529.417 151.875 540.361 153.759 544.731 149.649C545.837 148.993 546.713 148.106 547.368 147.007C548.668 146.943 549.913 146.924 550.54 147.534Z" fill="#231F20"/>
<path fill-rule="evenodd" clip-rule="evenodd" d="M324.108 166.571C319.452 164.327 313.127 164.576 309.328 164.982C309.78 160.798 315.561 157.51 317.774 153.344C318.65 152.106 317.488 148.827 319.885 149.113C322.125 149.012 320.484 152.429 320.41 153.344C324.172 151.737 329.99 149.667 333.604 152.282C337.228 167.994 321.443 170.109 309.319 167.615C309.042 167.19 308.766 166.756 308.793 166.026C312.491 165.583 318.594 167.079 324.098 166.553L324.108 166.571ZM319.359 158.11C324.163 156.817 328.524 158.323 332.028 155.995C331.244 155.893 331.548 154.72 331.502 153.88C326.874 153.187 321.812 155.025 319.359 158.11ZM315.137 160.752C320.06 159.865 328.625 162.636 330.967 159.163C329.428 156.013 319.175 161.851 317.248 158.101C316.455 158.895 315.671 159.69 315.137 160.743V160.752ZM315.137 162.867C316.455 163.44 327.021 166.525 328.33 162.341C324.062 162.645 318.539 161.694 315.137 162.867Z" fill="#231F20"/>
<path fill-rule="evenodd" clip-rule="evenodd" d="M160.482 151.764H162.068C162.741 159.376 166.752 166.46 166.816 172.917C164.115 171.938 162.934 167.246 162.068 163.929C161.22 160.66 161.081 157.685 160.482 153.353C159.542 152.965 160.408 152.392 160.482 151.764Z" fill="#231F20"/>
<path fill-rule="evenodd" clip-rule="evenodd" d="M142.531 157.057H144.116C144.743 163.366 146.56 172.557 143.591 177.148C141.009 171.716 144.061 163.726 142.531 157.057Z" fill="#231F20"/>
<path fill-rule="evenodd" clip-rule="evenodd" d="M222.237 169.749H223.823C224.966 174.441 223.869 178.284 223.823 181.914C218.586 181.923 221.97 172.492 222.237 169.749Z" fill="#231F20"/>
<path fill-rule="evenodd" clip-rule="evenodd" d="M204.286 173.453C202.552 178.764 197.472 180.732 192.143 182.44C191.645 177.203 199.999 173.878 204.286 173.453Z" fill="#231F20"/>
<path fill-rule="evenodd" clip-rule="evenodd" d="M356.829 186.144C354.451 185.71 354.948 182.385 353.132 181.387C350.753 179.891 346.549 180.223 346.272 176.63C349.767 172.954 361.78 181.378 356.829 186.154V186.144Z" fill="#231F20"/>
<path fill-rule="evenodd" clip-rule="evenodd" d="M394.834 183.493C393.515 182.099 391.026 184.611 390.611 181.905C391.146 179.438 393.857 179.161 396.945 179.263C398.181 180.14 398.088 182.348 398.006 184.556C395.618 188.112 385.826 187.973 387.974 181.914C391.035 181.489 391.515 185.877 394.834 183.503V183.493Z" fill="#231F20"/>
<path fill-rule="evenodd" clip-rule="evenodd" d="M419.645 180.852C420.391 182.45 419.414 183.687 419.119 185.609C416.713 186.255 413.255 187.567 411.199 185.609V184.02C412.296 181.701 415.929 178.441 419.645 180.842V180.852ZM413.845 184.556C415.625 184.888 418.474 183.595 417.017 182.44C416.916 184.094 413.569 182.505 413.845 184.556Z" fill="#231F20"/>
<path fill-rule="evenodd" clip-rule="evenodd" d="M223.288 188.26C223.362 194.633 221.656 207.916 215.368 212.59C216.106 205.367 219.978 196.776 221.177 188.26H223.288Z" fill="#231F20"/>
<path fill-rule="evenodd" clip-rule="evenodd" d="M456.063 190.375C460.378 194.125 454.938 199.945 449.729 197.247C449.471 196.047 448.678 194.55 449.729 193.543C451.997 193.035 450.651 196.139 452.366 196.185C454.524 196.407 455.694 195.64 455.538 193.543C454.302 192.306 450.292 193.867 451.315 190.366C452.486 189.257 453.86 190.92 456.063 190.366V190.375Z" fill="#231F20"/>
<path fill-rule="evenodd" clip-rule="evenodd" d="M474.54 190.902C478.366 194.338 474.383 201.413 469.257 198.836C468.565 198.134 468.934 197.238 469.782 196.721C469.109 195.806 467.265 196.065 467.146 194.606C467.957 191.724 470.409 190.477 474.54 190.902ZM470.843 196.185C472.493 196.434 473.194 195.723 472.954 194.07H470.843V196.185Z" fill="#231F20"/>
<path fill-rule="evenodd" clip-rule="evenodd" d="M677.747 191.955C682.145 195.197 685.427 204.97 684.607 209.93C679.821 206.965 681.02 198.005 677.212 194.07C676.991 192.961 677.572 192.666 677.738 191.955H677.747Z" fill="#231F20"/>
<path fill-rule="evenodd" clip-rule="evenodd" d="M385.863 201.478H381.114C373.434 191.04 393.017 192.666 385.863 201.478ZM384.277 199.363C384.341 198.06 384.36 196.813 383.751 196.185H382.165C381.953 198.153 382.59 199.289 384.277 199.363Z" fill="#231F20"/>
<path fill-rule="evenodd" clip-rule="evenodd" d="M408.553 194.07C413.025 200.028 402.329 202.448 400.107 197.774C400.2 193.82 404.432 193.996 408.553 194.07ZM403.805 197.247C403.491 199.289 407.281 198.014 406.976 196.721C405.676 196.656 404.432 196.638 403.805 197.247Z" fill="#231F20"/>
<path fill-rule="evenodd" clip-rule="evenodd" d="M492.482 196.721C495.119 203.436 485.143 208.932 484.037 202.014C486.452 202.226 491.744 202.937 489.32 197.783C487.088 197.848 487.771 200.813 485.097 200.425C483.225 196.887 489.698 194.088 492.491 196.721H492.482Z" fill="#231F20"/>
<path fill-rule="evenodd" clip-rule="evenodd" d="M329.381 197.774C334.969 199.566 340.547 206.457 338.887 212.054C334.499 209.228 333.429 203.067 328.856 200.416C328.69 199.187 328.939 198.384 329.381 197.774Z" fill="#231F20"/>
<path fill-rule="evenodd" clip-rule="evenodd" d="M665.078 200.942C667.835 203.519 669.052 210.281 668.25 214.687C664.811 212.904 663.917 203.907 665.078 200.942Z" fill="#231F20"/>
<path fill-rule="evenodd" clip-rule="evenodd" d="M465.56 204.646C468.464 207.196 467.404 214.345 461.862 213.107C459.336 210.041 458.571 202.919 465.56 204.646ZM462.923 210.992C464.859 211.288 465.329 206.817 462.923 207.288V210.992Z" fill="#231F20"/>
<path fill-rule="evenodd" clip-rule="evenodd" d="M401.694 206.762C405.547 211.445 398.024 217.209 393.774 213.634C393.737 210.253 400.725 213.893 399.582 209.403C397.388 207.584 395.931 211.011 393.248 210.466C390.962 206.069 398.42 205.588 401.694 206.762Z" fill="#231F20"/>
<path fill-rule="evenodd" clip-rule="evenodd" d="M377.943 220.515C379.529 219.813 381.677 219.675 381.115 216.811C379.676 214.973 376.698 217.975 375.306 216.285C376.431 208.101 388.638 214.89 383.226 221.042C381.456 222.261 379.178 222.982 375.832 222.631C374.873 221.125 373.066 220.469 373.72 217.338C374.338 217.421 374.661 217.227 374.78 216.811C377.334 216.543 376.32 219.85 377.952 220.515H377.943Z" fill="#231F20"/>
<path fill-rule="evenodd" clip-rule="evenodd" d="M484.562 212.581C490.02 217.015 479.768 224.487 478.228 217.338C479.906 215.712 480.441 218.234 482.451 217.864C483.797 217.809 483.502 216.091 483.511 214.687C481.437 214.548 481.547 216.599 479.288 216.276C477.371 213.255 481.363 212.165 484.571 212.572L484.562 212.581Z" fill="#231F20"/>
<path fill-rule="evenodd" clip-rule="evenodd" d="M452.366 214.17C452.892 214.872 453.233 215.768 453.952 216.285C453.786 220.349 451.878 222.658 447.092 222.104C445.811 220.571 444.898 218.659 444.456 216.285C446.29 214.779 448.697 213.837 452.375 214.17H452.366ZM447.618 218.4C448.614 218.456 447.987 220.146 449.204 219.989C449.997 219.195 451.573 219.185 451.315 217.347C449.646 217.264 448.134 217.329 447.618 218.409V218.4Z" fill="#231F20"/>
<path fill-rule="evenodd" clip-rule="evenodd" d="M412.25 221.042C413.753 220.608 415.274 220.192 414.887 217.864C412.785 218.52 409.466 220.146 409.604 216.276C412.176 216.137 412.508 215.306 415.938 215.213C419.589 218.76 415.745 224.099 410.13 223.148C409.641 221.873 408.009 221.744 408.544 219.444C409.162 219.527 409.484 219.324 409.604 218.917C411.586 218.52 410.757 220.94 412.241 221.033L412.25 221.042Z" fill="#231F20"/>
<path fill-rule="evenodd" clip-rule="evenodd" d="M462.923 233.207C460.203 231.23 460.212 228.154 461.863 225.273C471.119 221.605 471.119 234.232 462.923 233.207ZM463.448 228.45C463.08 230.408 464.287 230.787 466.085 230.565C466.528 229.956 466.786 229.152 466.611 227.924C465.366 227.914 465.062 228.838 463.439 228.45H463.448Z" fill="#231F20"/>
<path fill-rule="evenodd" clip-rule="evenodd" d="M395.894 231.092C399.462 236.523 393.257 240.874 387.449 238.5C383.318 232.727 390.528 227.286 395.894 231.092ZM389.56 235.849C390.731 236.957 393.073 236.265 393.783 235.322C393.977 232.33 388.989 232.745 389.56 235.849Z" fill="#231F20"/>
<path fill-rule="evenodd" clip-rule="evenodd" d="M445.506 231.092C452.099 236.939 440.85 241.908 437.586 234.269C438.14 231.119 441.44 230.722 445.506 231.092ZM444.981 236.911C445.589 236.283 445.58 235.045 445.506 233.734H441.809C441.855 235.803 442.455 237.318 444.981 236.911Z" fill="#231F20"/>
<path fill-rule="evenodd" clip-rule="evenodd" d="M477.177 245.899C475.849 244.476 475.056 238.897 478.762 239.553C479.943 241.142 479.38 241.4 479.288 243.783C481.787 242.758 483.548 241.003 484.571 238.491C482.146 238.731 480.367 239.451 478.762 237.964C478.504 236.301 479.518 235.895 479.823 234.787C492.86 231.988 487.494 247.58 477.186 245.889L477.177 245.899Z" fill="#231F20"/>
<path fill-rule="evenodd" clip-rule="evenodd" d="M365.8 242.721C366.621 242.084 367.856 241.031 368.972 242.195C370.908 234.343 380.948 243.239 376.366 248.541C371.95 250.785 363.799 250.166 365.809 242.721H365.8ZM368.972 245.899C369.921 246.582 374.209 247.229 373.72 244.837C373.324 243.118 370.76 243.571 369.497 242.721C369.885 244.338 368.585 244.273 368.972 245.899Z" fill="#231F20"/>
<path fill-rule="evenodd" clip-rule="evenodd" d="M451.315 252.771C450.882 248.023 453.307 246.73 453.952 244.31C462.766 242.241 458.553 259.791 451.315 252.771ZM453.952 252.245C457.907 253.02 457.52 246.13 455.012 247.487C456.589 248.928 453.085 249.751 453.952 252.245Z" fill="#231F20"/>
<path fill-rule="evenodd" clip-rule="evenodd" d="M408.028 251.182C410.369 257.593 404.542 262.101 398.531 260.17C396.291 257.805 396.586 252.032 399.057 250.12C402.09 249.566 406.405 248.965 408.028 251.182ZM400.108 256.992C402.385 258.323 405.64 256.715 404.856 253.288C401.564 252.817 400.135 254.203 400.108 256.992Z" fill="#231F20"/>
<path fill-rule="evenodd" clip-rule="evenodd" d="M435.475 265.989C434.286 264.77 432.884 260.983 434.95 259.643C437.725 259.154 435.724 263.449 437.061 264.4C442.215 264.908 443.542 258.951 440.758 255.939C437.789 255.256 438.453 258.212 435.475 257.528C434.359 250.092 447.516 253.445 443.921 262.285C442.095 264.511 440.168 266.636 435.475 265.989Z" fill="#231F20"/>
<path fill-rule="evenodd" clip-rule="evenodd" d="M495.654 259.117C499.13 267.744 486.535 270.044 486.157 263.348C485.954 259.764 491.025 256.06 495.654 259.117ZM489.32 264.41C491.376 265.675 494.262 263.92 493.542 260.706C491.127 260.927 489.412 261.86 489.32 264.41Z" fill="#231F20"/>
<path fill-rule="evenodd" clip-rule="evenodd" d="M467.671 268.631C463.974 260.327 476.319 256.512 477.177 263.338C477.628 266.978 472.539 270.479 467.671 268.631ZM470.843 267.042C472.272 266.183 473.811 265.444 474.54 263.865C472.816 261.066 469.487 265.352 470.843 267.042Z" fill="#231F20"/>
<path fill-rule="evenodd" clip-rule="evenodd" d="M546.317 262.821C546.787 263.061 547.257 263.283 547.377 263.883C545.681 270.322 541.458 278.736 536.295 283.447C536.599 275.624 543.385 269.777 546.326 262.821H546.317Z" fill="#231F20"/>
<path fill-rule="evenodd" clip-rule="evenodd" d="M385.337 272.335C381.511 275.845 375.002 273.425 375.306 269.158C375.758 262.997 388.813 263.366 385.337 272.335ZM382.701 270.746V268.631C381.935 267.809 379.999 268.16 378.478 268.105C377.685 271.088 380.884 272.049 382.701 270.746Z" fill="#231F20"/>
<path fill-rule="evenodd" clip-rule="evenodd" d="M564.268 269.167H565.854C566.057 273.379 563.401 278.044 561.631 282.385C559.999 286.394 558.552 291.714 554.771 293.488C555.952 285.479 561.742 277.572 564.268 269.167Z" fill="#231F20"/>
<path fill-rule="evenodd" clip-rule="evenodd" d="M406.976 277.092C410.563 285.147 396.908 285.091 397.48 278.154C398.937 275.993 404.542 275.115 406.976 277.092ZM404.865 279.734C404.238 279.124 403.003 279.134 401.693 279.207C401.113 281.277 404.837 281.323 404.865 279.734Z" fill="#231F20"/>
<path fill-rule="evenodd" clip-rule="evenodd" d="M588.544 276.039H590.655C590.683 283.318 588.544 292.934 584.856 298.245C583.132 291.918 588.867 284.426 588.553 276.039H588.544Z" fill="#231F20"/>
<path fill-rule="evenodd" clip-rule="evenodd" d="M446.032 277.092C456.036 283.918 438.702 297.608 435.475 288.731C434.627 286.385 435.033 282.099 438.647 282.911C440.27 284.593 437.753 285.128 438.121 287.142C441.56 291.363 447.295 286.338 445.516 280.27C443.183 279.882 439.744 282.173 438.656 279.743C438.601 276.344 443.22 277.619 446.051 277.101L446.032 277.092Z" fill="#231F20"/>
<path fill-rule="evenodd" clip-rule="evenodd" d="M582.21 278.154C583.206 283.965 581.924 291.927 578.513 295.077C576.567 292.657 579.214 287.872 580.099 283.974C580.569 281.886 579.002 278.154 582.21 278.154Z" fill="#231F20"/>
<path fill-rule="evenodd" clip-rule="evenodd" d="M643.44 280.27H645.026C645.929 284.196 648.114 289.424 647.137 293.488C643.864 291.428 643.117 284.196 643.44 280.27Z" fill="#231F20"/>
<path fill-rule="evenodd" clip-rule="evenodd" d="M465.034 291.899C464.656 289.461 463.089 288.214 461.862 286.606C462.867 281.424 473.443 280.26 474.53 285.544C475.369 289.608 470.566 293.848 465.034 291.89V291.899ZM467.145 289.784C470.133 289.959 471.543 288.546 471.368 285.553C467.219 285.138 466.14 286.006 467.145 289.784Z" fill="#231F20"/>
<path fill-rule="evenodd" clip-rule="evenodd" d="M615.466 283.438C618.122 285.849 616.656 296.628 614.941 299.834C612.212 297.432 614.692 287.502 615.466 283.438Z" fill="#231F20"/>
<path fill-rule="evenodd" clip-rule="evenodd" d="M546.852 285.027C547.709 284.879 547.764 285.526 548.437 285.553C548.244 290.467 545.238 292.573 543.689 296.13C539.549 292.749 546.16 288.602 546.861 285.027H546.852Z" fill="#231F20"/>
<path fill-rule="evenodd" clip-rule="evenodd" d="M361.052 286.616C361.577 292.786 358.747 295.585 353.132 295.603C352.228 294.744 351.823 293.396 352.072 291.373C353.667 290.615 355.114 290.929 355.243 292.961C357.262 292.333 358.747 291.179 358.415 288.204C355.603 287.502 357.004 291.022 354.192 290.32C353.962 289.849 353.731 289.377 353.132 289.257C352.892 285.627 358.756 284.426 361.052 286.616Z" fill="#231F20"/>
<path fill-rule="evenodd" clip-rule="evenodd" d="M493.007 286.089C498.549 289.257 491.827 299.113 486.148 296.665C485.014 296.176 481.805 292.74 485.622 290.32C487.734 290.144 486.738 293.081 487.734 294.024C490.011 293.488 492.298 292.952 491.956 289.793C491.91 287.9 488.508 289.377 487.734 288.204C487.605 284.546 490.278 286.071 493.017 286.089H493.007Z" fill="#231F20"/>
<path fill-rule="evenodd" clip-rule="evenodd" d="M635.52 285.553C638.055 287.835 638.645 294.68 638.157 298.245C634.506 297.284 634.072 288.167 635.52 285.553Z" fill="#231F20"/>
<path fill-rule="evenodd" clip-rule="evenodd" d="M380.93 300C379.178 296.453 383.954 294.116 386.388 295.067C387.098 297.377 386.047 299.233 383.908 300H387.928C389.772 297.848 390.187 294.818 386.914 291.899C384.369 291.973 381.852 291.622 380.054 292.952C379.142 293.626 377.436 299.021 377.417 298.772C377.445 299.224 377.528 299.621 377.63 300H380.939H380.93Z" fill="#231F20"/>
<path fill-rule="evenodd" clip-rule="evenodd" d="M577.139 300C576.512 299.317 575.581 299.123 574.29 299.834C574.327 299.889 574.364 299.945 574.401 300H577.139Z" fill="#231F20"/>
<path fill-rule="evenodd" clip-rule="evenodd" d="M109.284 74.5612C105.052 70.9865 115.719 60.29 109.284 56.0502C103.53 61.3984 101.677 70.6355 99.778 79.8448C98.5333 80.6207 98.8007 80.9625 97.1411 80.3713C97.0489 81.8677 96.173 82.5789 96.0808 84.0753C87.4878 89.0356 81.2552 96.3606 77.0785 105.755C74.2665 103.177 77.7608 97.8108 79.1899 95.7047C83.2651 89.7099 91.1297 84.491 96.0808 80.3713H97.1411C97.7219 72.5013 102.876 54.0735 108.223 53.3992C118.006 52.1707 112.824 71.6054 109.284 74.552V74.5612Z" fill="#231F20"/>
<path fill-rule="evenodd" clip-rule="evenodd" d="M672.473 92.5457C673.017 97.9863 669.919 104.147 667.725 111.057C665.042 119.518 662.082 127.388 659.28 135.387C658.634 137.798 660.727 137.465 660.34 139.618C655.693 144.236 647.921 154.582 639.752 147.552C639.687 144.485 639.586 141.391 640.812 139.618C648.142 141.391 656.394 137.585 658.228 130.63C652.429 133.105 647.46 136.403 641.338 138.565C642.112 134.048 647.626 134.288 650.834 132.219C649.018 129.254 645.56 132.052 643.975 133.807C646.74 117.439 662.59 106.244 670.887 92.0284C671.745 91.8806 671.8 92.5272 672.473 92.5549V92.5457ZM659.805 111.583C664.36 111.038 667.476 106.235 667.19 102.596C664.553 105.422 662.433 108.766 659.805 111.583ZM655.057 119.518C658.145 117.8 665.89 115.287 663.502 111.583C660.976 114.521 655.923 114.918 655.057 119.518ZM653.471 125.328C656.855 124.081 664.148 121.291 661.916 117.929C659.233 120.525 653.748 120.321 653.471 125.328ZM651.885 131.674C654.393 129.078 659.353 128.93 660.331 124.801C656.606 125.836 651.267 128.053 651.885 131.674ZM643.44 145.954C648.179 143.996 656.283 142.61 656.108 137.493C653.028 141.456 644.03 139.497 643.44 145.954Z" fill="#231F20"/>
<path d="M428.33 300C432.396 256.531 439.145 216.303 450.78 180.325C459.382 183.9 472.216 188.777 482.976 186.671C480.782 182.173 471.294 184.981 466.611 182.967C470.326 174.958 472.77 165.056 475.582 154.406C476.255 151.838 479.39 147.931 476.116 145.945C471.258 151.118 472.502 162.415 469.257 169.213C447.95 160.05 445.137 188.14 441.284 205.173C438.628 216.931 435.014 228.182 433.364 237.955C429.998 257.944 427.804 279.06 426.209 299.991H428.339L428.33 300ZM462.923 181.905C463.476 177.702 466.371 175.836 467.145 171.855C468.095 173.434 465.79 180.658 462.923 181.905ZM464.509 170.802C463.374 174.607 461.125 177.286 459.76 180.852C458.488 181.064 458.617 179.882 457.123 180.325C459.189 177.046 460.055 169.943 464.518 170.802H464.509ZM457.649 170.802C458.331 173.083 455.252 176.15 454.477 178.736C453.426 178.736 453.804 177.295 452.366 177.674C452.264 173.517 456.201 173.407 457.649 170.802Z" fill="#231F20"/>
<path fill-rule="evenodd" clip-rule="evenodd" d="M341.589 300C346.77 274.109 352.385 249.039 362.112 225.799C370.051 206.835 375.832 188.417 383.751 170.802C386.914 183.235 399.471 163.763 386.388 166.571C385.632 165.26 388.094 162.655 388.5 160.752C397.581 169.361 409.788 177.388 427.03 176.085C425.379 181.655 424.882 188.389 423.858 194.596C424.079 195.686 417.92 192.13 418.05 196.712C417.533 199.28 421 196.508 420.686 197.774C420.013 201.838 416.888 195.723 415.413 198.836C415.284 203.085 421.811 203.362 422.798 199.898C417.837 231.785 413.181 265.842 408.691 300.009H411.015C415.874 260.456 420.631 219.961 428.597 182.976C429.445 179.032 431.418 174.986 431.234 172.4C430.902 167.615 426.928 165.361 424.374 161.823C426.209 155.736 429.676 151.275 431.769 145.428C439.292 141.761 444.142 135.175 449.185 127.979C451.444 124.755 454.422 121.282 454.994 117.403C450.559 118.742 449.111 123.721 446.548 126.926C442.381 132.117 438.665 136.634 433.88 141.206C432.101 141.539 431.179 142.721 428.597 142.269C426.338 152.392 419.783 162.184 416.989 173.471C408.701 172.963 404.174 168.686 397.987 166.072C402.689 156.854 407.244 147.488 410.655 136.985C409.558 132.699 404.33 129.457 403.261 124.293C402.274 119.481 405.031 115.038 403.261 111.075C393.497 118.954 406.073 129.475 406.958 135.932C407.825 142.287 403.187 146.471 402.21 152.854C390.74 145.474 386.683 156.992 383.207 165.019C371.572 191.899 360.72 221.476 351.537 249.621C346.226 265.906 342.621 283.013 339.376 300.018H341.58L341.589 300ZM386.914 169.222H389.551C389.551 170.626 389.846 172.335 388.49 172.4C386.831 171.91 386.25 170.728 386.905 169.222H386.914ZM426.504 168.686C427.73 169.222 428.201 170.506 428.09 172.391C426.799 173.388 425.306 174.183 423.342 174.506C423.886 172.049 425.213 170.386 426.513 168.686H426.504ZM422.807 164.992C426.827 166.747 421.618 171.855 419.635 173.979C420.668 170.959 422.005 168.243 422.807 164.992ZM396.42 163.939C395.442 162.581 398.236 160.484 398.531 158.646C399.453 159.948 396.834 162.211 396.42 163.939ZM398.531 153.889C396.917 156.678 396.042 160.207 392.722 161.297C393.395 157.565 394.935 154.702 398.531 153.889ZM390.086 154.942C391.754 155.025 391.847 153.538 393.783 153.88C392.796 155.533 392.437 157.824 390.086 158.11V154.942Z" fill="#231F20"/>
<path fill-rule="evenodd" clip-rule="evenodd" d="M519.478 300H521.709C529.979 274.626 543.542 254.563 559.52 236.902C560.212 237.087 560.35 237.835 561.106 237.964C557.667 244.938 548.973 249.409 549.489 258.59C555.085 253.261 557.427 244.689 563.743 240.079C567.44 242.573 564.167 246.813 562.683 249.603C558.008 258.415 551.13 269.656 548.429 278.69C552.117 278.09 552.891 273.425 554.237 270.756C558.534 262.267 563.697 252.974 567.956 243.783C569.976 244.051 570.796 245.52 572.705 245.899C571.146 251.709 565.43 258.517 566.896 263.874C570.188 263.144 569.653 258.821 570.593 256.466C571.847 253.325 574.42 250.665 574.816 247.478C576.78 247.802 578.135 248.735 580.099 249.067C578.025 256.771 574.834 264.428 572.179 272.335C569.607 280.02 566.315 288.426 567.431 296.665C570.215 293.451 570.059 288.537 571.128 284.5C574.078 273.351 577.803 259.773 583.796 250.656C583.916 251.413 585.373 250.841 585.382 251.718C587.3 256.983 579.417 266.682 581.159 271.809C585.861 267.532 585.972 258.655 588.554 252.245C589.964 252.771 591.338 253.335 593.302 253.307C592.417 258.627 589.31 264.41 590.13 269.703C595.017 267.375 592.795 257.916 595.939 253.843C597.635 253.723 598.17 254.776 600.162 254.369C599.618 264.114 595.201 279.993 597.525 290.855C600.42 288.62 598.954 283.835 599.11 280.279C599.313 275.688 600.042 270.58 600.696 265.999C601.323 261.639 601.001 255.561 604.919 254.369C607.15 257.039 605.979 261.482 605.979 264.945C605.979 276.353 606.09 288.287 605.85 300.018H608.035C608.506 285.082 608.524 269.693 609.142 254.905H613.89C615.227 261.029 612.074 269.019 613.89 275.531C618.491 272.908 614.821 260.512 616.001 254.378C617.633 254.434 618.933 254.138 619.699 253.316C622.667 267.273 624.751 286.532 624.972 300.018H625.599C628.236 298.125 627.287 293.238 627.093 290.329C626.475 281.027 623.848 269.832 623.396 259.126C623.267 256.17 622.077 251.81 626.033 251.192C629.001 259.847 628.402 272.086 633.427 278.69C634.736 275.199 632.228 269.638 631.316 264.41C630.357 258.941 629.564 253.325 628.679 249.603C630.541 249.529 631.039 248.088 632.901 248.014C635.575 256.974 636.691 267.486 641.347 274.46C642.61 270.552 639.945 265.407 638.71 260.715C637.428 255.866 636.101 250.951 635.013 246.435C636.525 245.132 638.765 244.559 639.761 242.73C649.027 256.364 650.595 277.711 657.178 294.024C658.441 289.719 656.182 284.639 655.066 280.279C651.692 267.052 647.137 252.623 642.398 240.615C643.329 240.135 644.03 239.433 644.509 238.5C644.961 238.408 645.007 238.703 645.035 239.026C653.868 252.596 657.86 270.044 661.926 288.204C662.811 292.158 663.724 296.084 664.618 300.009H666.526C665.457 294.984 664.415 290.006 663.512 285.027C660.109 266.34 653.296 249.086 646.095 233.734C645.653 223.203 650.189 205.681 643.458 201.478C643.79 195.991 647.902 194.292 649.267 189.849C657.288 188.02 662.304 183.17 667.209 178.219C669.468 173.083 670.823 167.033 674.068 162.886C674.539 156.558 680.734 153.473 680.402 148.079C676.982 147.395 675.184 152.651 670.906 152.836C668.748 153.408 669.551 151.016 668.269 150.72C661.363 154.203 657.316 160.549 653.49 167.116C650.272 170.054 646.833 172.788 645.044 177.166C647.202 181.498 651.129 177.222 654.015 176.104C658.238 174.469 663.253 173.684 667.209 172.4C664.913 181.378 651.719 179.448 643.458 182.45C641.292 182.422 644.998 179.217 642.398 178.219C635.944 183.567 628.245 187.659 619.699 190.911C617.753 197.774 617.071 205.912 613.89 211.537C604.135 213.957 592.02 210.872 584.856 207.306C594.012 196.139 588.037 178.718 589.605 163.412C590.425 155.422 594.74 149.649 594.353 142.786C583.778 151.229 589.485 170.515 588.544 186.144C588.231 191.336 585.981 195.649 585.373 199.889C583.114 200.037 582.764 198.273 580.099 198.827C570.289 207.51 561.936 217.652 554.237 228.441C554.818 230.685 556.487 231.831 557.409 233.734C541.458 252.494 527.905 273.665 519.506 300H519.478ZM674.059 153.88C674.428 157.962 665.853 157.639 662.977 160.225C663.041 156.577 670.915 156.198 674.059 153.88ZM671.948 158.637C672.612 164.77 662.11 164.29 657.694 167.098C657.749 161.685 667.614 161.528 671.948 158.637ZM649.783 176.085C651.48 169.675 661.769 167.301 669.311 164.982C669.274 173.056 655.721 172.16 649.783 176.085ZM642.924 208.341C641.799 208.008 642.426 205.09 642.924 204.637C645.57 205.043 643.753 207.233 642.924 208.341ZM638.701 184.546C645.542 184.02 655.011 181.96 661.926 179.789C653.821 187.53 636.064 190.19 622.335 194.07C626.53 189.645 634.736 189.22 638.701 184.556V184.546ZM621.81 195.649C630.375 194.356 637.244 191.363 645.035 189.304C646.455 196.056 628.863 196.739 621.284 199.353C619.947 198.651 622.059 197.007 621.81 195.649ZM620.75 200.942C627.757 199.501 635.345 198.642 641.338 196.176C642.97 198.023 639.521 199.27 640.277 201.995C633.418 204.11 626.171 205.847 618.113 206.752C619.256 205.071 619.247 202.245 620.75 200.942ZM628.135 206.752C631.989 205.921 635.87 204.646 639.752 204.637C636.304 210.179 625.35 211.001 617.587 210.456C619.487 207.306 624.493 207.547 628.144 206.752H628.135ZM638.166 209.394C639.106 209.246 639.245 209.893 638.692 209.921C636.47 215.629 625.396 212.461 621.275 216.266C619.699 215.555 617.716 215.25 617.578 213.089C625.507 212.923 632.274 211.592 638.166 209.385V209.394ZM615.467 216.276C625.562 223.037 639.374 216.848 644.5 209.394C646.058 217.827 643.892 227.12 643.975 235.83C635.778 244.375 625.111 253.233 609.667 252.753C612.406 241.4 613.42 228.302 615.476 216.266L615.467 216.276ZM584.322 202.522C584.091 203.529 583.188 203.852 583.261 205.163C581.086 205.053 579.859 203.99 579.564 201.986C580.92 200.785 583.289 201.774 584.312 202.512L584.322 202.522ZM556.874 228.432C563.273 220.035 569.505 211.463 577.462 204.637C586.286 212.59 596.28 216.109 613.355 215.74C611.179 227.48 611.428 241.65 607.547 251.7C584.137 252.586 565.91 243.7 556.874 228.432Z" fill="#231F20"/>
<path d="M498.291 189.839C495.691 225.513 497.756 263.671 496.742 300H498.217C498.42 295.594 498.613 291.123 498.807 286.616C500.033 258.637 497.452 229.503 499.333 204.646C500.033 195.354 506.284 178.819 494.049 178.21C496.742 173.831 499.517 169.388 504.081 166.58C509.318 163.357 516.417 164.816 521.497 160.761C515.652 157.473 505.943 161.676 501.444 164.992C494.04 170.451 488.886 179.965 485.613 188.26C487.531 191.095 493.994 189.377 498.281 189.848L498.291 189.839ZM495.119 181.378C495.543 181.655 495.976 181.932 496.705 181.905C495.368 183.743 495.091 186.634 492.482 187.197C492.51 184.408 494.538 183.613 495.119 181.378Z" fill="#231F20"/>
<path fill-rule="evenodd" clip-rule="evenodd" d="M1.56739 300C3.91846 296.518 6.64756 293.248 8.98942 289.784C18.0987 276.335 25.5761 264.789 34.3258 251.709C38.5669 245.382 44.3109 239.692 46.4684 232.145C40.7797 236.81 37.2761 243.506 33.2747 249.594C22.6718 265.721 11.0731 282.357 0 298.836V300H1.56739Z" fill="#231F20"/>
<path fill-rule="evenodd" clip-rule="evenodd" d="M36.9626 234.26C45.2329 222.64 54.9968 209.366 63.3592 197.247C70.5784 186.773 77.4565 176.593 83.9473 166.58C85.0629 167.403 86.2984 168.105 87.6445 168.696C77.5395 184.417 67.0103 200.369 56.4996 216.294C53.1896 221.31 48.7364 226.224 47.5286 232.154C51.0414 231.877 51.779 227.573 53.3372 225.282C65.2954 207.621 78.1941 187.65 90.8161 170.285C91.5076 171.347 92.5495 172.076 93.9878 172.4C67.4252 215.897 39.0463 257.574 11.4234 300.009H14.632C23.0497 287.105 30.7115 275.069 39.0832 262.294C43.9328 254.896 47.7776 246.73 52.8024 240.089C53.8074 238.759 56.2507 237.382 57.0251 236.385C60.5103 231.905 63.2947 226.15 66.5309 221.051C76.0643 205.986 86.658 189.11 96.6155 174.515C98.1644 174.377 98.2382 175.707 99.7871 175.577C83.6154 206.595 63.3408 235.461 44.3662 265.999C37.4328 277.157 30.4441 288.565 23.4185 300H25.9725C51.5116 259.274 77.1891 218.696 102.959 178.21C104.406 178.699 105.208 179.836 106.656 180.325C83.6338 220.996 58.8507 260.41 34.3073 300H37.2484C48.0634 282.487 58.8507 264.946 69.1862 246.952C84.1225 227.416 94.541 203.99 108.777 183.493C109.062 183.078 109.321 182.625 109.302 181.905C110.971 182.524 112.234 183.549 113.525 184.546C112.907 188.334 110.104 189.932 109.302 193.534C105.835 192.463 102.903 195.511 102.442 197.765C101.972 200.055 104.259 201.774 104.028 203.584C103.936 204.286 100.875 208.406 100.34 208.877C99.0864 209.958 96.2282 209.422 95.0573 211.519C94.3474 212.415 93.158 215.574 94.5318 216.811C77.3366 244.282 60.4826 272.086 43.73 300H46.5144C50.9584 292.684 55.384 285.387 59.6897 278.154C68.3472 263.615 77.1983 250.24 86.0863 236.375C89.5069 231.036 92.863 223.434 96.6431 219.98C98.3211 220.063 98.9665 221.181 100.866 221.042C84.7494 247.247 68.8727 273.693 52.8577 300H55.3471C77.5855 264.151 100.331 227.942 121.445 191.955C121.629 191.262 122.376 191.123 122.505 190.366H124.091C103.198 227.148 81.4671 263.606 59.533 299.991H62.2436C83.7906 263.68 105.236 227.258 127.253 191.419C126.967 189.59 128.037 186.403 126.193 186.126C134.491 182.671 130.637 167.744 123.556 166.035H123.565C124.358 163.486 127.972 162.101 126.737 159.154C121.933 159.579 120.661 167.781 117.231 171.319C106.167 163.717 94.9467 156.281 84.5097 148.051C86.3721 142.823 91.3048 137.983 90.3183 131.655C87.3587 133.106 87.2296 137.373 86.0955 140.643C77.9359 135.248 72.7543 142.786 70.7905 149.631C69.5089 148.799 68.5408 147.654 66.0422 148.042C63.2209 137.299 60.3812 126.566 58.1223 115.26C63.4238 112.821 70.6337 112.285 73.4274 107.325C71.0302 105.21 67.0933 109.93 64.4564 111.029C62.4188 109.191 62.5294 105.2 59.7081 104.157C54.167 104.074 50.4513 105.81 46.5144 107.334C46.9017 104.655 45.74 103.529 44.4031 102.577C27.7335 104.378 14.1525 111.629 0.0460422 115.01V117.301C1.93613 116.617 4.14891 116.35 5.87303 115.805C15.849 112.599 28.9413 109.219 39.6548 105.755C41.6647 105.33 40.3279 108.258 40.7151 109.459C26.9498 112.313 13.0922 117.366 -5.74263e-05 119.915V122.335C13.8483 119.047 27.5491 115.601 41.1853 112.11C40.752 113.606 41.9321 113.477 41.7108 114.752C28.6554 119.638 13.8944 122.806 -5.74263e-05 126.871V129.605C12.6681 124.654 28.0654 122.428 41.7201 118.456C43.6286 117.948 42.2548 120.737 43.3059 121.097C30.5916 126.307 13.7376 129.697 -5.74263e-05 132.912V135.867C13.8206 131.886 28.7108 129.041 43.2967 124.801C44.9931 124.691 44.5782 126.686 45.408 127.443C31.7533 133.457 14.9178 136.283 -5.74263e-05 141.031V143.275C3.37443 141.677 8.39929 141.132 12.161 140.135C18.4582 138.463 25.3639 136.191 30.6377 134.851C34.8328 133.78 41.3605 131.544 43.8314 131.674C45.4634 131.766 46.9109 131.092 47.0031 133.789C32.4448 139.414 15.1575 142.306 -5.74263e-05 147.321V149.649C2.3879 148.845 5.40281 148.651 7.40354 148.069C11.7277 146.813 16.2639 144.393 20.5972 143.312C30.1952 140.911 39.3506 140.412 48.5705 137.493C48.6258 138.842 48.8655 140.015 49.6308 140.671C34.7037 146.702 16.5958 149.566 -5.74263e-05 153.935V156.18C2.4801 155.182 5.67019 154.997 7.93829 154.406C21.1689 150.988 37.2761 148.079 49.64 143.83C50.6818 144.19 51.0506 145.243 51.2258 146.471C48.0265 149.954 42.5499 149.64 38.0321 150.702C26.2951 153.473 12.3823 157.704 0.00916249 159.69V162.294C16.4391 157.611 35.2477 155.311 51.2258 150.176C53.1804 149.806 52.1386 152.439 53.3372 152.817C37.7371 159.551 17.0937 161.214 -5.74263e-05 166.433V168.317C3.07018 167.236 7.34822 167.255 10.0497 166.58C23.2895 163.264 40.0697 159.727 52.8024 156.531H53.3279C53.9457 156.447 54.2684 156.641 54.3882 157.057C55.1904 159.727 50.6449 160.576 48.5797 161.288C35.1463 165.925 15.3234 168.04 -5.74263e-05 172.344V174.728C16.7249 169.019 38.3917 168.262 54.3882 161.823C56.8315 162.11 52.9223 163.883 53.3279 165.527C37.3314 171.568 16.1901 174.894 -5.74263e-05 179.706V182.089C1.43825 181.591 3.01486 181.267 4.2411 180.852C17.6469 176.279 35.4505 174.34 48.5797 169.749H49.1052C50.8201 173.841 45.3066 173.739 42.7711 174.506C29.6789 178.459 13.0553 183.429 -5.74263e-05 186.8V189.091C14.3093 184.288 30.4718 181.332 44.8825 176.63C45.8229 176.483 45.9705 177.129 45.408 177.157C38.2165 183.198 26.7377 184.63 16.9001 187.733C10.8794 189.636 5.39359 192.398 -0.00927734 193.848V195.64C13.9681 191.493 27.715 187.114 41.1761 182.45C41.6279 182.357 41.674 182.653 41.7016 182.976C27.9179 201.681 13.8298 222.474 -5.74263e-05 240.19V244.384C3.96451 238.223 9.02624 232.81 13.2121 226.861C18.91 218.779 24.2575 210.447 30.103 202.531C42.0059 186.403 53.8258 170.285 64.4103 152.827C65.2585 152.679 65.3231 153.325 65.9961 153.353C46.0166 186.431 23.3079 216.765 -5.74263e-05 246.499V250.813C1.09711 249.455 2.2496 248.19 3.18081 246.961C11.9305 235.415 20.3299 223.758 29.0427 211.528C30.1491 211.057 31.3845 210.706 32.2143 209.939C43.73 191.687 56.1216 174.312 68.1075 156.531C68.5316 156.808 68.9649 157.085 69.6933 157.057C49.5386 190.698 24.0547 225.697 -5.74263e-05 256.078V260.576C24.8661 227.526 49.852 194.606 72.3302 159.172C73.4274 159.486 74.0359 160.281 74.9671 160.761C70.0252 170.839 63.1379 180.224 56.4904 189.849C38.4009 216.026 19.2143 243.876 -0.00927734 268.252V271.984C1.96379 269.259 4.44394 266.599 6.86878 263.357C16.3837 250.628 24.7185 239.433 33.7909 226.871C47.8882 207.353 63.5252 185.055 77.0692 165.001C77.4104 164.502 77.4657 163.615 78.1295 163.412C79.2083 163.92 80.2132 164.493 81.3012 165.001C55.467 205.635 27.1895 243.82 -5.74263e-05 283.115V286.237C2.2957 282.875 5.26452 279.734 7.93829 276.03C18.2923 261.694 26.7654 248.596 36.9718 234.251L36.9626 234.26ZM58.0762 106.817C60.4734 107.223 60.4549 110.068 61.2479 112.101C59.6989 111.962 59.6251 113.292 58.0762 113.163C56.9975 111.14 57.9748 109.117 58.0762 106.817ZM57.5507 158.11C52.2308 144.051 48.2478 128.653 43.8314 113.689C45.8967 109.588 49.7691 107.297 55.4393 106.817C53.918 114.345 56.9514 121.901 59.1365 130.085C62.4741 142.629 65.7195 150.591 57.5507 158.11ZM98.7268 212.045C100.654 211.334 103.447 212.017 104.01 214.16C106.508 223.813 89.2856 215.518 98.7268 212.045ZM106.121 212.572C104.923 211.833 104.388 210.429 102.95 209.93C103.752 208.267 105.301 207.353 105.586 205.173H110.335C109.09 207.805 106.886 209.477 106.112 212.581L106.121 212.572ZM106.647 203.057C104.001 201.33 104.203 194.264 109.818 196.185C112.418 198.217 111.957 204.471 106.647 203.057ZM113.506 198.827C113.866 196.527 112.557 195.899 111.395 195.123C112.658 191.798 115.092 189.664 116.143 186.135C117.563 186.828 118.946 187.558 120.366 188.251C117.757 191.456 116.521 196.037 113.506 198.827ZM121.952 168.16C125.64 169.583 128.203 172.123 129.346 176.095C124.635 176.409 122.155 174.487 119.315 172.917C119.988 171.125 121.187 169.86 121.952 168.16ZM83.9473 142.777C84.3714 144.615 83.1636 144.809 83.4218 146.481C81.0615 145.492 79.3742 143.839 78.6735 141.188C81.0246 141.123 81.9466 142.49 83.9565 142.777H83.9473ZM71.8139 154.942C70.5047 149.982 75.4373 145.862 76.0366 143.303C76.4884 143.211 76.5345 143.506 76.5621 143.83C83.1913 152.115 92.9459 157.685 103.484 164.982C112.511 171.236 118.209 176.732 128.821 178.727C129.162 181.23 125.151 185.914 121.961 186.135C118.116 186.394 112.317 181.036 108.767 178.727C99.8332 172.926 92.4112 169.139 83.431 163.394C79.9274 161.149 72.4501 157.334 71.8231 154.933L71.8139 154.942Z" fill="#231F20"/>
<path fill-rule="evenodd" clip-rule="evenodd" d="M719.983 30.9256L720.933 30.4545C725.137 31.1934 733.02 42.0746 730.752 46.8317C726.594 43.9036 722.464 34.9437 719.983 30.9256Z" fill="#231F20"/>
<path fill-rule="evenodd" clip-rule="evenodd" d="M761.15 15.3058C762.155 21.4392 762.893 27.4802 761.528 32.8099C756.669 30.1589 758.9 20.9311 758.55 15.9986C759.573 15.3058 760.403 15.1765 761.15 15.3058Z" fill="#231F20"/>
<path fill-rule="evenodd" clip-rule="evenodd" d="M709.288 45.6032L710.312 45.326C715.668 47.7831 723.238 50.2401 724.898 56.6784C718.628 55.6161 714.461 50.859 709.334 47.7831C708.827 46.7763 709.316 46.3329 709.288 45.6032Z" fill="#231F20"/>
<path fill-rule="evenodd" clip-rule="evenodd" d="M801.045 13.874C802.317 18.0491 799.376 21.6793 798.38 25.2078C797.827 27.1753 798.887 30.7039 795.513 31.3412C792.258 25.5496 797.993 19.601 798.675 13.8555C799.8 12.8764 800.095 14.3266 801.036 13.874H801.045Z" fill="#231F20"/>
<path fill-rule="evenodd" clip-rule="evenodd" d="M704.217 83.1794C699.856 86.7449 691.724 84.0384 687.179 82.9115L686.764 81.3782C692.093 79.8818 699.128 81.7569 704.217 83.1794Z" fill="#231F20"/>
<path fill-rule="evenodd" clip-rule="evenodd" d="M774.851 56.2996C774.371 59.8374 770.37 56.549 769.171 59.1077C768.581 61.2045 771.569 59.7727 772.223 61.7217C784.006 66.1093 794.277 74.9584 805.396 81.295C807.6 85.5625 814.607 85.7287 814.082 90.5689C810.449 90.8738 807.729 87.5392 805.138 85.5532C793.346 76.5102 780.309 67.3101 766.553 62.1651C764.737 63.2551 763.51 62.6177 761.583 64.031C762.238 69.915 769.725 71.7069 774.749 74.0347C783.158 77.9327 790.257 82.0616 797.808 87.4007C801.183 89.793 805.802 91.9545 807.443 96.2035C803.257 97.8477 800.169 92.8967 797.089 90.7075C789.4 85.2484 780.964 79.2721 771.901 77.7941C767.115 72.8985 761.611 70.1551 755.185 70.1367C753.59 70.6447 754.567 72.0302 753.516 72.7323C760.92 83.7335 772.288 87.0866 781.969 93.4694C784.799 95.3353 789.317 96.8686 789.713 100.841C784.91 102.152 782.236 97.0533 779.12 94.8734C770.01 88.4721 757.259 84.8882 749.496 72.9539C749.496 69.9519 753.839 65.9338 757.554 66.6174C757.96 64.9454 758.486 62.0635 760.422 60.484C761.639 59.4864 763.778 60.1607 765.152 59.3293C766.581 58.4611 766.581 55.5883 768.72 54.6185C771.329 53.4361 773.007 54.0365 774.851 56.3088V56.2996Z" fill="#231F20"/>
<path fill-rule="evenodd" clip-rule="evenodd" d="M787.114 58.498C793.955 64.6776 804.576 69.7672 812.265 77.3231C813.224 76.3347 812.293 74.6997 814.174 74.0254C819.024 75.8359 826.483 80.6391 831.341 84.999C834.172 87.5392 839.732 91.622 837.657 95.4369C829.092 90.4858 822.509 79.66 812.975 77.5632C814.57 79.5492 817.908 79.5861 817.899 82.7914C813.215 84.5741 809.684 79.309 806.835 77.0552C799.892 71.5499 793.208 66.9406 785.666 62.747C781.941 60.6779 777.672 59.1261 775.082 55.5976C783.49 50.9329 791.825 57.251 799.358 61.8788C804.143 64.8161 810.486 67.7073 812.284 72.5937C802.907 70.811 795.974 61.8049 787.104 58.498H787.114Z" fill="#231F20"/>
<path fill-rule="evenodd" clip-rule="evenodd" d="M834.707 32.0339C837.334 34.5649 833.702 38.4906 832.061 41.0031C830.337 43.6449 828.806 48.0694 825.644 48.3003C824.399 41.6681 831.185 35.7287 834.707 32.0339Z" fill="#231F20"/>
<path fill-rule="evenodd" clip-rule="evenodd" d="M704.217 107.694C706.301 106.586 707.794 107.223 709.408 107.482C707.877 104.064 708.283 101.312 708.514 98.4943C714.101 95.1875 717.77 97.5614 721.016 101.164C723.118 100.563 721.892 98.8269 724.335 98.3465C728.217 98.5128 731.591 100.185 734.219 104.073C735.795 103.427 735.805 102.245 737.768 101.727C744.407 103.833 750.732 110.724 756.568 117.199C759.417 120.368 762.865 124.238 763.593 127.877C758.135 127.406 754.964 120.432 751.146 115.749C747.293 111.029 743.3 106.475 738.46 105.505C743.153 117.412 749.727 126.556 756.457 138.481C758.707 139.461 763.464 138.398 763.52 142.065C757.02 142.13 749.422 140.338 740.129 145.954C734.514 149.344 730.752 154.221 728.023 158.424C732.282 164.853 738.985 164.077 744.259 167.504C741.604 169.887 736.975 168.215 734.587 166.978C728.429 163.782 722.141 156.845 716.728 152.217C721.163 149.991 722.851 155.865 726.142 157.002C726.4 156.558 726.668 156.124 727.331 155.829C727.46 153.926 727.064 155.653 725.441 155.579C717.291 141.844 707.979 126.926 701.599 113.117C702.585 111.343 702.539 109.228 704.226 107.694H704.217ZM710.634 100.406C711.261 102.9 710.837 106.263 711.768 108.692C716.728 121.661 729.148 134.103 735.399 147.136C739.244 144.864 741.06 142.426 745.107 141.751C737.584 129.06 729.24 118.779 722.177 104.729C718.397 103.87 716.074 98.716 711.584 99.9445L710.634 100.416V100.406ZM722.03 130.732C716.802 122.15 711.962 110.004 705.379 110.068C702.567 113.939 706.541 116.691 708.624 120.257C714.636 130.528 722.113 146.721 728.263 154.184C729.452 152.217 731.324 150.49 733.251 148.771C729.821 143.469 726.096 137.438 722.021 130.732H722.03ZM747.237 140.098C749.1 140.015 751.054 139.701 753.147 138.943C743.761 124.321 738.211 109.708 726.207 100.961L724.787 101.663C728.963 115.37 739.972 127.85 747.237 140.098Z" fill="#231F20"/>
<path fill-rule="evenodd" clip-rule="evenodd" d="M692.941 140.985C698.04 138.463 702.253 141.834 706.605 144.846C709.574 146.906 714.138 148.799 713.419 151.506C706.246 151.358 702.189 141.992 694.822 142.416C692.766 146.675 697.007 149.483 699.958 152.854C695.523 156.586 689.77 144.347 692.941 140.994V140.985Z" fill="#231F20"/>
<path fill-rule="evenodd" clip-rule="evenodd" d="M865.695 63.8924C866.728 66.7282 863.574 67.0607 862.127 68.6033C859.084 71.8455 856.982 77.6279 852.87 77.3046C852.87 71.9656 859.896 63.3844 865.695 63.8924Z" fill="#231F20"/>
<path fill-rule="evenodd" clip-rule="evenodd" d="M791.973 119.767C788.229 121.707 785.058 117.92 782.31 116.876C779.083 115.638 775.985 115.712 772.878 114.456C770.822 115.333 770.177 116.701 768.609 117.744C774.768 122.548 786.533 122.834 788.358 132.754C784.965 133.383 783.481 129.983 781.536 128.459C776.336 124.386 768.406 124.238 763.889 117.717C771.901 107.482 785.048 112.424 791.973 119.767Z" fill="#231F20"/>
<path fill-rule="evenodd" clip-rule="evenodd" d="M817.189 126.769C811.758 125.781 808.504 119.592 804.502 115.343C800.464 111.057 796.075 107.676 791.816 105.099C791.309 104.397 791.862 104.064 791.594 103.445C791.954 101.404 796.38 102.919 798.666 104.665C804.668 109.256 815.382 121.051 817.189 126.76V126.769Z" fill="#231F20"/>
<path fill-rule="evenodd" clip-rule="evenodd" d="M700.64 156.632L701.59 156.161C710.966 161.87 719.495 176.205 726.456 185.147C721.237 185.101 718.388 178.515 715.18 174.201C710.616 168.068 705.895 162.045 700.871 158.276C700.364 157.574 700.917 157.242 700.64 156.623V156.632Z" fill="#231F20"/>
<path fill-rule="evenodd" clip-rule="evenodd" d="M794.803 119.555C799.477 119.425 806.3 117.532 808.245 121.762C804.668 123.379 795.946 125.079 794.803 119.555Z" fill="#231F20"/>
<path fill-rule="evenodd" clip-rule="evenodd" d="M768.047 134.537C768.747 134.029 769.079 134.583 769.697 134.316C776.677 138.306 783.416 148.624 790.58 157.611C792.065 159.477 795.799 160.992 794.093 163.542C790.184 163.976 788.57 159.274 786.579 156.641C781.001 149.298 774.427 141.456 768.038 136.911C767.06 135.784 768.508 135.489 768.056 134.546L768.047 134.537Z" fill="#231F20"/>
<path fill-rule="evenodd" clip-rule="evenodd" d="M791.401 136.56L792.821 135.858C797.836 138.186 800.98 142.287 806.226 143.977C812.994 146.148 821.384 144.319 828.88 145.76C832.715 146.499 836.237 148.448 839.713 149.843C842.793 151.081 847.818 151.524 848.647 156.041C844.406 157.547 841.41 153.852 838.044 152.439C835.039 151.173 831.452 150.139 827.672 149.307C820.066 147.645 811.657 148.855 805.258 146.822C801.321 145.566 792.397 140.735 791.392 136.579L791.401 136.56Z" fill="#231F20"/>
<path fill-rule="evenodd" clip-rule="evenodd" d="M880.843 98.2727C880.032 102.503 873.08 106.641 869.457 108.618C868.074 103.917 876.473 97.1828 880.843 98.2727Z" fill="#231F20"/>
<path fill-rule="evenodd" clip-rule="evenodd" d="M726.916 186.098C727.424 186.163 727.931 186.218 728.567 185.867C733.878 189.534 740.488 192.222 746.933 194.485C751.045 195.926 757.49 195.76 758.937 200.933C754.198 201.145 748.749 198.439 742.443 196.111C737.344 194.227 726.409 191.816 726.916 186.089V186.098Z" fill="#231F20"/>
<path fill-rule="evenodd" clip-rule="evenodd" d="M744.564 239.885C739.244 242.684 732.439 240.052 726.861 239.784C726.889 236.144 732.79 237.04 735.611 237.234C738.552 237.428 743.347 237.41 744.564 239.885Z" fill="#231F20"/>
<path fill-rule="evenodd" clip-rule="evenodd" d="M723.699 257.269C729.388 257.205 736.552 258.794 739.484 263.033C734.966 263.495 727.821 261.842 723.699 257.269Z" fill="#231F20"/>
<path fill-rule="evenodd" clip-rule="evenodd" d="M881 227.074C879.405 211.121 878.539 195.095 868.36 178.136C867.991 177.48 867.622 176.834 868.138 176.483L870.978 175.079C874.592 180.51 877.893 186.338 881 192.453V183.041C879.202 179.614 877.303 176.252 875.238 172.973C877.561 171.836 879.377 170.894 881 169.915V163.2C878.317 159.874 874.777 156.013 875.127 152.402C876.63 152.974 879.018 154.508 881 156.411V152.402C879.654 150.878 878.52 149.28 877.985 147.451C878.787 147.728 879.857 148.263 881 148.984V144.864C880.631 144.615 880.263 144.375 879.885 144.162C874.03 134.223 866.341 126.233 859.26 117.8C852.999 110.336 847.624 102.014 840.018 97.8293C839.225 102.466 844.646 105.394 847.744 108.748C856.945 118.733 867.456 132.311 875.404 143.423C876.335 151.229 867.76 155.949 862.099 159.431C858.679 158.905 854.456 163.163 849.579 161.491C849.45 164.715 852.216 163.957 850.252 167.643C852.824 172.021 853.34 172.742 854.447 177.36C857.333 177.379 859.518 179.457 863.178 177.166C879.977 202.614 874.325 225.66 881 250.037V227.074ZM880.235 167.56C877.598 168.502 876.344 169.924 874.316 171.079C871.78 168.095 869.946 163.033 867.77 158.978C874.205 152.623 875.892 164.558 880.235 167.56ZM857.296 175.947C856.254 172.409 854.124 166.941 852.17 164.336C853.986 164.401 855.876 164.234 858.07 163.181C859.25 166.876 860.523 170.599 861.786 174.312C860.08 175.467 859.057 174.607 857.287 175.947H857.296ZM861.38 162.729C862.772 162.11 864.349 160.937 865.4 161.334C867.346 164.502 868.664 169.546 871.006 171.532C870.241 173.711 867.133 172.926 865.326 174.34C863.445 170.275 863.658 166.932 861.38 162.729Z" fill="#231F20"/>
<path fill-rule="evenodd" clip-rule="evenodd" d="M881 270.414C878.299 266.516 876.04 262.156 874.777 256.928C873.246 250.61 873.385 243.959 872.758 237.29C871.282 221.467 865.732 203.104 861.472 186.856C860.882 184.611 860.412 179.346 856.558 179.263C854.226 182.662 857.333 186.763 858.153 189.682C861.131 200.231 863.86 210.66 866.239 221.652C869.07 234.694 867.77 249.852 872.859 262.599C874.795 267.458 877.792 271.753 881 275.919V270.414Z" fill="#231F20"/>
<path fill-rule="evenodd" clip-rule="evenodd" d="M778.475 211.934C779.194 214.613 775.072 218.899 775.58 222.797C776.667 226.381 779.083 226.141 779.323 229.198C781.48 229.808 783.877 229.716 786.404 229.235C785.251 235.489 786.348 242.971 787.464 250.527C788.57 258.036 787.999 265.019 788.524 271.818C789.068 278.764 795.716 288.5 799.007 296.702C799.45 297.811 799.865 298.91 800.234 299.991H803.995C803.433 298.19 802.806 296.379 802.087 294.587C799.45 288.001 793.752 280.547 792.286 273.481C791.668 270.497 792.406 266.386 792.341 262.839C792.157 252.42 787.547 240.079 790.396 230.196C790.101 229.337 788.985 229.365 789.695 228.773C792.646 227.813 795.365 227.545 798.685 225.513C797.126 236.736 801.257 248.023 804.392 259.837C807.978 273.342 810.486 285.248 816.193 299.991H819.54C818.922 298.411 818.295 296.804 817.65 295.151C813.105 283.484 810.569 270.081 807.702 258.203C804.751 245.973 801.34 234.306 802.225 223.176C804.512 221.975 807.342 220.968 808.624 219.425C811.565 217.855 808.449 220.451 809.795 221.799C824.215 243.063 826.934 267.809 835.629 288.629C837.298 292.638 839.077 296.379 840.82 299.991H843.586C841.318 294.929 839.068 289.784 837.076 284.38C833.186 273.841 831.452 262.128 827.11 250.979C823.717 242.259 819.835 233.891 815.216 224.423C814.322 222.594 814.229 218.437 810.763 218.954C812.09 216.904 815.161 215.444 816.931 213.551C822.647 219.721 826.243 227.499 831.452 234.676C836.357 241.428 842.645 246.841 846.693 253.676C854.945 267.634 859.573 283.697 866.036 298.956C866.184 299.298 866.34 299.64 866.479 299.982H868.987C865.843 293.192 862.994 286.44 860.707 279.771C866.23 285.895 869.724 292.952 872.988 299.982H877.662C871.301 288.343 862.477 276.75 857.48 266.036C851.902 254.064 854.225 239.22 848.242 228.145C842.092 216.738 829.922 211.768 822.168 205.062C819.393 193.774 804.631 193.82 800.104 182.948C798.159 178.293 801.054 171.513 796.177 167.791C793.715 169.73 796.38 173.213 796.841 176.307C797.689 182.117 798.943 190.874 806.42 194.569C807.195 202.974 791.641 211.399 783.195 210.761C776.981 205.394 768.978 199.252 761.768 200.702C764.93 206.882 774.289 204.849 778.465 211.907L778.475 211.934ZM820.499 210.031C820.776 209.533 821.061 209.043 821.449 209.56C828.742 215.26 839.787 219.878 845.181 230.27C849.33 238.278 848.454 246.98 850.473 255.367C839.898 241.197 829.332 227.028 819.559 210.503L820.508 210.031H820.499ZM818.388 206.946C815.76 202.928 810.754 200.166 809.241 196.73C813.621 195.797 819.724 201.838 818.388 206.946ZM809.444 201.931C812.911 203.501 813.796 208.424 816.479 210.244C814.248 211.731 812.985 213.532 810.551 214.946C808.937 210.798 806.715 208.443 804.945 204.748C806.641 203.307 807.056 202.3 809.444 201.931ZM801.866 206.854C803.885 210.004 806.863 213.209 807.48 217.052C805.102 218.086 804.309 219.656 801.561 220.571C803.765 215.306 794.508 209.025 801.875 206.854H801.866ZM792.636 212.008L795.476 210.604C798.832 215.435 798.048 218.853 798.482 222.686C795.992 224.22 793.89 224.617 791.622 225.485C790.424 222.003 793.909 216.821 792.636 212.008ZM783.656 214.086C785.648 213.255 787.307 213.394 789.087 213.172C790.709 218.197 787.833 221.698 787.123 225.928C785.307 226.63 783.933 226.048 782.163 226.612C781.748 222.123 785.98 219.222 783.647 214.086H783.656ZM780.807 216.673C780.982 218.964 780.328 220.987 779.12 222.815C778.244 220.275 779.378 218.428 780.807 216.673Z" fill="#231F20"/>
<path fill-rule="evenodd" clip-rule="evenodd" d="M784.873 293.082C785.887 295.28 786.652 297.598 787.252 300H790.156C789.695 298.051 789.123 296.139 788.413 294.282C784.467 283.946 777.571 276.732 776.99 267.495C776.179 254.517 782.052 244.125 780.733 230.861C780.309 229.78 779.599 229.549 778.613 230.14C776.981 237.669 776.289 244.596 775.183 251.875C774.132 258.821 772.509 266.941 775.294 274.82C777.506 281.092 781.923 286.671 784.873 293.082Z" fill="#231F20"/>
<path fill-rule="evenodd" clip-rule="evenodd" d="M120.2 300C124.238 295.649 128.212 291.234 131.974 286.606C136.114 291.188 140.622 295.723 145.527 300H150.165C144.485 295.206 139.461 289.941 135.146 284.491C138.631 278.468 144.172 274.497 148.339 269.158C166.373 288.241 198.302 305.256 234.37 297.709C234.149 298.457 233.955 299.233 233.743 299.991H242.678C240.963 298.698 239.561 297.395 238.593 296.12C239.672 288.916 242.419 283.383 243.341 276.03C257.531 282.921 274.302 294.652 295.591 289.248C295.369 293.322 297.324 296.647 296.835 299.991H300.569C299.177 279.743 298.32 259.976 298.246 240.597C296.54 237.142 291.515 237.475 287.164 237.955C286.776 233.771 289.727 230.427 288.749 227.379C278.921 225.587 267.719 225.18 258.665 222.621C261.846 218.354 268.18 220.922 273.444 221.559C278.838 222.224 286.232 224.515 289.81 223.674C292.889 222.954 297.545 214.521 299.306 211.509C305.41 201.127 308.259 192.86 314.086 184.011C317.11 179.42 320.614 175.725 323.057 171.319C319.544 166.867 310.167 171.688 306.691 168.141C299.546 175.614 296.632 187.327 291.386 196.702C292.059 197.875 301.713 195.178 302.994 197.765C301.113 200.776 294.125 196.176 291.912 199.353C293.212 201.302 300.56 198.282 301.943 201.469C298.476 204.637 291.829 201.949 288.215 200.942C283.513 206.983 275.925 210.133 268.161 213.107C274.791 215.056 287.91 206.78 295.084 213.634C290.16 216.303 281.493 211.639 275.556 213.634C280.074 215.805 287.219 215.343 292.447 216.811C287.827 220.746 272.974 213.819 266.05 216.811C273.915 218.095 282.388 218.77 290.335 219.989C285.209 224.441 272.679 218.871 264.473 218.927C262.113 218.908 265.626 217.375 264.473 215.223C259.218 217.689 252.958 221.467 253.391 227.914C264.003 229.614 275.639 230.307 285.061 233.207C283.061 237.059 276.634 234.556 272.393 234.269C264.815 233.743 257.356 233.198 251.28 230.565C249.307 230.704 249.675 233.189 248.108 233.743C234.675 230.464 223.472 224.931 212.215 219.462C212.067 217.661 212.621 215.176 211.689 214.17C206.784 213.218 203.594 208.692 197.435 209.939C192.272 210.983 183.071 223.785 179.493 227.914C158.85 251.718 136.99 276.095 115.212 300H120.219H120.2ZM319.36 171.337C318.216 175.3 310.518 172.705 306.166 173.453C308.001 169.148 314.362 171.652 319.36 171.337ZM316.188 175.042C315.478 179.263 307.54 176.242 303.52 177.157C304.811 172.372 312.85 175.282 316.188 175.042ZM313.551 178.746C312.813 181.711 304.857 180.251 302.469 179.808C304.423 177.194 311.301 179.743 313.551 178.746ZM297.711 188.795H306.157C304.718 185.387 301.335 188.777 298.771 187.207C300.403 182.856 306.811 186.81 309.328 185.091C306.811 182.708 303.787 183.854 300.357 184.029C300.809 179.9 308.24 182.754 311.974 181.914C310.407 185.461 307.355 187.512 306.691 191.964C304.147 190.985 300.016 191.604 296.66 191.437C296.891 190.43 297.794 190.107 297.72 188.795H297.711ZM295.074 195.141C295.591 191.428 301.98 193.599 305.631 193.026C305.281 197.931 299.352 194.07 295.074 195.141ZM299.823 204.665C298.596 209.025 291.986 204.831 288.215 205.191C290.197 201.709 295.803 205.237 299.823 204.665ZM282.932 209.422C285.569 204.997 292.53 207.962 297.711 208.359C298.108 209.985 296.264 209.376 296.651 211.001C290.676 210.9 289.155 209.431 282.932 209.412V209.422ZM279.76 230.048C272.052 229.706 262.556 228.247 255.475 226.87C255.078 225.245 256.922 225.854 256.535 224.229C266.576 225.623 276.303 227.342 286.094 228.986C285.098 232.246 281.844 230.14 279.76 230.048ZM260.232 234.279C267.608 236.052 276.856 235.96 284.508 237.456C282.757 240.44 276.478 239.276 271.315 239.045C267.193 238.86 262.851 238.121 259.707 237.983C259.873 236.745 260.537 235.997 260.232 234.279ZM258.646 239.571C270.946 238.952 283.227 242.352 294.54 240.634C283.033 245.899 270.31 244.947 258.646 241.16V239.571ZM161.524 254.905C181.549 267.809 205.199 277.074 239.109 276.058C238.593 282.237 237.182 287.521 235.412 292.453C207.291 304.073 165.747 286.089 151.483 266.543C154.019 261.86 158.454 259.071 161.515 254.914L161.524 254.905Z" fill="#231F20"/>
<path fill-rule="evenodd" clip-rule="evenodd" d="M298.772 153.353C303.059 150.268 309.78 136.726 317.774 139.073C319.47 139.571 322.098 142.222 320.411 145.418C317.58 146.139 318.779 142.823 317.239 142.241C306.525 142.823 303.354 155.45 296.125 161.278C294.226 161.787 295.194 158.997 295.6 158.637C292.889 158.914 288.759 157.778 288.206 160.225C288.206 162.701 293.138 160.225 294.014 161.814C292.815 164.133 287.228 162.064 286.094 164.456C287.164 165.232 290.188 163.181 291.377 164.983C289.57 168.64 286.472 170.996 282.406 172.391C278.506 168.105 286.223 162.987 285.043 158.11C289.081 157.75 294.18 158.452 295.6 155.468C292.954 154.702 289.939 155.311 286.629 155.995C285.762 150.268 289.174 145.298 291.377 141.188C295.858 132.838 301.602 125.079 307.743 117.393C312.998 110.807 320.365 106.799 319.36 94.1253C316.797 94.0237 314.316 94.0052 313.026 95.1876C302.662 109.837 291.58 123.767 280.83 138.02C278.893 142.25 277.418 146.943 273.444 149.123C278.838 134.907 291.23 121.051 301.418 107.343C304.221 103.575 310.121 96.2868 309.338 92.01C308.406 86.9666 302.008 88.0104 298.255 90.4213C290.741 104.508 279.815 117.356 271.859 131.665C269.286 136.292 268.41 142.213 263.939 144.883C267.995 132.57 277.916 116.793 286.103 104.166C289.736 98.5591 293.737 95.5293 294.549 88.8325C289.985 85.7566 284.61 89.8393 281.881 92.01C281.973 94.2177 280.258 94.6149 280.295 96.7671C274.016 102.642 270.798 111.574 264.99 117.92C263.238 121.735 260.905 126.048 258.656 130.085C256.6 133.771 254.654 138.555 251.796 140.135C251.178 138.74 253.907 132.561 255.493 129.559C261.781 117.624 271.195 105.653 277.658 94.1253C271.757 90.1257 270.614 98.0788 266.576 100.998C263.164 103.464 260.325 100.97 258.13 104.702C260.048 106.54 260.334 101.432 262.878 103.639C260.011 112.747 251.667 116.377 248.624 125.319C247.619 125.55 247.297 126.455 245.988 126.381C238.63 138.398 230.922 150.065 225.934 164.456C221.463 160.983 228.636 154.009 229.622 149.123C230.83 143.202 229.585 137.401 230.148 130.612C226.616 126.88 228.036 118.289 234.37 118.446C234.49 111.343 238.022 107.658 242.816 105.228C243.655 99.9077 247.103 97.1828 250.736 94.6518C252.709 94.2639 253.686 94.347 255.484 95.1783C257.134 87.3823 269.683 80.6393 273.426 90.9478C275.039 90.2088 277.252 90.6245 278.709 91.4743C281.632 87.4469 292.308 81.5999 297.186 87.7702C301.925 84.4911 311.809 84.8606 311.965 92.0008C314.187 90.2642 317.221 90.5968 320.411 90.9385C327.805 101.838 316.363 111.325 309.854 119.499C304.7 125.965 301.012 132.671 297.186 136.948C299.657 140.163 299.481 148.679 298.772 153.344V153.353ZM261.827 90.9478C264.289 90.2458 266.981 89.7654 269.212 88.8325C266.354 87.9365 262.565 88.2413 261.827 90.9478ZM259.716 94.1253C263.985 93.8205 267.617 92.8783 270.273 90.9478C266.253 91.502 262.298 92.1301 259.716 94.1253ZM258.656 98.8824C261.661 96.9611 266.742 97.1181 268.687 94.1253C265.045 94.1715 262.925 95.751 259.19 95.7141C258.923 96.3976 257.854 98.8731 258.665 98.8916L258.656 98.8824ZM247.573 101.524C249.749 100.351 253.207 100.471 254.968 98.8824C252.773 98.0972 247.979 98.79 247.573 101.524ZM257.605 101.524C260.085 100.841 263.478 101.062 264.464 98.8824C262.012 99.6029 258.305 99.0579 257.605 101.524ZM245.988 104.166C249.565 103.519 253.529 103.261 256.019 101.524C253.317 101.053 248.034 102.254 245.988 104.166ZM244.927 106.808C248.237 107.722 252.303 105.117 256.535 105.219C254.94 102.208 247.5 105.662 244.927 106.808ZM246.513 109.45C248.302 109.339 255.152 110.105 256.01 107.334C254.212 107.307 247.933 107.334 246.513 109.45ZM247.039 112.091C248.145 113.662 253.4 111.362 255.484 110.503C253.032 111.389 248.293 109.995 247.039 112.091ZM238.593 114.733C240.078 113.394 244.134 114.641 244.927 112.618C244.512 112.507 244.309 112.174 244.402 111.556C241.073 111.787 236.961 111.029 238.593 114.733ZM247.564 116.322C250.164 116.285 252.589 116.063 252.847 113.68C250.478 113.957 247.011 113.126 247.564 116.322ZM237.533 117.384C240.05 118.797 242.613 116.294 245.978 116.858C246.08 112.941 238.307 115.574 237.533 117.384ZM238.058 120.026C240.142 121.042 245.471 120.765 246.504 118.964C244.614 118.151 239.285 118.419 238.058 120.026ZM230.664 125.319C232.72 124.737 235.578 124.958 237.524 124.256C236.519 121.236 230.701 119.564 230.664 125.319ZM239.109 122.141C239.847 125.707 243.443 121.698 246.504 122.668C245.508 120.026 241.378 122.603 239.109 122.141ZM239.635 125.845C240.326 127.646 244.798 127.259 244.383 124.783C242.364 124.7 240.539 124.811 239.635 125.845ZM231.19 126.372C231.429 130.048 236.39 127.397 238.584 126.898C237.321 127.111 238.879 124.487 236.998 125.31C235.569 126.169 233.107 125.993 231.19 126.372ZM231.715 131.129C233.098 133.032 236.233 131.803 238.575 131.655V129.014C236.021 129.457 232.877 129.3 231.715 131.129ZM232.775 135.359C234.564 135.221 237.053 135.766 238.058 134.833C237.975 134.214 238.151 133.336 237.533 133.244C236.777 134.777 232.148 132.431 232.785 135.359H232.775ZM233.301 142.232C233.79 140.255 235.458 139.451 235.938 137.475H232.766C233.089 138.916 232.093 141.668 233.292 142.232H233.301ZM295.581 143.294C295.987 142.934 296.955 140.144 295.056 140.652C295.323 142.315 293.811 142.814 295.581 143.294ZM292.41 146.472C293.608 146.093 296.522 147.423 296.107 145.409C295.286 144.116 292.115 144.892 292.41 146.472ZM291.35 150.176C291.746 148.457 296.513 151.118 296.098 148.587C295.591 147.765 289.376 148.504 291.35 150.176ZM288.713 153.88C291.193 153.372 295.037 154.221 296.107 152.291C294.364 151.441 288.362 150.868 288.713 153.88Z" fill="#231F20"/>
<path fill-rule="evenodd" clip-rule="evenodd" d="M410.664 228.977C412.849 233.263 408.249 236.616 404.33 234.796C399.951 230.833 404.653 226.261 410.664 228.977Z" fill="#231F20"/>
</g>
<defs>
<clipPath id="clip0_1278_9525">
<rect width="881" height="300" fill="white"/>
</clipPath>
</defs>
</svg>
