<svg width="65" height="70" viewBox="0 0 65 70" fill="none" xmlns="http://www.w3.org/2000/svg">
<path d="M64.4259 15.3003L32.9417 0.100967C32.6625 -0.0336555 32.3375 -0.0336555 32.0585 0.100967L0.574108 15.3003C0.223061 15.4697 0 15.8252 0 16.215V53.1276C0 53.5174 0.223061 53.8729 0.574108 54.0423L32.0583 69.2416C32.1978 69.3089 32.349 69.3427 32.5 69.3427C32.651 69.3427 32.802 69.3089 32.9417 69.2416L64.4259 54.0423C64.7769 53.8729 65 53.5174 65 53.1276V16.2151C65 15.8251 64.7768 15.4698 64.4259 15.3003ZM32.5 2.14373L61.6479 16.215L53.1985 20.294C53.145 20.2533 53.0885 20.2156 53.0265 20.1857L24.0766 6.21016L32.5 2.14373ZM21.7826 7.35864L50.8881 21.4095L44.927 24.2873L15.8335 10.2422L21.7826 7.35864ZM51.5691 23.3364V33.9743L46.0009 36.6624V26.0245L51.5691 23.3364ZM62.9685 52.4902L33.5158 66.7084V32.0518L40.5412 28.6602C41.0463 28.4163 41.2582 27.8092 41.0142 27.3038C40.7703 26.7988 40.1632 26.5867 39.6579 26.8308L32.5 30.2864L29.6835 28.9266C29.1782 28.6824 28.571 28.8945 28.3271 29.3997C28.0832 29.9049 28.295 30.5122 28.8002 30.7561L31.4842 32.0518V66.7084L2.03152 52.49V17.8333L24.4595 28.6606C24.6019 28.7294 24.7523 28.7619 24.9004 28.7619C25.2779 28.7619 25.6406 28.5504 25.8158 28.1876C26.0597 27.6824 25.8479 27.0751 25.3427 26.8312L3.35215 16.215L13.4427 11.3437L43.9553 26.074C43.9598 26.0802 43.9648 26.0857 43.9694 26.0918V38.2808C43.9694 38.6304 44.1491 38.9553 44.4452 39.1412C44.6096 39.2444 44.7972 39.2966 44.9853 39.2966C45.1359 39.2966 45.2869 39.2631 45.4268 39.1956L53.0265 35.5268C53.3775 35.3573 53.6006 35.002 53.6006 34.612V22.3559L62.9685 17.8334V52.4902Z" fill="#735CFF"/>
<path d="M10.4139 48.5506L5.79359 46.3201C5.28814 46.076 4.68113 46.288 4.43721 46.7932C4.19329 47.2984 4.40511 47.9057 4.91028 48.1496L9.53064 50.3801C9.67298 50.4489 9.82345 50.4814 9.97148 50.4814C10.3491 50.4814 10.7118 50.2698 10.8869 49.907C11.1309 49.4017 10.9191 48.7947 10.4139 48.5506Z" fill="#735CFF"/>
<path d="M14.6676 45.7829L5.80131 41.5026C5.29601 41.2587 4.68885 41.4705 4.44493 41.9758C4.20115 42.481 4.41297 43.0883 4.91814 43.3322L13.7844 47.6125C13.9267 47.6812 14.0772 47.7138 14.2252 47.7138C14.6028 47.7138 14.9655 47.5023 15.1406 47.1394C15.3845 46.634 15.1727 46.0267 14.6676 45.7829Z" fill="#735CFF"/>
</svg>
