<svg width="65" height="65" viewBox="0 0 65 65" fill="none" xmlns="http://www.w3.org/2000/svg">
<g clip-path="url(#clip0_1278_8740)">
<path d="M64.9373 18.2688C64.8365 17.4422 64.4193 16.7046 63.7626 16.192L43.8643 0.658316C42.5118 -0.397478 40.5489 -0.157652 39.4889 1.19345L20.2125 25.7688L7.42203 34.3321C7.42178 34.3322 7.42152 34.3325 7.42114 34.3326L3.89053 36.6965L1.42485 38.3473C1.38143 38.3764 1.3389 38.4064 1.29739 38.4373C0.673635 38.9005 0.250225 39.5692 0.0988896 40.3359C-0.0620948 41.1519 0.104349 41.9813 0.567497 42.6714L0.569147 42.6738C0.569147 42.674 0.569274 42.6741 0.569401 42.6742L3.55561 47.124L4.59008 48.6656L10.6152 57.6437C10.6152 57.6437 10.6153 57.6439 10.6153 57.644L11.6149 59.1335L14.627 63.6219C15.2274 64.5166 16.2151 65.0003 17.2204 65.0003C17.8168 65.0003 18.4196 64.8299 18.9515 64.4739L18.9534 64.4726C18.9536 64.4724 18.954 64.4723 18.9543 64.4721L24.8087 60.5525L27.3949 62.5713C27.9632 63.0148 28.6388 63.2297 29.3101 63.2297C30.2371 63.2297 31.1557 62.8198 31.7704 62.0362L41.9203 49.0962L56.7177 39.1893C56.7371 39.1782 56.7572 39.1689 56.7761 39.1563L62.7725 35.1415C63.4661 34.6772 63.937 33.9709 64.0983 33.153C64.2593 32.3371 64.0929 31.5077 63.6297 30.8175L63.6264 30.8127C63.6259 30.812 63.6255 30.8113 63.6251 30.8106L60.2308 25.7526L64.2957 20.5701C64.8103 19.9135 65.0383 19.0964 64.9373 18.2688ZM8.42971 41.9757C8.05581 43.8701 7.06718 45.5422 5.61197 46.7706L2.58729 42.2635L2.15055 41.6126C1.9704 41.3441 1.90552 41.0212 1.96824 40.7037C2.02321 40.4251 2.17036 40.18 2.38708 40.0019C2.41806 39.9765 2.45056 39.9523 2.48433 39.9297L4.19333 38.7856L7.64662 36.4737C8.52493 38.1615 8.80335 40.0824 8.42971 41.9757ZM17.8929 62.8905C17.3353 63.2623 16.58 63.1144 16.2081 62.5602L16.1665 62.4982L12.7575 57.4183C16.2414 55.612 20.5421 56.4484 23.0708 59.4238L17.8929 62.8905ZM30.2718 60.8605C29.8585 61.3873 29.0936 61.4813 28.5666 61.0699L26.4747 59.4368L36.8229 52.5086L30.2718 60.8605ZM55.7673 31.5129C56.1411 29.6185 57.1298 27.9462 58.585 26.7179L62.0449 31.8737C62.224 32.1419 62.2884 32.4639 62.2258 32.7807C62.163 33.0991 61.9798 33.374 61.7097 33.5547L56.5482 37.0104C55.6716 35.3238 55.394 33.4045 55.7673 31.5129ZM62.797 19.3946L59.1144 24.0894L49.5673 9.86287C48.6106 8.43711 46.6705 8.05497 45.2427 9.01084L36.8063 14.659C35.7832 15.3441 36.8426 16.926 37.8659 16.2416L39.5326 15.1256C41.5404 17.5956 44.5212 18.9209 47.5543 18.9209C49.2415 18.9209 50.9443 18.5092 52.5053 17.6584L57.5192 25.1297C55.645 26.6471 54.3713 28.7502 53.8988 31.1439C53.4268 33.5348 53.8043 35.9611 54.9585 38.0744L40.7263 47.6029C40.7249 47.6039 40.7233 47.6048 40.7219 47.6058L24.6597 58.3597C21.5344 54.5193 16.057 53.4508 11.6915 55.8303L6.67741 48.3586C8.55159 46.8412 9.82524 44.7381 10.2978 42.3444C10.7701 39.9518 10.3917 37.5239 9.23552 35.4095L33.4423 19.2029C34.4653 18.5178 33.4058 16.9355 32.3827 17.6203L25.3095 22.3559L40.9874 2.36884C41.4005 1.84221 42.1653 1.74801 42.6926 2.15961L62.5908 17.6932C62.8459 17.8923 63.0077 18.1786 63.047 18.4997C63.0862 18.8212 62.9975 19.139 62.797 19.3946ZM46.3023 10.5994C46.8604 10.226 47.6167 10.3738 47.989 10.9284L49.7333 13.5275L51.4397 16.0704C47.9557 17.8767 43.6549 17.0403 41.1264 14.0648L46.3023 10.5994Z" fill="#735CFF"/>
<path d="M25.132 26.3611C22.3558 28.2199 20.4707 31.0476 19.8241 34.3234C19.1778 37.5977 19.8465 40.9277 21.7069 43.6998C23.5739 46.4819 26.4144 48.367 29.7053 49.0079C30.8762 49.2357 31.2576 47.3701 30.0693 47.1385C27.2792 46.5952 24.871 44.9971 23.2882 42.6386C21.7114 40.2891 21.1446 37.4669 21.6924 34.6919C22.2404 31.9157 23.8382 29.519 26.1916 27.9434C31.0491 24.6912 37.6502 25.9932 40.9065 30.8455C42.4833 33.1951 43.0499 36.0173 42.5022 38.7922C41.9541 41.5684 40.3563 43.9651 38.003 45.5405C37.0769 46.1606 36.0693 46.6284 35.0081 46.931C33.824 47.2684 34.3462 49.0997 35.5302 48.7624C36.7826 48.4052 37.971 47.8537 39.0625 47.1229C41.8387 45.2641 43.7238 42.4366 44.3704 39.1609C45.0168 35.8865 44.3481 32.5565 42.4876 29.7842C38.6468 24.0613 30.8614 22.5254 25.132 26.3611Z" fill="#735CFF"/>
<path d="M46.5995 27.9863C46.7817 27.9863 46.9658 27.9341 47.1284 27.8251L51.611 24.8241C52.0479 24.5314 52.1649 23.9401 51.8725 23.5031C51.5799 23.0661 50.9884 22.9491 50.5515 23.2415L46.069 26.2426C45.6321 26.5352 45.515 27.1266 45.8074 27.5636C45.991 27.8381 46.2924 27.9863 46.5995 27.9863Z" fill="#735CFF"/>
<path d="M17.067 45.6594L12.5846 48.6604C12.1477 48.9529 12.0307 49.5443 12.323 49.9813C12.5068 50.2557 12.808 50.404 13.1151 50.404C13.2973 50.404 13.4814 50.3518 13.6441 50.2429L18.1265 47.2418C18.5633 46.9493 18.6804 46.3579 18.388 45.9209C18.0952 45.4839 17.504 45.3667 17.067 45.6594Z" fill="#735CFF"/>
<path d="M35.4799 43.6289C36.1977 44.6987 37.7262 43.5586 37.0612 42.5678L36.5481 41.8034C37.9211 40.3884 37.9657 38.4308 37.3411 37.0462C36.3098 34.7607 34.1891 34.572 32.036 35.0796L29.8758 31.8606C30.4184 31.6843 30.8413 31.7303 30.8831 31.7354C32.0953 31.9102 32.3754 30.0391 31.1642 29.8519C31.0983 29.8419 30.0186 29.6885 28.7903 30.2431L28.3713 29.6188C27.6851 28.5967 26.1038 29.6577 26.79 30.68L27.247 31.361C26.2576 32.4222 25.9713 33.9813 26.5454 35.3233C27.3865 37.2897 29.2713 37.5235 31.1663 37.2014L33.9461 41.3437C33.3952 41.6429 32.952 41.7361 32.1202 41.7461C30.9171 41.7607 30.9674 43.6688 32.1433 43.6504C33.4408 43.6346 34.1901 43.4033 35.0104 42.9295L35.4799 43.6289ZM29.2955 35.4393C28.9009 35.4102 28.5087 35.0707 28.2964 34.5743C28.1142 34.1485 28.0507 33.5405 28.3594 33.0183L29.9798 35.4328C29.7356 35.4506 29.5049 35.4547 29.2955 35.4393ZM33.2326 36.7455C34.7998 36.3438 35.4446 37.4736 35.6052 37.8294C35.9065 38.497 35.9289 39.403 35.4377 40.1486L33.1654 36.7625C33.188 36.7566 33.2096 36.7514 33.2326 36.7455Z" fill="#735CFF"/>
</g>
<defs>
<clipPath id="clip0_1278_8740">
<rect width="65" height="65" fill="white"/>
</clipPath>
</defs>
</svg>
