<svg width="68" height="66" viewBox="0 0 68 66" fill="none" xmlns="http://www.w3.org/2000/svg">
<path d="M61.224 25.3146C60.6768 25.2764 60.1982 25.6871 60.1582 26.2357C59.1806 39.6467 53.7878 56.8913 33.6848 63.0784C20.4802 59.0149 12.0486 49.7235 8.61988 35.457C6.3509 26.0162 7.1349 17.3707 7.38166 15.2533C12.5178 12.5558 18.2259 9.80368 24.3564 7.06853C24.8588 6.84434 25.0843 6.25531 24.8603 5.75301C24.6361 5.25058 24.0465 5.02533 23.5448 5.24912C17.1917 8.08362 11.2868 10.9378 5.99403 13.7326C5.71406 13.8803 5.52095 14.1524 5.47407 14.4656C5.41231 14.8772 3.99267 24.6712 6.66832 35.8618C8.24814 42.4692 10.9387 48.1697 14.6653 52.805C19.3355 58.6142 25.6382 62.7419 33.3982 65.0735C33.4917 65.1017 33.5882 65.1156 33.6848 65.1156C33.7814 65.1156 33.8779 65.1017 33.9714 65.0735C43.7596 62.1324 51.1698 56.3789 55.9961 47.9729C59.4734 41.9165 61.5423 34.6519 62.1452 26.3805C62.1852 25.8317 61.7728 25.3547 61.224 25.3146Z" fill="#735CFF"/>
<path d="M61.8977 14.4655C61.8507 14.1522 61.6577 13.88 61.3778 13.7324C47.9242 6.62844 34.1929 1.13262 34.0558 1.0779C33.8187 0.983473 33.5547 0.983473 33.3178 1.0779C33.2944 1.0872 30.9415 2.02699 27.2926 3.60388C26.7876 3.82222 26.5552 4.40846 26.7734 4.91342C26.9917 5.41824 27.5778 5.6512 28.0829 5.43258C30.8712 4.2277 32.8937 3.39881 33.6866 3.07741C35.9291 3.98771 48.0064 8.96077 59.9907 15.2536C60.1132 16.2947 60.3676 18.9117 60.3236 22.4008C60.3166 22.9509 60.757 23.4025 61.307 23.4094C61.3112 23.4095 61.3155 23.4095 61.3198 23.4095C61.8641 23.4095 62.3086 22.9718 62.3155 22.426C62.3752 17.7073 61.9172 14.5956 61.8977 14.4655Z" fill="#735CFF"/>
<path d="M56.3019 18.2571C56.2549 17.9441 56.0619 17.672 55.7819 17.5241C45.0838 11.8753 34.1643 7.50484 34.0553 7.46114C33.8184 7.36671 33.5541 7.36671 33.3172 7.46114C33.2082 7.50471 22.2888 11.8752 11.5905 17.5241C11.3106 17.6718 11.1175 17.944 11.0706 18.2571C11.0133 18.638 9.70407 27.6971 12.5851 37.4414C12.7411 37.969 13.2951 38.2702 13.8227 38.1141C14.3503 37.958 14.6514 37.4039 14.4954 36.8764C12.1128 28.8179 12.7559 21.041 12.9796 19.0442C22.3293 14.142 31.73 10.2567 33.686 9.46091C35.6422 10.2567 45.0434 14.1423 54.393 19.0445C54.5996 20.8738 55.1614 27.5537 53.4119 34.8708C50.7188 46.1339 44.0825 53.4751 33.686 56.6954C25.0914 54.032 19.0269 48.4868 15.6595 40.2101C15.4525 39.7008 14.8713 39.4559 14.3618 39.6629C13.8522 39.8704 13.6072 40.4514 13.8145 40.9609C17.4577 49.9156 24.0471 55.8808 33.3997 58.6908C33.4932 58.719 33.5897 58.7329 33.6863 58.7329C33.7829 58.7329 33.8794 58.719 33.9729 58.6908C40.1786 56.8263 45.2198 53.5241 48.9566 48.8759C51.9366 45.1695 54.0875 40.6133 55.3497 35.3341C57.4846 26.4052 56.3512 18.5857 56.3019 18.2571Z" fill="#735CFF"/>
<path d="M46.6764 23.1088C44.9221 21.3547 42.0682 21.3547 40.3139 23.1088L29.9524 33.4706L27.0608 30.579C25.3065 28.8249 22.4526 28.8248 20.6983 30.5791C18.9443 32.3332 18.9443 35.1873 20.6983 36.9415L26.7713 43.0143C27.6206 43.864 28.7505 44.3319 29.9524 44.3319C31.1543 44.3319 32.2841 43.864 33.1336 43.0143L46.6764 29.4712C48.4302 27.7172 48.4302 24.8631 46.6764 23.1088ZM45.2674 28.0626L31.7247 41.6057C31.2515 42.079 30.6219 42.3397 29.9523 42.3397C29.2826 42.3397 28.6531 42.079 28.1798 41.6055L22.1067 35.5328C21.1296 34.5554 21.1296 32.965 22.1069 31.9877C22.5955 31.499 23.2375 31.2546 23.8794 31.2546C24.5213 31.2546 25.1633 31.499 25.6521 31.9877L29.248 35.5836C29.6371 35.9724 30.2677 35.9727 30.6567 35.5836L41.7225 24.5176C42.6997 23.54 44.2902 23.5403 45.2674 24.5175C46.2446 25.4949 46.2446 27.0853 45.2674 28.0626Z" fill="#735CFF"/>
<path d="M6.57925 58.6055H5.51954C4.96929 58.6055 4.52344 59.0513 4.52344 59.6016C4.52344 60.1518 4.96929 60.5977 5.51954 60.5977H6.57925C7.1295 60.5977 7.57535 60.1518 7.57535 59.6016C7.57535 59.0513 7.1295 58.6055 6.57925 58.6055Z" fill="#735CFF"/>
<path d="M6.57925 54.4834H5.51954C4.96929 54.4834 4.52344 54.9293 4.52344 55.4795C4.52344 56.0297 4.96929 56.4756 5.51954 56.4756H6.57925C7.1295 56.4756 7.57535 56.0297 7.57535 55.4795C7.57535 54.9293 7.1295 54.4834 6.57925 54.4834Z" fill="#735CFF"/>
<path d="M6.57925 50.3616H5.51954C4.96929 50.3616 4.52344 50.8074 4.52344 51.3577C4.52344 51.9079 4.96929 52.3538 5.51954 52.3538H6.57925C7.1295 52.3538 7.57535 51.9079 7.57535 51.3577C7.57535 50.8074 7.1295 50.3616 6.57925 50.3616Z" fill="#735CFF"/>
<path d="M67.0022 7.55482H66.0997V6.65235C66.0997 6.1021 65.6539 5.65625 65.1036 5.65625C64.5534 5.65625 64.1075 6.1021 64.1075 6.65235V7.55482H63.2051C62.6548 7.55482 62.209 8.00067 62.209 8.55092C62.209 9.10116 62.6548 9.54702 63.2051 9.54702H64.1075V10.4495C64.1075 10.9997 64.5534 11.4456 65.1036 11.4456C65.6539 11.4456 66.0997 10.9997 66.0997 10.4495V9.54702H67.0022C67.5525 9.54702 67.9983 9.10116 67.9983 8.55092C67.9983 8.00067 67.5525 7.55482 67.0022 7.55482Z" fill="#735CFF"/>
<path d="M4.79323 8.55082H3.89077V7.64835C3.89077 7.09811 3.44491 6.65225 2.89467 6.65225C2.34442 6.65225 1.89857 7.09811 1.89857 7.64835V8.55082H0.9961C0.445854 8.55082 0 8.99667 0 9.54692C0 10.0972 0.445854 10.543 0.9961 10.543H1.89857V11.4455C1.89857 11.9957 2.34442 12.4416 2.89467 12.4416C3.44491 12.4416 3.89077 11.9957 3.89077 11.4455V10.543H4.79323C5.34348 10.543 5.78933 10.0972 5.78933 9.54692C5.78933 8.99667 5.34348 8.55082 4.79323 8.55082Z" fill="#735CFF"/>
<path d="M13.3263 1.89857H12.424V0.9961C12.424 0.445854 11.9781 0 11.4279 0C10.8776 0 10.4318 0.445854 10.4318 0.9961V1.89857H9.5293C8.97906 1.89857 8.5332 2.34442 8.5332 2.89467C8.5332 3.44491 8.97906 3.89077 9.5293 3.89077H10.4318V4.79323C10.4318 5.34348 10.8776 5.78933 11.4279 5.78933C11.9781 5.78933 12.424 5.34348 12.424 4.79323V3.89077H13.3263C13.8765 3.89077 14.3224 3.44491 14.3224 2.89467C14.3224 2.34442 13.8765 1.89857 13.3263 1.89857Z" fill="#735CFF"/>
</svg>
