<svg width="87" height="123" viewBox="0 0 87 123" fill="none" xmlns="http://www.w3.org/2000/svg">
<line x1="43.5" y1="73" x2="43.5" y2="123" stroke="white"/>
<path d="M53.088 47.1467C53.5147 47.1467 53.8773 47.296 54.176 47.5947C54.4747 47.8934 54.624 48.256 54.624 48.6827C54.624 49.1094 54.4747 49.472 54.176 49.7707C53.8773 50.0694 53.5147 50.2187 53.088 50.2187H31.136C30.7093 50.2187 30.3467 50.0694 30.048 49.7707C29.7493 49.472 29.6 49.1094 29.6 48.6827V45.6107C29.6 45.0774 29.696 44.576 29.888 44.1067C30.08 43.616 30.3467 43.2 30.688 42.8587C31.0507 42.496 31.456 42.2187 31.904 42.0267C32.3733 41.8134 32.8853 41.7067 33.44 41.7067H50.432C50.752 41.7067 51.0293 41.6 51.264 41.3867C51.52 41.152 51.648 40.864 51.648 40.5227C51.648 40.2027 51.52 39.9254 51.264 39.6907C51.0293 39.456 50.752 39.3387 50.432 39.3387H31.136C30.7093 39.3387 30.3467 39.1894 30.048 38.8907C29.7493 38.592 29.6 38.2294 29.6 37.8027C29.6 37.376 29.7493 37.0134 30.048 36.7147C30.3467 36.416 30.7093 36.2667 31.136 36.2667H50.304C50.9013 36.2667 51.456 36.384 51.968 36.6187C52.5013 36.832 52.96 37.1307 53.344 37.5147C53.7493 37.8987 54.0587 38.3467 54.272 38.8587C54.5067 39.3707 54.624 39.9254 54.624 40.5227C54.624 41.12 54.5067 41.6747 54.272 42.1867C54.0587 42.6987 53.7493 43.1467 53.344 43.5307C52.96 43.9147 52.5013 44.224 51.968 44.4587C51.456 44.672 50.9013 44.7787 50.304 44.7787H33.632C33.3547 44.8214 33.12 44.9494 32.928 45.1627C32.736 45.376 32.64 45.6427 32.64 45.9627V47.1467H53.088Z" fill="white"/>
<circle cx="43.0546" cy="43.0546" r="42.5546" stroke="white" stroke-opacity="0.2"/>
<circle cx="43.055" cy="43.0545" r="29.7025" stroke="white"/>
</svg>
