<svg width="35" height="22" viewBox="0 0 35 22" fill="none" xmlns="http://www.w3.org/2000/svg">
<rect width="35" height="22" rx="2" fill="#26337A"/>
<path d="M8.79698 8H6.98399C6.92397 7.99996 6.86591 8.02136 6.82027 8.06034C6.77463 8.09932 6.74442 8.15332 6.73507 8.21261L6.00181 12.8616C5.99844 12.8832 5.99979 12.9052 6.00575 12.9262C6.01172 12.9472 6.02217 12.9667 6.03638 12.9833C6.05059 12.9998 6.06822 13.0131 6.08806 13.0222C6.10791 13.0314 6.12949 13.0361 6.15133 13.036H7.01686C7.07692 13.036 7.13501 13.0146 7.18066 12.9756C7.2263 12.9365 7.25649 12.8825 7.26579 12.8231L7.46355 11.5692C7.47284 11.51 7.50299 11.4559 7.54858 11.4169C7.59417 11.3779 7.6522 11.3564 7.71221 11.3564H8.28614C9.4804 11.3564 10.1696 10.7785 10.3496 9.63325C10.4308 9.13222 10.3531 8.73856 10.1185 8.46286C9.86081 8.16012 9.40378 8 8.79698 8ZM9.00614 9.69794C8.907 10.3485 8.40994 10.3485 7.92932 10.3485H7.65574L7.84767 9.13355C7.85329 9.098 7.87141 9.06563 7.89877 9.04226C7.92613 9.01888 7.96094 9.00604 7.99692 9.00604H8.12231C8.44971 9.00604 8.75854 9.00604 8.91813 9.19267C9.0133 9.30401 9.04246 9.46943 9.00614 9.69794ZM14.2163 9.67699H13.3481C13.3122 9.677 13.2774 9.68984 13.25 9.71321C13.2226 9.73659 13.2045 9.76896 13.1989 9.80451L13.1605 10.0473L13.0997 9.95932C12.9118 9.68654 12.4927 9.59535 12.0744 9.59535C11.115 9.59535 10.2956 10.322 10.136 11.3413C10.053 11.8497 10.171 12.3359 10.4594 12.675C10.724 12.9867 11.1025 13.1166 11.5529 13.1166C12.3259 13.1166 12.7546 12.6196 12.7546 12.6196L12.7159 12.8608C12.7124 12.8824 12.7137 12.9044 12.7196 12.9255C12.7255 12.9465 12.7359 12.966 12.7501 12.9826C12.7642 12.9992 12.7818 13.0126 12.8016 13.0218C12.8215 13.031 12.843 13.0357 12.8649 13.0358H13.6469C13.707 13.0358 13.7651 13.0143 13.8107 12.9753C13.8563 12.9363 13.8865 12.8822 13.8958 12.8229L14.365 9.85143C14.3685 9.82991 14.3672 9.80789 14.3614 9.78691C14.3555 9.76592 14.3451 9.74646 14.331 9.72988C14.3168 9.71329 14.2992 9.69997 14.2795 9.69084C14.2597 9.68171 14.2381 9.67699 14.2163 9.67699ZM13.0062 11.3667C12.9224 11.8627 12.5287 12.1957 12.0266 12.1957C11.7745 12.1957 11.5731 12.1148 11.4437 11.9616C11.3154 11.8094 11.2666 11.5928 11.3074 11.3516C11.3856 10.8599 11.7859 10.516 12.2803 10.516C12.5269 10.516 12.7273 10.5979 12.8593 10.7525C12.9916 10.9086 13.0441 11.1265 13.0062 11.3667ZM18.8401 9.67699H17.9677C17.9266 9.67706 17.886 9.68716 17.8497 9.70643C17.8133 9.72569 17.7822 9.75353 17.7591 9.78754L16.5558 11.56L16.0458 9.85673C16.0301 9.80478 15.9981 9.75925 15.9546 9.72688C15.911 9.69451 15.8582 9.67702 15.804 9.67699H14.9467C14.9226 9.67693 14.8989 9.68262 14.8774 9.69358C14.856 9.70454 14.8375 9.72046 14.8235 9.74001C14.8095 9.75956 14.8003 9.78218 14.7968 9.80599C14.7933 9.8298 14.7955 9.8541 14.8033 9.87688L15.7642 12.697L14.8608 13.9723C14.8447 13.995 14.8352 14.0215 14.8333 14.0492C14.8313 14.0769 14.837 14.1045 14.8497 14.1292C14.8625 14.1538 14.8817 14.1745 14.9054 14.1889C14.9291 14.2033 14.9563 14.2109 14.984 14.2109H15.8554C15.8961 14.211 15.9362 14.2012 15.9723 14.1823C16.0083 14.1635 16.0393 14.1362 16.0625 14.1028L18.9642 9.91426C18.9799 9.89159 18.9891 9.86506 18.9909 9.83753C18.9926 9.81 18.9867 9.78252 18.974 9.75808C18.9612 9.73364 18.9419 9.71316 18.9184 9.69886C18.8948 9.68457 18.8677 9.67701 18.8401 9.67699Z" fill="white"/>
<path d="M21.7287 8.00027H19.9154C19.8554 8.00029 19.7974 8.02172 19.7519 8.06069C19.7063 8.09967 19.6761 8.15363 19.6668 8.21287L18.9335 12.8619C18.9301 12.8834 18.9314 12.9054 18.9373 12.9264C18.9432 12.9474 18.9536 12.9668 18.9678 12.9834C18.9819 13 18.9995 13.0133 19.0193 13.0224C19.0391 13.0316 19.0607 13.0363 19.0825 13.0363H20.013C20.0549 13.0362 20.0955 13.0212 20.1274 12.9939C20.1593 12.9666 20.1804 12.9288 20.1869 12.8873L20.395 11.5695C20.4043 11.5102 20.4344 11.4562 20.48 11.4172C20.5256 11.3781 20.5836 11.3567 20.6436 11.3566H21.2173C22.4118 11.3566 23.1008 10.7787 23.2811 9.63352C23.3624 9.13249 23.2842 8.73882 23.0496 8.46312C22.7922 8.16038 22.3355 8.00027 21.7287 8.00027ZM21.9378 9.6982C21.8389 10.3487 21.3419 10.3487 20.861 10.3487H20.5877L20.7799 9.13381C20.7854 9.09827 20.8035 9.06587 20.8308 9.04248C20.8581 9.01909 20.8929 9.00626 20.9289 9.0063H21.0543C21.3814 9.0063 21.6905 9.0063 21.8501 9.19293C21.9452 9.30427 21.9741 9.46969 21.9378 9.6982ZM27.1477 9.67726H26.2801C26.2441 9.67716 26.2093 9.68998 26.1819 9.71337C26.1546 9.73677 26.1366 9.7692 26.1311 9.80477L26.0927 10.0476L26.0317 9.95959C25.8437 9.6868 25.4249 9.59561 25.0066 9.59561C24.0472 9.59561 23.228 10.3222 23.0685 11.3415C22.9857 11.85 23.1032 12.3362 23.3916 12.6752C23.6567 12.987 24.0347 13.1169 24.4851 13.1169C25.2581 13.1169 25.6868 12.6198 25.6868 12.6198L25.6481 12.8611C25.6446 12.8827 25.6459 12.9048 25.6519 12.9258C25.6578 12.9469 25.6682 12.9664 25.6824 12.9831C25.6967 12.9997 25.7143 13.0131 25.7342 13.0222C25.7541 13.0314 25.7757 13.0361 25.7976 13.036H26.5794C26.6394 13.036 26.6974 13.0145 26.743 12.9755C26.7886 12.9365 26.8188 12.8824 26.828 12.8231L27.2975 9.85169C27.3009 9.8301 27.2995 9.80805 27.2935 9.78705C27.2875 9.76605 27.277 9.74659 27.2628 9.73002C27.2485 9.71345 27.2309 9.70015 27.211 9.69104C27.1912 9.68194 27.1696 9.67723 27.1477 9.67726ZM25.9376 11.367C25.8543 11.863 25.4602 12.1959 24.9581 12.1959C24.7065 12.1959 24.5045 12.1151 24.3751 11.9619C24.2468 11.8097 24.1986 11.5931 24.2389 11.3519C24.3176 10.8601 24.7174 10.5163 25.2118 10.5163C25.4583 10.5163 25.6587 10.5982 25.7907 10.7528C25.9235 10.9089 25.976 11.1268 25.9376 11.367ZM28.1713 8.12778L27.4272 12.8619C27.4238 12.8834 27.4251 12.9054 27.431 12.9264C27.4369 12.9474 27.4473 12.9668 27.4614 12.9834C27.4756 13 27.4932 13.0133 27.513 13.0224C27.5328 13.0316 27.5543 13.0363 27.5761 13.0363H28.3242C28.4486 13.0363 28.5541 12.9462 28.5732 12.8234L29.307 8.1747C29.3104 8.15315 29.3091 8.13112 29.3031 8.11012C29.2972 8.08912 29.2868 8.06965 29.2727 8.05305C29.2585 8.03645 29.2409 8.02312 29.2211 8.01396C29.2013 8.0048 29.1798 8.00004 29.158 8H28.3203C28.2843 8.00013 28.2496 8.01306 28.2223 8.03647C28.195 8.05988 28.1769 8.09225 28.1713 8.12778Z" fill="white"/>
</svg>
