<svg width="211" height="35" viewBox="0 0 211 35" fill="none" xmlns="http://www.w3.org/2000/svg">
<path d="M14.6094 20.3027C14.6094 19.8457 14.5391 19.4355 14.3984 19.0723C14.2695 18.6973 14.0234 18.3574 13.6602 18.0527C13.2969 17.7363 12.7871 17.4258 12.1309 17.1211C11.4746 16.8164 10.625 16.5 9.58203 16.1719C8.42188 15.7969 7.32031 15.375 6.27734 14.9062C5.24609 14.4375 4.33203 13.8926 3.53516 13.2715C2.75 12.6387 2.12891 11.9062 1.67188 11.0742C1.22656 10.2422 1.00391 9.27539 1.00391 8.17383C1.00391 7.10742 1.23828 6.14062 1.70703 5.27344C2.17578 4.39453 2.83203 3.64453 3.67578 3.02344C4.51953 2.39062 5.51562 1.9043 6.66406 1.56445C7.82422 1.22461 9.0957 1.05469 10.4785 1.05469C12.3652 1.05469 14.0117 1.39453 15.418 2.07422C16.8242 2.75391 17.9141 3.68555 18.6875 4.86914C19.4727 6.05273 19.8652 7.40625 19.8652 8.92969H14.627C14.627 8.17969 14.4688 7.52344 14.1523 6.96094C13.8477 6.38672 13.3789 5.93555 12.7461 5.60742C12.125 5.2793 11.3398 5.11523 10.3906 5.11523C9.47656 5.11523 8.71484 5.25586 8.10547 5.53711C7.49609 5.80664 7.03906 6.17578 6.73438 6.64453C6.42969 7.10156 6.27734 7.61719 6.27734 8.19141C6.27734 8.625 6.38281 9.01758 6.59375 9.36914C6.81641 9.7207 7.14453 10.0488 7.57812 10.3535C8.01172 10.6582 8.54492 10.9453 9.17773 11.2148C9.81055 11.4844 10.543 11.748 11.375 12.0059C12.7695 12.4277 13.9941 12.9023 15.0488 13.4297C16.1152 13.957 17.0059 14.5488 17.7207 15.2051C18.4355 15.8613 18.9746 16.6055 19.3379 17.4375C19.7012 18.2695 19.8828 19.2129 19.8828 20.2676C19.8828 21.3809 19.666 22.377 19.2324 23.2559C18.7988 24.1348 18.1719 24.8789 17.3516 25.4883C16.5312 26.0977 15.5527 26.5605 14.416 26.877C13.2793 27.1934 12.0078 27.3516 10.6016 27.3516C9.33594 27.3516 8.08789 27.1875 6.85742 26.8594C5.62695 26.5195 4.50781 26.0098 3.5 25.3301C2.50391 24.6504 1.70703 23.7832 1.10938 22.7285C0.511719 21.6738 0.212891 20.4258 0.212891 18.9844H5.50391C5.50391 19.7812 5.62695 20.4551 5.87305 21.0059C6.11914 21.5566 6.46484 22.002 6.91016 22.3418C7.36719 22.6816 7.90625 22.9277 8.52734 23.0801C9.16016 23.2324 9.85156 23.3086 10.6016 23.3086C11.5156 23.3086 12.2656 23.1797 12.8516 22.9219C13.4492 22.6641 13.8887 22.3066 14.1699 21.8496C14.4629 21.3926 14.6094 20.877 14.6094 20.3027ZM28.0918 0V27H23.0293V0H28.0918ZM27.3711 16.8223H25.9824C25.9941 15.498 26.1699 14.2793 26.5098 13.166C26.8496 12.041 27.3359 11.0684 27.9688 10.248C28.6016 9.41602 29.3574 8.77148 30.2363 8.31445C31.127 7.85742 32.1113 7.62891 33.1895 7.62891C34.127 7.62891 34.9766 7.76367 35.7383 8.0332C36.5117 8.29102 37.1738 8.71289 37.7246 9.29883C38.2871 9.87305 38.7207 10.6289 39.0254 11.5664C39.3301 12.5039 39.4824 13.6406 39.4824 14.9766V27H34.3848V14.9414C34.3848 14.0977 34.2617 13.4355 34.0156 12.9551C33.7812 12.4629 33.4355 12.1172 32.9785 11.918C32.5332 11.707 31.9824 11.6016 31.3262 11.6016C30.5996 11.6016 29.9785 11.7363 29.4629 12.0059C28.959 12.2754 28.5547 12.6504 28.25 13.1309C27.9453 13.5996 27.7227 14.1504 27.582 14.7832C27.4414 15.416 27.3711 16.0957 27.3711 16.8223ZM42.5234 17.6836V17.3145C42.5234 15.9199 42.7227 14.6367 43.1211 13.4648C43.5195 12.2812 44.0996 11.2559 44.8613 10.3887C45.623 9.52148 46.5605 8.84766 47.6738 8.36719C48.7871 7.875 50.0645 7.62891 51.5059 7.62891C52.9473 7.62891 54.2305 7.875 55.3555 8.36719C56.4805 8.84766 57.4238 9.52148 58.1855 10.3887C58.959 11.2559 59.5449 12.2812 59.9434 13.4648C60.3418 14.6367 60.541 15.9199 60.541 17.3145V17.6836C60.541 19.0664 60.3418 20.3496 59.9434 21.5332C59.5449 22.7051 58.959 23.7305 58.1855 24.6094C57.4238 25.4766 56.4863 26.1504 55.373 26.6309C54.2598 27.1113 52.9824 27.3516 51.541 27.3516C50.0996 27.3516 48.8164 27.1113 47.6914 26.6309C46.5781 26.1504 45.6348 25.4766 44.8613 24.6094C44.0996 23.7305 43.5195 22.7051 43.1211 21.5332C42.7227 20.3496 42.5234 19.0664 42.5234 17.6836ZM47.5859 17.3145V17.6836C47.5859 18.4805 47.6562 19.2246 47.7969 19.916C47.9375 20.6074 48.1602 21.2168 48.4648 21.7441C48.7812 22.2598 49.1914 22.6641 49.6953 22.957C50.1992 23.25 50.8145 23.3965 51.541 23.3965C52.2441 23.3965 52.8477 23.25 53.3516 22.957C53.8555 22.6641 54.2598 22.2598 54.5645 21.7441C54.8691 21.2168 55.0918 20.6074 55.2324 19.916C55.3848 19.2246 55.4609 18.4805 55.4609 17.6836V17.3145C55.4609 16.541 55.3848 15.8145 55.2324 15.1348C55.0918 14.4434 54.8633 13.834 54.5469 13.3066C54.2422 12.7676 53.8379 12.3457 53.334 12.041C52.8301 11.7363 52.2207 11.584 51.5059 11.584C50.791 11.584 50.1816 11.7363 49.6777 12.041C49.1855 12.3457 48.7812 12.7676 48.4648 13.3066C48.1602 13.834 47.9375 14.4434 47.7969 15.1348C47.6562 15.8145 47.5859 16.541 47.5859 17.3145ZM68.7148 11.6367V34.3125H63.6523V7.98047H68.3457L68.7148 11.6367ZM80.7559 17.2793V17.6484C80.7559 19.0312 80.5918 20.3145 80.2637 21.498C79.9473 22.6816 79.4785 23.7129 78.8574 24.5918C78.2363 25.459 77.4629 26.1387 76.5371 26.6309C75.623 27.1113 74.5684 27.3516 73.373 27.3516C72.2129 27.3516 71.2051 27.1172 70.3496 26.6484C69.4941 26.1797 68.7734 25.5234 68.1875 24.6797C67.6133 23.8242 67.1504 22.834 66.7988 21.709C66.4473 20.584 66.1777 19.377 65.9902 18.0879V17.1211C66.1777 15.7383 66.4473 14.4727 66.7988 13.3242C67.1504 12.1641 67.6133 11.1621 68.1875 10.3184C68.7734 9.46289 69.4883 8.80078 70.332 8.33203C71.1875 7.86328 72.1895 7.62891 73.3379 7.62891C74.5449 7.62891 75.6055 7.85742 76.5195 8.31445C77.4453 8.77148 78.2188 9.42773 78.8398 10.2832C79.4727 11.1387 79.9473 12.1582 80.2637 13.3418C80.5918 14.5254 80.7559 15.8379 80.7559 17.2793ZM75.6758 17.6484V17.2793C75.6758 16.4707 75.6055 15.7266 75.4648 15.0469C75.3359 14.3555 75.125 13.752 74.832 13.2363C74.5508 12.7207 74.1758 12.3223 73.707 12.041C73.25 11.748 72.6934 11.6016 72.0371 11.6016C71.3457 11.6016 70.7539 11.7129 70.2617 11.9355C69.7812 12.1582 69.3887 12.4805 69.084 12.9023C68.7793 13.3242 68.5508 13.8281 68.3984 14.4141C68.2461 15 68.1523 15.6621 68.1172 16.4004V18.8438C68.1758 19.7109 68.3398 20.4902 68.6094 21.1816C68.8789 21.8613 69.2949 22.4004 69.8574 22.7988C70.4199 23.1973 71.1582 23.3965 72.0723 23.3965C72.7402 23.3965 73.3027 23.25 73.7598 22.957C74.2168 22.6523 74.5859 22.2363 74.8672 21.709C75.1602 21.1816 75.3652 20.5723 75.4824 19.8809C75.6113 19.1895 75.6758 18.4453 75.6758 17.6484ZM88.9648 11.6367V34.3125H83.9023V7.98047H88.5957L88.9648 11.6367ZM101.006 17.2793V17.6484C101.006 19.0312 100.842 20.3145 100.514 21.498C100.197 22.6816 99.7285 23.7129 99.1074 24.5918C98.4863 25.459 97.7129 26.1387 96.7871 26.6309C95.873 27.1113 94.8184 27.3516 93.623 27.3516C92.4629 27.3516 91.4551 27.1172 90.5996 26.6484C89.7441 26.1797 89.0234 25.5234 88.4375 24.6797C87.8633 23.8242 87.4004 22.834 87.0488 21.709C86.6973 20.584 86.4277 19.377 86.2402 18.0879V17.1211C86.4277 15.7383 86.6973 14.4727 87.0488 13.3242C87.4004 12.1641 87.8633 11.1621 88.4375 10.3184C89.0234 9.46289 89.7383 8.80078 90.582 8.33203C91.4375 7.86328 92.4395 7.62891 93.5879 7.62891C94.7949 7.62891 95.8555 7.85742 96.7695 8.31445C97.6953 8.77148 98.4688 9.42773 99.0898 10.2832C99.7227 11.1387 100.197 12.1582 100.514 13.3418C100.842 14.5254 101.006 15.8379 101.006 17.2793ZM95.9258 17.6484V17.2793C95.9258 16.4707 95.8555 15.7266 95.7148 15.0469C95.5859 14.3555 95.375 13.752 95.082 13.2363C94.8008 12.7207 94.4258 12.3223 93.957 12.041C93.5 11.748 92.9434 11.6016 92.2871 11.6016C91.5957 11.6016 91.0039 11.7129 90.5117 11.9355C90.0312 12.1582 89.6387 12.4805 89.334 12.9023C89.0293 13.3242 88.8008 13.8281 88.6484 14.4141C88.4961 15 88.4023 15.6621 88.3672 16.4004V18.8438C88.4258 19.7109 88.5898 20.4902 88.8594 21.1816C89.1289 21.8613 89.5449 22.4004 90.1074 22.7988C90.6699 23.1973 91.4082 23.3965 92.3223 23.3965C92.9902 23.3965 93.5527 23.25 94.0098 22.957C94.4668 22.6523 94.8359 22.2363 95.1172 21.709C95.4102 21.1816 95.6152 20.5723 95.7324 19.8809C95.8613 19.1895 95.9258 18.4453 95.9258 17.6484ZM109.496 7.98047V27H104.416V7.98047H109.496ZM104.1 3.02344C104.1 2.28516 104.357 1.67578 104.873 1.19531C105.389 0.714844 106.08 0.474609 106.947 0.474609C107.803 0.474609 108.488 0.714844 109.004 1.19531C109.531 1.67578 109.795 2.28516 109.795 3.02344C109.795 3.76172 109.531 4.37109 109.004 4.85156C108.488 5.33203 107.803 5.57227 106.947 5.57227C106.08 5.57227 105.389 5.33203 104.873 4.85156C104.357 4.37109 104.1 3.76172 104.1 3.02344ZM118.637 12.041V27H113.574V7.98047H118.32L118.637 12.041ZM117.898 16.8223H116.527C116.527 15.416 116.709 14.1504 117.072 13.0254C117.436 11.8887 117.945 10.9219 118.602 10.125C119.258 9.31641 120.037 8.70117 120.939 8.2793C121.854 7.8457 122.873 7.62891 123.998 7.62891C124.889 7.62891 125.703 7.75781 126.441 8.01562C127.18 8.27344 127.812 8.68359 128.34 9.24609C128.879 9.80859 129.289 10.5527 129.57 11.4785C129.863 12.4043 130.01 13.5352 130.01 14.8711V27H124.912V14.8535C124.912 14.0098 124.795 13.3535 124.561 12.8848C124.326 12.416 123.98 12.0879 123.523 11.9004C123.078 11.7012 122.527 11.6016 121.871 11.6016C121.191 11.6016 120.6 11.7363 120.096 12.0059C119.604 12.2754 119.193 12.6504 118.865 13.1309C118.549 13.5996 118.309 14.1504 118.145 14.7832C117.98 15.416 117.898 16.0957 117.898 16.8223ZM145.9 7.98047H150.488V26.3672C150.488 28.1016 150.102 29.5723 149.328 30.7793C148.566 31.998 147.5 32.918 146.129 33.5391C144.758 34.1719 143.164 34.4883 141.348 34.4883C140.551 34.4883 139.707 34.3828 138.816 34.1719C137.938 33.9609 137.094 33.6328 136.285 33.1875C135.488 32.7422 134.82 32.1797 134.281 31.5L136.514 28.5117C137.1 29.1914 137.779 29.7188 138.553 30.0938C139.326 30.4805 140.182 30.6738 141.119 30.6738C142.033 30.6738 142.807 30.5039 143.439 30.1641C144.072 29.8359 144.559 29.3496 144.898 28.7051C145.238 28.0723 145.408 27.3047 145.408 26.4023V12.375L145.9 7.98047ZM133.104 17.7188V17.3496C133.104 15.8965 133.279 14.5781 133.631 13.3945C133.994 12.1992 134.504 11.1738 135.16 10.3184C135.828 9.46289 136.637 8.80078 137.586 8.33203C138.535 7.86328 139.607 7.62891 140.803 7.62891C142.068 7.62891 143.129 7.86328 143.984 8.33203C144.84 8.80078 145.543 9.46875 146.094 10.3359C146.645 11.1914 147.072 12.2051 147.377 13.377C147.693 14.5371 147.939 15.8086 148.115 17.1914V18C147.939 19.3242 147.676 20.5547 147.324 21.6914C146.973 22.8281 146.51 23.8242 145.936 24.6797C145.361 25.5234 144.646 26.1797 143.791 26.6484C142.947 27.1172 141.939 27.3516 140.768 27.3516C139.596 27.3516 138.535 27.1113 137.586 26.6309C136.648 26.1504 135.846 25.4766 135.178 24.6094C134.51 23.7422 133.994 22.7227 133.631 21.5508C133.279 20.3789 133.104 19.1016 133.104 17.7188ZM138.166 17.3496V17.7188C138.166 18.5039 138.242 19.2363 138.395 19.916C138.547 20.5957 138.781 21.1992 139.098 21.7266C139.426 22.2422 139.83 22.6465 140.311 22.9395C140.803 23.2207 141.383 23.3613 142.051 23.3613C142.977 23.3613 143.732 23.168 144.318 22.7812C144.904 22.3828 145.344 21.8379 145.637 21.1465C145.93 20.4551 146.1 19.6582 146.146 18.7559V16.4531C146.123 15.7148 146.023 15.0527 145.848 14.4668C145.672 13.8691 145.426 13.3594 145.109 12.9375C144.793 12.5156 144.383 12.1875 143.879 11.9531C143.375 11.7188 142.777 11.6016 142.086 11.6016C141.418 11.6016 140.838 11.7539 140.346 12.0586C139.865 12.3516 139.461 12.7559 139.133 13.2715C138.816 13.7871 138.576 14.3965 138.412 15.0996C138.248 15.791 138.166 16.541 138.166 17.3496ZM168.734 0V27H163.654V0H168.734ZM178.262 7.98047V27H173.182V7.98047H178.262ZM172.865 3.02344C172.865 2.28516 173.123 1.67578 173.639 1.19531C174.154 0.714844 174.846 0.474609 175.713 0.474609C176.568 0.474609 177.254 0.714844 177.77 1.19531C178.297 1.67578 178.561 2.28516 178.561 3.02344C178.561 3.76172 178.297 4.37109 177.77 4.85156C177.254 5.33203 176.568 5.57227 175.713 5.57227C174.846 5.57227 174.154 5.33203 173.639 4.85156C173.123 4.37109 172.865 3.76172 172.865 3.02344ZM192.729 21.7441C192.729 21.3809 192.623 21.0527 192.412 20.7598C192.201 20.4668 191.809 20.1973 191.234 19.9512C190.672 19.6934 189.857 19.459 188.791 19.248C187.83 19.0371 186.934 18.7734 186.102 18.457C185.281 18.1289 184.566 17.7363 183.957 17.2793C183.359 16.8223 182.891 16.2832 182.551 15.6621C182.211 15.0293 182.041 14.3086 182.041 13.5C182.041 12.7031 182.211 11.9531 182.551 11.25C182.902 10.5469 183.4 9.92578 184.045 9.38672C184.701 8.83594 185.498 8.4082 186.436 8.10352C187.385 7.78711 188.451 7.62891 189.635 7.62891C191.287 7.62891 192.705 7.89258 193.889 8.41992C195.084 8.94727 195.998 9.67383 196.631 10.5996C197.275 11.5137 197.598 12.5566 197.598 13.7285H192.535C192.535 13.2363 192.43 12.7969 192.219 12.4102C192.02 12.0117 191.703 11.7012 191.27 11.4785C190.848 11.2441 190.297 11.127 189.617 11.127C189.055 11.127 188.568 11.2266 188.158 11.4258C187.748 11.6133 187.432 11.8711 187.209 12.1992C186.998 12.5156 186.893 12.8672 186.893 13.2539C186.893 13.5469 186.951 13.8105 187.068 14.0449C187.197 14.2676 187.402 14.4727 187.684 14.6602C187.965 14.8477 188.328 15.0234 188.773 15.1875C189.23 15.3398 189.793 15.4805 190.461 15.6094C191.832 15.8906 193.057 16.2598 194.135 16.7168C195.213 17.1621 196.068 17.7715 196.701 18.5449C197.334 19.3066 197.65 20.3086 197.65 21.5508C197.65 22.3945 197.463 23.168 197.088 23.8711C196.713 24.5742 196.174 25.1895 195.471 25.7168C194.768 26.2324 193.924 26.6367 192.939 26.9297C191.967 27.2109 190.871 27.3516 189.652 27.3516C187.883 27.3516 186.383 27.0352 185.152 26.4023C183.934 25.7695 183.008 24.9668 182.375 23.9941C181.754 23.0098 181.443 22.002 181.443 20.9707H186.242C186.266 21.6621 186.441 22.2188 186.77 22.6406C187.109 23.0625 187.537 23.3672 188.053 23.5547C188.58 23.7422 189.148 23.8359 189.758 23.8359C190.414 23.8359 190.959 23.748 191.393 23.5723C191.826 23.3848 192.154 23.1387 192.377 22.834C192.611 22.5176 192.729 22.1543 192.729 21.7441ZM210.254 7.98047V11.5664H199.18V7.98047H210.254ZM201.922 3.28711H206.984V21.2695C206.984 21.8203 207.055 22.2422 207.195 22.5352C207.348 22.8281 207.57 23.0332 207.863 23.1504C208.156 23.2559 208.525 23.3086 208.971 23.3086C209.287 23.3086 209.568 23.2969 209.814 23.2734C210.072 23.2383 210.289 23.2031 210.465 23.168L210.482 26.8945C210.049 27.0352 209.58 27.1465 209.076 27.2285C208.572 27.3105 208.016 27.3516 207.406 27.3516C206.293 27.3516 205.32 27.1699 204.488 26.8066C203.668 26.4316 203.035 25.834 202.59 25.0137C202.145 24.1934 201.922 23.1152 201.922 21.7793V3.28711Z" fill="black"/>
</svg>
