<svg width="189" height="58" viewBox="0 0 189 58" fill="none" xmlns="http://www.w3.org/2000/svg">
<path d="M12.6855 41.4258L21.0938 13.3008H30.1465L17.4023 49.7754C17.1289 50.5762 16.7578 51.4355 16.2891 52.3535C15.8398 53.2715 15.2246 54.1406 14.4434 54.9609C13.6816 55.8008 12.7148 56.4844 11.543 57.0117C10.3906 57.5391 8.97461 57.8027 7.29492 57.8027C6.49414 57.8027 5.83984 57.7539 5.33203 57.6562C4.82422 57.5586 4.21875 57.4219 3.51562 57.2461V51.0645C3.73047 51.0645 3.95508 51.0645 4.18945 51.0645C4.42383 51.084 4.64844 51.0938 4.86328 51.0938C5.97656 51.0938 6.88477 50.9668 7.58789 50.7129C8.29102 50.459 8.85742 50.0684 9.28711 49.541C9.7168 49.0332 10.0586 48.3691 10.3125 47.5488L12.6855 41.4258ZM9.16992 13.3008L16.0547 36.2695L17.2559 45.2051L11.5137 45.8203L0.117188 13.3008H9.16992ZM54.9316 1.9043H56.1621V8.64258H55.6641C53.4375 8.64258 51.4551 8.97461 49.7168 9.63867C47.9785 10.3027 46.5039 11.25 45.293 12.4805C44.1016 13.6914 43.1836 15.1562 42.5391 16.875C41.9141 18.5938 41.6016 20.5176 41.6016 22.6465V29.7363C41.6016 31.2598 41.748 32.6074 42.041 33.7793C42.3535 34.9316 42.793 35.8984 43.3594 36.6797C43.9453 37.4414 44.6289 38.0176 45.4102 38.4082C46.1914 38.7793 47.0703 38.9648 48.0469 38.9648C48.9648 38.9648 49.7949 38.7695 50.5371 38.3789C51.2988 37.9883 51.9434 37.4414 52.4707 36.7383C53.0176 36.0156 53.4277 35.1758 53.7012 34.2188C53.9941 33.2422 54.1406 32.1777 54.1406 31.0254C54.1406 29.873 53.9941 28.8086 53.7012 27.832C53.4277 26.8555 53.0176 26.0156 52.4707 25.3125C51.9238 24.5898 51.2598 24.0332 50.4785 23.6426C49.6973 23.252 48.8184 23.0566 47.8418 23.0566C46.5137 23.0566 45.3418 23.3691 44.3262 23.9941C43.3301 24.5996 42.5488 25.3809 41.9824 26.3379C41.416 27.2949 41.1133 28.3008 41.0742 29.3555L38.5254 27.7148C38.584 26.2109 38.8965 24.7852 39.4629 23.4375C40.0488 22.0898 40.8496 20.8984 41.8652 19.8633C42.9004 18.8086 44.1406 17.9883 45.5859 17.4023C47.0312 16.7969 48.6621 16.4941 50.4785 16.4941C52.4707 16.4941 54.2188 16.875 55.7227 17.6367C57.2461 18.3984 58.5156 19.4434 59.5312 20.7715C60.5469 22.0996 61.3086 23.6328 61.8164 25.3711C62.3242 27.1094 62.5781 28.9648 62.5781 30.9375C62.5781 33.0078 62.2363 34.9316 61.5527 36.709C60.8887 38.4863 59.9219 40.0391 58.6523 41.3672C57.4023 42.6953 55.8984 43.7305 54.1406 44.4727C52.3828 45.2148 50.4102 45.5859 48.2227 45.5859C45.957 45.5859 43.8965 45.1758 42.041 44.3555C40.2051 43.5156 38.623 42.3438 37.2949 40.8398C35.9668 39.3359 34.9414 37.5488 34.2188 35.4785C33.5156 33.4082 33.1641 31.1426 33.1641 28.6816V25.4004C33.1641 21.9629 33.6621 18.8184 34.6582 15.9668C35.6738 13.0957 37.1289 10.6152 39.0234 8.52539C40.918 6.41602 43.2031 4.78516 45.8789 3.63281C48.5547 2.48047 51.5723 1.9043 54.9316 1.9043ZM93.2227 30.8496H101.982C101.807 33.7207 101.016 36.2695 99.6094 38.4961C98.2227 40.7227 96.2793 42.4609 93.7793 43.7109C91.2988 44.9609 88.3105 45.5859 84.8145 45.5859C82.0801 45.5859 79.6289 45.1172 77.4609 44.1797C75.293 43.2227 73.4375 41.8555 71.8945 40.0781C70.3711 38.3008 69.209 36.1523 68.4082 33.6328C67.6074 31.1133 67.207 28.291 67.207 25.166V22.207C67.207 19.082 67.6172 16.2598 68.4375 13.7402C69.2773 11.2012 70.4688 9.04297 72.0117 7.26562C73.5742 5.48828 75.4395 4.12109 77.6074 3.16406C79.7754 2.20703 82.1973 1.72852 84.873 1.72852C88.4277 1.72852 91.4258 2.37305 93.8672 3.66211C96.3281 4.95117 98.2324 6.72852 99.5801 8.99414C100.947 11.2598 101.768 13.8379 102.041 16.7285H93.252C93.1543 15.0098 92.8125 13.5547 92.2266 12.3633C91.6406 11.1523 90.752 10.2441 89.5605 9.63867C88.3887 9.01367 86.8262 8.70117 84.873 8.70117C83.4082 8.70117 82.1289 8.97461 81.0352 9.52148C79.9414 10.0684 79.0234 10.8984 78.2812 12.0117C77.5391 13.125 76.9824 14.5312 76.6113 16.2305C76.2598 17.9102 76.084 19.8828 76.084 22.1484V25.166C76.084 27.373 76.25 29.3164 76.582 30.9961C76.9141 32.6562 77.4219 34.0625 78.1055 35.2148C78.8086 36.3477 79.707 37.207 80.8008 37.793C81.9141 38.3594 83.252 38.6426 84.8145 38.6426C86.6504 38.6426 88.1641 38.3496 89.3555 37.7637C90.5469 37.1777 91.4551 36.3086 92.0801 35.1562C92.7246 34.0039 93.1055 32.5684 93.2227 30.8496ZM115.459 0V45H107.021V0H115.459ZM114.258 28.0371H111.943C111.963 25.8301 112.256 23.7988 112.822 21.9434C113.389 20.0684 114.199 18.4473 115.254 17.0801C116.309 15.6934 117.568 14.6191 119.033 13.8574C120.518 13.0957 122.158 12.7148 123.955 12.7148C125.518 12.7148 126.934 12.9395 128.203 13.3887C129.492 13.8184 130.596 14.5215 131.514 15.498C132.451 16.4551 133.174 17.7148 133.682 19.2773C134.189 20.8398 134.443 22.7344 134.443 24.9609V45H125.947V24.9023C125.947 23.4961 125.742 22.3926 125.332 21.5918C124.941 20.7715 124.365 20.1953 123.604 19.8633C122.861 19.5117 121.943 19.3359 120.85 19.3359C119.639 19.3359 118.604 19.5605 117.744 20.0098C116.904 20.459 116.23 21.084 115.723 21.8848C115.215 22.666 114.844 23.584 114.609 24.6387C114.375 25.6934 114.258 26.8262 114.258 28.0371ZM157.969 37.8516V23.7305C157.969 22.7148 157.803 21.8457 157.471 21.123C157.139 20.3809 156.621 19.8047 155.918 19.3945C155.234 18.9844 154.346 18.7793 153.252 18.7793C152.314 18.7793 151.504 18.9453 150.82 19.2773C150.137 19.5898 149.609 20.0488 149.238 20.6543C148.867 21.2402 148.682 21.9336 148.682 22.7344H140.244C140.244 21.3867 140.557 20.1074 141.182 18.8965C141.807 17.6855 142.715 16.6211 143.906 15.7031C145.098 14.7656 146.514 14.0332 148.154 13.5059C149.814 12.9785 151.67 12.7148 153.721 12.7148C156.182 12.7148 158.369 13.125 160.283 13.9453C162.197 14.7656 163.701 15.9961 164.795 17.6367C165.908 19.2773 166.465 21.3281 166.465 23.7891V37.3535C166.465 39.0918 166.572 40.5176 166.787 41.6309C167.002 42.7246 167.314 43.6816 167.725 44.502V45H159.199C158.789 44.1406 158.477 43.0664 158.262 41.7773C158.066 40.4688 157.969 39.1602 157.969 37.8516ZM159.082 25.6934L159.141 30.4688H154.424C153.311 30.4688 152.344 30.5957 151.523 30.8496C150.703 31.1035 150.029 31.4648 149.502 31.9336C148.975 32.3828 148.584 32.9102 148.33 33.5156C148.096 34.1211 147.979 34.7852 147.979 35.5078C147.979 36.2305 148.145 36.8848 148.477 37.4707C148.809 38.0371 149.287 38.4863 149.912 38.8184C150.537 39.1309 151.27 39.2871 152.109 39.2871C153.379 39.2871 154.482 39.0332 155.42 38.5254C156.357 38.0176 157.08 37.3926 157.588 36.6504C158.115 35.9082 158.389 35.2051 158.408 34.541L160.635 38.1152C160.322 38.916 159.893 39.7461 159.346 40.6055C158.818 41.4648 158.145 42.2754 157.324 43.0371C156.504 43.7793 155.518 44.3945 154.365 44.8828C153.213 45.3516 151.846 45.5859 150.264 45.5859C148.252 45.5859 146.426 45.1855 144.785 44.3848C143.164 43.5645 141.875 42.4414 140.918 41.0156C139.98 39.5703 139.512 37.9297 139.512 36.0938C139.512 34.4336 139.824 32.959 140.449 31.6699C141.074 30.3809 141.992 29.2969 143.203 28.418C144.434 27.5195 145.967 26.8457 147.803 26.3965C149.639 25.9277 151.768 25.6934 154.189 25.6934H159.082ZM188.496 13.3008V19.2773H170.039V13.3008H188.496ZM174.609 5.47852H183.047V35.4492C183.047 36.3672 183.164 37.0703 183.398 37.5586C183.652 38.0469 184.023 38.3887 184.512 38.584C185 38.7598 185.615 38.8477 186.357 38.8477C186.885 38.8477 187.354 38.8281 187.764 38.7891C188.193 38.7305 188.555 38.6719 188.848 38.6133L188.877 44.8242C188.154 45.0586 187.373 45.2441 186.533 45.3809C185.693 45.5176 184.766 45.5859 183.75 45.5859C181.895 45.5859 180.273 45.2832 178.887 44.6777C177.52 44.0527 176.465 43.0566 175.723 41.6895C174.98 40.3223 174.609 38.5254 174.609 36.2988V5.47852Z" fill="white"/>
</svg>
