<svg width="30" height="30" viewBox="0 0 30 30" fill="none" xmlns="http://www.w3.org/2000/svg">
<path d="M4.39448 0H0.87886C0.393509 0 0 0.393509 0 0.878919V4.45315C0 4.93856 0.39345 5.33207 0.878919 5.33207C1.36433 5.33207 1.75784 4.93856 1.75784 4.45315V1.75784H4.39454C4.87995 1.75784 5.27346 1.36433 5.27346 0.878919C5.2734 0.393509 4.87989 0 4.39448 0Z" fill="white"/>
<path d="M29.1211 0H25.6055C25.1201 0 24.7266 0.393509 24.7266 0.878919C24.7266 1.36433 25.12 1.75784 25.6055 1.75784H28.2422V4.45315C28.2422 4.93856 28.6357 5.33207 29.1211 5.33207C29.6065 5.33207 30 4.93856 30 4.45315V0.878919C30 0.393509 29.6065 0 29.1211 0Z" fill="white"/>
<path d="M4.39454 28.2421H1.75784V25.5468C1.75784 25.0614 1.36433 24.6679 0.878919 24.6679C0.393509 24.6679 0 25.0614 0 25.5468V29.1211C0 29.6065 0.39345 30 0.878919 30H4.39454C4.87995 30 5.27346 29.6065 5.27346 29.1211C5.27346 28.6356 4.87995 28.2421 4.39454 28.2421Z" fill="white"/>
<path d="M29.1211 24.6679C28.6357 24.6679 28.2422 25.0614 28.2422 25.5468V28.2421H25.6055C25.1201 28.2421 24.7266 28.6356 24.7266 29.1211C24.7266 29.6065 25.1201 30 25.6055 30H29.1211C29.6065 30 30 29.6065 30 29.1211V25.5468C30 25.0614 29.6065 24.6679 29.1211 24.6679Z" fill="white"/>
<path d="M27.6795 7.21038L15.4386 0.118422C15.1661 -0.039474 14.8299 -0.039474 14.5574 0.118422L2.31151 7.21032C2.04155 7.36675 1.87305 7.65798 1.87305 7.97026C1.87305 7.97202 1.87322 7.97377 1.87322 7.97547V22.0375C1.87322 22.3527 2.04454 22.6478 2.32042 22.8031L14.5575 29.89C14.6893 29.9664 14.8461 30.0084 14.9981 30.0084C15.1568 30.0084 15.3118 29.9635 15.4387 29.89L27.6708 22.803C27.6729 22.8019 27.6749 22.8007 27.6769 22.7995C27.9604 22.595 28.1132 22.4231 28.1175 22.0481C28.1175 22.0446 28.1178 22.0411 28.1178 22.0376V7.97559C28.1178 7.97383 28.118 7.97208 28.118 7.97038C28.118 7.65781 27.9494 7.36651 27.6795 7.21038ZM14.1191 27.6046L4.51725 22.0415L11.9197 17.7964C12.3408 17.5549 12.4864 17.0178 12.2448 16.5967C12.0034 16.1756 11.4663 16.0301 11.0452 16.2716L3.63088 20.5203V9.48949L14.1191 15.5129V27.6046V27.6046ZM14.998 13.9906L4.51596 7.96774L14.998 1.89466L25.4801 7.96774L14.998 13.9906ZM26.3657 20.5203L18.9509 16.2715C18.5298 16.0301 17.9927 16.1756 17.7513 16.5967C17.5097 17.0178 17.6553 17.5548 18.0764 17.7963L25.4788 22.0413L15.8769 27.6045V15.5129L26.3657 9.48949V20.5203H26.3657Z" fill="white"/>
</svg>
