<svg width="87" height="123" viewBox="0 0 87 123" fill="none" xmlns="http://www.w3.org/2000/svg">
<path d="M33.248 43.2427C33.248 42.816 33.3973 42.4534 33.696 42.1547C33.9947 41.856 34.3573 41.7067 34.784 41.7067H50.688C51.008 41.7067 51.2853 41.5894 51.52 41.3547C51.7547 41.12 51.872 40.832 51.872 40.4907C51.872 40.1707 51.7547 39.904 51.52 39.6907C51.2853 39.456 51.008 39.3387 50.688 39.3387H31.136C30.7093 39.3387 30.3467 39.1894 30.048 38.8907C29.7493 38.592 29.6 38.2294 29.6 37.8027C29.6 37.376 29.7493 37.0134 30.048 36.7147C30.3467 36.416 30.7093 36.2667 31.136 36.2667H50.528C51.1253 36.2667 51.68 36.3734 52.192 36.5867C52.7253 36.8 53.184 37.0987 53.568 37.4827C53.952 37.8667 54.2507 38.3147 54.464 38.8267C54.6987 39.3387 54.816 39.8934 54.816 40.4907C54.816 41.024 54.72 41.5254 54.528 41.9947C54.3573 42.464 54.112 42.88 53.792 43.2427C54.4747 44.0534 54.816 44.9707 54.816 45.9947C54.816 46.592 54.6987 47.1467 54.464 47.6587C54.2507 48.1707 53.952 48.6187 53.568 49.0027C53.184 49.3867 52.7253 49.6854 52.192 49.8987C51.68 50.112 51.1253 50.2187 50.528 50.2187H31.136C30.7093 50.2187 30.3467 50.0694 30.048 49.7707C29.7493 49.472 29.6 49.1094 29.6 48.6827C29.6 48.256 29.7493 47.8934 30.048 47.5947C30.3467 47.296 30.7093 47.1467 31.136 47.1467H50.688C51.008 47.1467 51.2853 47.04 51.52 46.8267C51.7547 46.592 51.872 46.3147 51.872 45.9947C51.872 45.6534 51.7547 45.3654 51.52 45.1307C51.2853 44.896 51.008 44.7787 50.688 44.7787H34.784C34.3573 44.7787 33.9947 44.6294 33.696 44.3307C33.3973 44.032 33.248 43.6694 33.248 43.2427Z" fill="white"/>
<circle cx="43.0546" cy="43.0546" r="42.5546" stroke="white" stroke-opacity="0.2"/>
<circle cx="43.055" cy="43.0545" r="29.7025" stroke="white"/>
<line x1="42.5" y1="73" x2="42.5" y2="123" stroke="white"/>
</svg>
