<svg width="28" height="30" viewBox="0 0 28 30" fill="none" xmlns="http://www.w3.org/2000/svg">
<path d="M26.6788 7.21038L14.4379 0.118422C14.1654 -0.039474 13.8292 -0.039474 13.5567 0.118422L1.31078 7.21032C1.04082 7.36675 0.872314 7.65798 0.872314 7.97026C0.872314 7.97202 0.87249 7.97377 0.87249 7.97547V22.0375C0.87249 22.3527 1.04381 22.6478 1.31969 22.8031L13.5567 29.89C13.6886 29.9664 13.8454 30.0084 13.9974 30.0084C14.156 30.0084 14.3111 29.9635 14.438 29.89L26.6701 22.803C26.6721 22.8019 26.6741 22.8007 26.6762 22.7995C26.9597 22.595 27.1125 22.4231 27.1167 22.0481C27.1168 22.0446 27.1171 22.0411 27.1171 22.0376V7.97559C27.1171 7.97383 27.1173 7.97208 27.1173 7.97038C27.1173 7.65781 26.9487 7.36651 26.6788 7.21038ZM13.1184 27.6046L3.51652 22.0415L10.9189 17.7964C11.34 17.5549 11.4856 17.0178 11.2441 16.5967C11.0027 16.1756 10.4656 16.0301 10.0445 16.2716L2.63015 20.5203V9.48949L13.1184 15.5129V27.6046ZM13.9973 13.9906L3.51523 7.96774L13.9973 1.89466L24.4794 7.96774L13.9973 13.9906ZM25.365 20.5203L17.9502 16.2715C17.5291 16.0301 16.992 16.1756 16.7505 16.5967C16.509 17.0178 16.6546 17.5548 17.0757 17.7963L24.4781 22.0413L14.8762 27.6045V15.5129L25.3649 9.48949V20.5203H25.365Z" fill="black"/>
</svg>
