<svg width="60" height="72" viewBox="0 0 60 72" fill="none" xmlns="http://www.w3.org/2000/svg">
<path d="M56.4103 59.6947C58.4436 58.5311 59.8127 56.5256 59.9835 54.461C60.1879 51.9894 58.589 49.6328 56.3436 49.0958C54.8322 48.7343 53.2924 49.1567 51.891 50.3169C50.7999 51.2201 49.8453 52.5336 49.203 54.0151C48.5169 55.5976 48.0848 57.1986 47.9097 58.7629C44.9878 58.2974 42.1193 57.0551 39.6319 55.1508C36.4089 52.6833 34.0919 49.3088 33.108 45.6488C32.9587 45.093 32.3874 44.7639 31.8312 44.9131C31.2755 45.0625 30.9461 45.6342 31.0956 46.1899C33.1433 53.8069 40.077 59.735 47.8305 60.8599C47.8824 62.2046 48.1365 63.5014 48.5951 64.7122C50.0172 68.4663 53.5593 71.1163 57.2089 71.1569H57.2205C57.7906 71.1569 58.256 70.6978 58.2623 70.1264C58.2686 69.5509 57.8074 69.0793 57.2318 69.0729C54.4194 69.0416 51.6692 66.9449 50.5437 63.9739C50.1996 63.0656 49.998 62.0778 49.9365 61.0445C50.1269 61.0504 50.3205 61.0519 50.5097 61.0529C52.8892 61.0495 54.8192 60.6052 56.4103 59.6947ZM49.9963 58.9613C50.1499 57.6021 50.5242 56.2065 51.115 54.844C52.4257 51.8212 54.4927 50.7958 55.859 51.1226C57.0865 51.4161 58.0243 52.8662 57.9066 54.2891C57.7916 55.68 56.8217 57.0582 55.3752 57.8859C54.1069 58.6118 52.5145 58.966 50.5071 58.9688C50.3362 58.9692 50.1668 58.9665 49.9963 58.9613Z" fill="white"/>
<path d="M38.1991 29.7087C38.7573 29.5691 39.0967 29.0032 38.9571 28.445C38.8175 27.8868 38.2513 27.5472 37.6934 27.687L34.7188 28.4311L28.6136 21.0234L15.0055 4.51242L50.9854 24.0491C51.0142 24.0646 51.0903 24.106 51.0753 24.2245C51.0603 24.343 50.9761 24.364 50.9445 24.3719L42.3944 26.5109C41.8362 26.6506 41.4968 27.2164 41.6364 27.7747C41.776 28.3329 42.3421 28.6723 42.9001 28.5327L51.4502 26.3937C52.3603 26.166 53.0247 25.4175 53.1426 24.4867C53.2606 23.5559 52.8042 22.6653 51.9798 22.2177L11.2899 0.123551C11.246 0.0996545 11.1996 0.0790925 11.1526 0.061865C11.0998 0.0424144 11.0434 0.0271319 10.9881 0.0165731C10.9863 0.0162952 10.9845 0.0157395 10.9814 0.0153227C10.5895 -0.0473358 10.2213 0.0827048 9.97405 0.395719C9.88708 0.505753 9.82275 0.633293 9.78635 0.768752C9.78593 0.770419 6.84321 11.719 6.84321 11.719C6.69386 12.2747 7.02327 12.8464 7.57899 12.9958C8.13486 13.1452 8.70643 12.8157 8.85578 12.26L11.0348 4.15245L23.5709 32.3861L20.3642 33.1789L2.30152 37.6443C2.17328 37.6758 2.0563 37.5584 2.09103 37.4293C2.10159 37.3899 7.59261 16.9605 7.59261 16.9605C7.74196 16.4047 7.41255 15.833 6.85682 15.6837C6.30096 15.5349 5.72939 15.8637 5.58004 16.4195L0.0784618 36.8883C-0.131187 37.6684 0.0812406 38.4786 0.646556 39.0555C1.07947 39.4973 1.6534 39.7349 2.25053 39.7349C2.43308 39.7349 2.618 39.7127 2.80167 39.6673L17.5649 36.0175C18.2583 36.4411 28.2973 42.5748 28.2973 42.5748C28.5434 42.7253 28.8656 42.7666 29.1427 42.6825C29.423 42.5975 29.6677 42.3839 29.7891 42.1169C29.7904 42.1141 34.0732 32.692 35.0738 30.4905L38.1991 29.7087ZM20.4105 35.3141L24.4299 34.3205L26.5318 39.0543L20.4105 35.3141ZM28.8516 39.1432L14.8415 7.59018L33.1156 29.7627L28.8516 39.1432Z" fill="white"/>
<path d="M44.2407 34.0055C44.0736 33.4548 43.4914 33.144 42.9411 33.311C42.3904 33.4781 42.0795 34.06 42.2466 34.6106C42.9103 36.7981 44.5511 38.6642 46.6356 39.6026C46.7745 39.6651 46.9197 39.6947 47.0627 39.6947C47.4602 39.6947 47.8397 39.466 48.0134 39.0802C48.2496 38.5554 48.0158 37.9386 47.491 37.7024C45.9473 37.0074 44.7322 35.6255 44.2407 34.0055Z" fill="white"/>
<path d="M48.7967 31.4062C48.523 30.9 47.891 30.7113 47.3846 30.9851C46.8783 31.2587 46.6898 31.891 46.9635 32.3972C48.4073 35.0684 51.0375 37.0622 53.9994 37.7309C54.0767 37.7482 54.1538 37.7567 54.2298 37.7567C54.706 37.7567 55.1359 37.428 55.2452 36.9439C55.3719 36.3827 55.0196 35.8248 54.4582 35.6981C52.0748 35.1599 49.9584 33.5557 48.7967 31.4062Z" fill="white"/>
<path d="M14.8037 41.5548C14.26 41.7438 13.9727 42.3377 14.1617 42.8812C14.7175 44.4802 14.5486 46.3126 13.7094 47.7827C13.4242 48.2826 13.5982 48.9189 14.0979 49.2042C14.2609 49.2971 14.4384 49.3414 14.6135 49.3414C14.9754 49.3414 15.3272 49.1526 15.5195 48.8157C16.6526 46.8304 16.8808 44.356 16.1302 42.1967C15.9411 41.6532 15.3469 41.3657 14.8037 41.5548Z" fill="white"/>
<path d="M9.84151 42.2901C9.27119 42.3668 8.87093 42.8914 8.94762 43.4617C9.27327 45.8831 8.50637 48.4257 6.89601 50.2634C6.51672 50.6962 6.56021 51.3546 6.99298 51.7337C7.19068 51.9071 7.43548 51.992 7.6793 51.992C7.96898 51.992 8.2574 51.8718 8.46344 51.6367C10.4646 49.353 11.4177 46.1931 11.0131 43.184C10.9364 42.6137 10.4124 42.2133 9.84151 42.2901Z" fill="white"/>
</svg>
