<svg width="730" height="87" viewBox="0 0 730 87" fill="none" xmlns="http://www.w3.org/2000/svg">
<path d="M41.824 41C41.824 40.68 41.696 40.4027 41.44 40.168C41.2053 39.912 40.928 39.784 40.608 39.784H39.136C38.7093 39.784 38.3467 39.6347 38.048 39.336C37.7493 39.0373 37.6 38.6747 37.6 38.248C37.6 37.8213 37.7493 37.4587 38.048 37.16C38.3467 36.8613 38.7093 36.712 39.136 36.712H40.576C41.1733 36.712 41.728 36.8293 42.24 37.064C42.7733 37.2773 43.232 37.576 43.616 37.96C44.0213 38.344 44.3307 38.8027 44.544 39.336C44.7787 39.848 44.896 40.4027 44.896 41V49.128C44.896 49.5547 44.7467 49.9173 44.448 50.216C44.1493 50.5147 43.7867 50.664 43.36 50.664C42.9333 50.664 42.5707 50.5147 42.272 50.216C41.9733 49.9173 41.824 49.5547 41.824 49.128V41Z" fill="white"/>
<path d="M268.088 47.592C268.515 47.592 268.877 47.7413 269.176 48.04C269.475 48.3387 269.624 48.7013 269.624 49.128C269.624 49.5547 269.475 49.9173 269.176 50.216C268.877 50.5147 268.515 50.664 268.088 50.664H246.136C245.709 50.664 245.347 50.5147 245.048 50.216C244.749 49.9173 244.6 49.5547 244.6 49.128V46.056C244.6 45.5227 244.696 45.0213 244.888 44.552C245.08 44.0613 245.347 43.6453 245.688 43.304C246.051 42.9413 246.456 42.664 246.904 42.472C247.373 42.2587 247.885 42.152 248.44 42.152H265.432C265.752 42.152 266.029 42.0453 266.264 41.832C266.52 41.5973 266.648 41.3093 266.648 40.968C266.648 40.648 266.52 40.3707 266.264 40.136C266.029 39.9013 265.752 39.784 265.432 39.784H246.136C245.709 39.784 245.347 39.6347 245.048 39.336C244.749 39.0373 244.6 38.6747 244.6 38.248C244.6 37.8213 244.749 37.4587 245.048 37.16C245.347 36.8613 245.709 36.712 246.136 36.712H265.304C265.901 36.712 266.456 36.8293 266.968 37.064C267.501 37.2773 267.96 37.576 268.344 37.96C268.749 38.344 269.059 38.792 269.272 39.304C269.507 39.816 269.624 40.3707 269.624 40.968C269.624 41.5653 269.507 42.12 269.272 42.632C269.059 43.144 268.749 43.592 268.344 43.976C267.96 44.36 267.501 44.6693 266.968 44.904C266.456 45.1173 265.901 45.224 265.304 45.224H248.632C248.355 45.2667 248.12 45.3947 247.928 45.608C247.736 45.8213 247.64 46.088 247.64 46.408V47.592H268.088Z" fill="white"/>
<path d="M462.248 43.688C462.248 43.2613 462.397 42.8987 462.696 42.6C462.995 42.3013 463.357 42.152 463.784 42.152H479.688C480.008 42.152 480.285 42.0347 480.52 41.8C480.755 41.5653 480.872 41.2773 480.872 40.936C480.872 40.616 480.755 40.3493 480.52 40.136C480.285 39.9013 480.008 39.784 479.688 39.784H460.136C459.709 39.784 459.347 39.6347 459.048 39.336C458.749 39.0373 458.6 38.6747 458.6 38.248C458.6 37.8213 458.749 37.4587 459.048 37.16C459.347 36.8613 459.709 36.712 460.136 36.712H479.528C480.125 36.712 480.68 36.8187 481.192 37.032C481.725 37.2453 482.184 37.544 482.568 37.928C482.952 38.312 483.251 38.76 483.464 39.272C483.699 39.784 483.816 40.3387 483.816 40.936C483.816 41.4693 483.72 41.9707 483.528 42.44C483.357 42.9093 483.112 43.3253 482.792 43.688C483.475 44.4987 483.816 45.416 483.816 46.44C483.816 47.0373 483.699 47.592 483.464 48.104C483.251 48.616 482.952 49.064 482.568 49.448C482.184 49.832 481.725 50.1307 481.192 50.344C480.68 50.5573 480.125 50.664 479.528 50.664H460.136C459.709 50.664 459.347 50.5147 459.048 50.216C458.749 49.9173 458.6 49.5547 458.6 49.128C458.6 48.7013 458.749 48.3387 459.048 48.04C459.347 47.7413 459.709 47.592 460.136 47.592H479.688C480.008 47.592 480.285 47.4853 480.52 47.272C480.755 47.0373 480.872 46.76 480.872 46.44C480.872 46.0987 480.755 45.8107 480.52 45.576C480.285 45.3413 480.008 45.224 479.688 45.224H463.784C463.357 45.224 462.995 45.0747 462.696 44.776C462.397 44.4773 462.248 44.1147 462.248 43.688Z" fill="white"/>
<path d="M676.672 42.248C676.672 42.5893 676.789 42.8773 677.024 43.112C677.28 43.3253 677.568 43.432 677.888 43.432H695.616V38.248C695.616 37.8213 695.765 37.4587 696.064 37.16C696.363 36.8613 696.725 36.712 697.152 36.712C697.579 36.712 697.941 36.8613 698.24 37.16C698.539 37.4587 698.688 37.8213 698.688 38.248V49.128C698.688 49.5547 698.539 49.9173 698.24 50.216C697.941 50.5147 697.579 50.664 697.152 50.664C696.747 50.664 696.384 50.5147 696.064 50.216C695.765 49.9173 695.616 49.5547 695.616 49.128V46.504H678.016C677.419 46.504 676.853 46.3973 676.32 46.184C675.787 45.9493 675.317 45.64 674.912 45.256C674.507 44.872 674.187 44.424 673.952 43.912C673.717 43.4 673.6 42.8453 673.6 42.248V38.248C673.6 37.8213 673.749 37.4587 674.048 37.16C674.347 36.8613 674.709 36.712 675.136 36.712C675.563 36.712 675.925 36.8613 676.224 37.16C676.523 37.4587 676.672 37.8213 676.672 38.248V42.248Z" fill="white"/>
<circle cx="43.0546" cy="43.5" r="42.5546" stroke="white" stroke-opacity="0.2"/>
<circle cx="43.055" cy="43.4995" r="29.7025" stroke="white"/>
<circle cx="257.685" cy="43.5" r="42.5546" stroke="white" stroke-opacity="0.2"/>
<circle cx="257.686" cy="43.5004" r="29.7025" stroke="white"/>
<circle cx="472.314" cy="43.5" r="42.5546" stroke="white" stroke-opacity="0.2"/>
<circle cx="472.315" cy="43.5004" r="29.7025" stroke="white"/>
<circle cx="686.946" cy="43.5" r="42.5546" stroke="white" stroke-opacity="0.2"/>
<circle cx="686.947" cy="43.5004" r="29.7025" stroke="white"/>
<line x1="73" y1="42.5" x2="227" y2="42.5" stroke="white"/>
<line x1="288" y1="42.5" x2="442" y2="42.5" stroke="white"/>
<line x1="503" y1="42.5" x2="657" y2="42.5" stroke="white"/>
</svg>
