<svg width="87" height="123" viewBox="0 0 87 123" fill="none" xmlns="http://www.w3.org/2000/svg">
<path d="M41.824 40.5547C41.824 40.2347 41.696 39.9574 41.44 39.7227C41.2053 39.4667 40.928 39.3387 40.608 39.3387H39.136C38.7093 39.3387 38.3467 39.1894 38.048 38.8907C37.7493 38.592 37.6 38.2294 37.6 37.8027C37.6 37.376 37.7493 37.0134 38.048 36.7147C38.3467 36.416 38.7093 36.2667 39.136 36.2667H40.576C41.1733 36.2667 41.728 36.384 42.24 36.6187C42.7733 36.832 43.232 37.1307 43.616 37.5147C44.0213 37.8987 44.3307 38.3574 44.544 38.8907C44.7787 39.4027 44.896 39.9574 44.896 40.5547V48.6827C44.896 49.1094 44.7467 49.472 44.448 49.7707C44.1493 50.0694 43.7867 50.2187 43.36 50.2187C42.9333 50.2187 42.5707 50.0694 42.272 49.7707C41.9733 49.472 41.824 49.1094 41.824 48.6827V40.5547Z" fill="white"/>
<circle cx="43.0546" cy="43.0546" r="42.5546" stroke="white" stroke-opacity="0.2"/>
<circle cx="43.055" cy="43.0545" r="29.7025" stroke="white"/>
<line x1="43.5" y1="73" x2="43.5" y2="123" stroke="white"/>
</svg>
