<svg width="87" height="87" viewBox="0 0 87 87" fill="none" xmlns="http://www.w3.org/2000/svg">
<path d="M32.672 41.8027C32.672 42.144 32.7893 42.432 33.024 42.6667C33.28 42.88 33.568 42.9867 33.888 42.9867H51.616V37.8027C51.616 37.376 51.7653 37.0134 52.064 36.7147C52.3627 36.416 52.7253 36.2667 53.152 36.2667C53.5787 36.2667 53.9413 36.416 54.24 36.7147C54.5387 37.0134 54.688 37.376 54.688 37.8027V48.6827C54.688 49.1094 54.5387 49.472 54.24 49.7707C53.9413 50.0694 53.5787 50.2187 53.152 50.2187C52.7467 50.2187 52.384 50.0694 52.064 49.7707C51.7653 49.472 51.616 49.1094 51.616 48.6827V46.0587H34.016C33.4187 46.0587 32.8533 45.952 32.32 45.7387C31.7867 45.504 31.3173 45.1947 30.912 44.8107C30.5067 44.4267 30.1867 43.9787 29.952 43.4667C29.7173 42.9547 29.6 42.4 29.6 41.8027V37.8027C29.6 37.376 29.7493 37.0134 30.048 36.7147C30.3467 36.416 30.7093 36.2667 31.136 36.2667C31.5627 36.2667 31.9253 36.416 32.224 36.7147C32.5227 37.0134 32.672 37.376 32.672 37.8027V41.8027Z" fill="white"/>
<circle cx="43.0546" cy="43.0546" r="42.5546" stroke="white" stroke-opacity="0.2"/>
<circle cx="43.055" cy="43.0545" r="29.7025" stroke="white"/>
</svg>
